SplineFontDB: 1.0
FontName: Monospace
FullName: Monospace Regular
FamilyName: Monospace
Weight: Medium
Copyright: The programs to draw the splines of this font are Copyright (c) 2000,2001 by George Williams.
Version: 001.000
ItalicAngle: 0
UnderlinePosition: -100
UnderlineWidth: 37
Ascent: 808
Descent: 192
Encoding: unicode
DisplaySize: -24
AntiAlias: 1
Grid
-22 426 m 5
 680 426 l 5
-24 562 m 1
 620 562 l 1
638 632 m 1
 -22 632 l 25
EndSplineSet
BeginPrivate: 10
BlueValues 63 [-24.006 1.000 426.000 439.500 562.000 570.000 629.500 633.000]
OtherBlues 19 [-180.000 -168.000]
BlueScale 11 0.319917209
UniqueID 7 4190087
StdHW 8 [34.021]
StdVW 8 [35.647]
StemSnapH 15 [34.021 36.562]
StemSnapV 15 [18.727 35.647]
ForceBoldThreshold 2 .5
ForceBold 5 false
EndPrivate
BeginChars: 65536 16940
StartChar: exclam
Encoding: 33 33
Width: 600
HStem: -18 112<255.671 270> 156 454<250 287>
VStem: 240 47<157 190 574 609>
Fore
297 610 m 1
 287 156 l 1
 250 156 l 1
 240 610 l 1
 297 610 l 1
203 38 m 0
 203 69 232 94 268 94 c 0
 303 94 332 69 332 38 c 0
 332 7 303 -18 268 -18 c 0
 232 -18 203 7 203 38 c 0
EndSplineSet
MinimumDistance: x1,-1 
EndChar
StartChar: quotedbl
Encoding: 34 34
Width: 600
HStem: 409 182<168 203 331 366>
VStem: 167 37<410 590> 330 37<410 590>
Fore
204 591 m 1
 204 409 l 1
 167 409 l 1
 167 591 l 1
 204 591 l 1
367 591 m 1
 367 409 l 1
 330 409 l 1
 330 591 l 1
 367 591 l 1
EndSplineSet
MinimumDistance: x4,-1 
EndChar
StartChar: numbersign
Encoding: 35 35
Width: 600
HStem: 0 21G<95 132 244 281> 173 37<1 139 188 288 337 460> 403 37<92 199 248 348 397 553>
DStem: 140 173 177 173 95 0 132 0 200 403 237 403 150 210 187 210 255 616 293 616 209 440 247 440 289 173 326 173 244 0 281 0 349 403 386 403 299 210 336 210 404 616 442 616 358 440 396 440
Fore
237 403 m 1
 187 210 l 1
 299 210 l 1
 349 403 l 1
 237 403 l 1
293 616 m 1
 247 440 l 1
 358 440 l 1
 404 616 l 1
 442 616 l 1
 396 440 l 1
 554 440 l 1
 554 403 l 1
 386 403 l 1
 336 210 l 1
 461 210 l 1
 461 173 l 1
 326 173 l 1
 281 0 l 1
 244 0 l 1
 289 173 l 1
 177 173 l 1
 132 0 l 1
 95 0 l 1
 140 173 l 1
 0 173 l 1
 -0 210 l 1
 150 210 l 1
 200 403 l 1
 91 403 l 1
 91 440 l 1
 209 440 l 1
 255 616 l 1
 293 616 l 1
EndSplineSet
MinimumDistance: x8,-1 
EndChar
StartChar: dollar
Encoding: 36 36
Width: 600
HStem: -74 120<282 318> 0 154<147 158> 429 151<437 447> 522 132<283 318>
VStem: 125 37<409.174 430> 281 37<-73 10 558 653> 439 37<137.901 166>
Fore
471 580 m 1
 467 569 447 532 447 512 c 0
 447 474 462 440 472 429 c 1
 437 429 l 1
 419 471 365 522 304 522 c 0
 228 522 162 487 162 425 c 0
 162 258 476 344 476 152 c 0
 476 64 399 19 318 11 c 1
 318 -74 l 1
 281 -74 l 1
 281 10 l 1
 241 14 205 32 176 59 c 1
 172 39 165 15 158 0 c 1
 124 0 l 1
 124 0 133 28 138 42 c 0
 143 57 147 74 147 86 c 0
 147 102 132 142 124 154 c 1
 158 154 l 1
 158 154 170 129 171 125 c 1
 196 81 242 46 298 46 c 0
 373 46 439 85 439 152 c 0
 439 308 125 225 125 424 c 0
 125 510 205 550 281 558 c 1
 281 654 l 1
 318 654 l 1
 318 558 l 1
 353 555 388 539 416 515 c 1
 417 538 427 560 437 580 c 1
 471 580 l 1
EndSplineSet
MinimumDistance: x6,-1 
EndChar
StartChar: percent
Encoding: 37 37
Width: 600
HStem: 3 37<353 385> 170 37<353 369> 363 37<209 241> 529 37<209 241>
VStem: 85 37<463 467> 227 37<99 107> 329 37<463 467> 471 37<99 105>
DStem: 516 446 535 415 65 161 84 130
Fore
367 207 m 0
 438 207 508 167 508 105 c 0
 508 43 438 3 367 3 c 0
 297 3 227 43 227 105 c 0
 227 167 297 207 367 207 c 0
367 170 m 0
 318 170 264 135 264 105 c 0
 264 75 303 40 367 40 c 0
 431 40 471 75 471 105 c 1
 476 140 418 170 367 170 c 0
226 566 m 0
 296 566 366 526 366 465 c 0
 366 403 296 363 226 363 c 0
 155 363 85 403 85 464 c 0
 85 526 155 566 226 566 c 0
226 529 m 0
 161 529 122 494 122 465 c 0
 122 435 161 400 226 400 c 0
 290 400 329 435 329 464 c 0
 329 494 290 529 226 529 c 0
65 161 m 1
 516 446 l 1
 535 415 l 1
 84 130 l 1
 65 161 l 1
EndSplineSet
MinimumDistance: x18,-1 
EndChar
StartChar: ampersand
Encoding: 38 38
Width: 600
HStem: 6 37<197 226> 518 37<224 303>
VStem: 46 37<147 157> 119 37<435 451>
DStem: 386 126 409 155 528 -13 554 13
Fore
224 292 m 1
 168 264 83 216 83 150 c 0
 83 88 144 43 215 43 c 0
 277 43 295 76 341 130 c 0
 347 138 353 145 359 152 c 1
 315 196 273 240 224 292 c 1
538 334 m 1
 476 249 466 228 409 155 c 1
 453 112 500 68 554 13 c 1
 528 -13 l 1
 475 40 429 84 386 126 c 1
 381 120 375 113 369 106 c 0
 323 52 295 6 215 6 c 0
 134 6 46 60 46 150 c 0
 46 233 128 285 198 320 c 1
 189 330 l 2
 149 373 119 389 119 443 c 0
 119 523 178 555 240 555 c 2
 304 555 l 1
 304 518 l 1
 240 518 l 2
 189 518 156 493 156 443 c 0
 156 413 190 383 221 349 c 0
 284 281 329 234 383 181 c 1
 438 252 447 273 508 356 c 1
 538 334 l 1
EndSplineSet
MinimumDistance: x7,-1 
EndChar
StartChar: quotesingle
Encoding: 39 39
Width: 600
HStem: 409 182<250 285>
VStem: 249 37<410 590>
Fore
286 591 m 1
 286 409 l 1
 249 409 l 1
 249 591 l 1
 286 591 l 1
EndSplineSet
MinimumDistance: x0,-1 
EndChar
StartChar: parenleft
Encoding: 40 40
Width: 600
VStem: 250 37<214 262>
Fore
444 615 m 1
 444 615 427 594 413 576 c 0
 337 480 287 357 287 232 c 0
 287 107 358 -62 453 -154 c 1
 405 -154 l 1
 405 -154 403 -153 387 -135 c 0
 302 -33 250 98 250 232 c 0
 250 366 309 523 399 615 c 1
 444 615 l 1
EndSplineSet
MinimumDistance: x2,-1 
EndChar
StartChar: parenright
Encoding: 41 41
Width: 600
VStem: 237 37<214 262>
Fore
81 615 m 1
 126 615 l 1
 216 523 274 366 274 232 c 0
 274 98 222 -33 137 -135 c 0
 122 -153 120 -154 120 -154 c 1
 72 -154 l 1
 167 -62 237 107 237 232 c 0
 237 357 188 480 111 576 c 0
 97 594 81 615 81 615 c 1
EndSplineSet
MinimumDistance: x2,-1 
EndChar
StartChar: asterisk
Encoding: 42 42
Width: 600
HStem: 543 20G<247 284>
VStem: 247 37<357 562>
DStem: 41 383 53 418 236 321 247 356 236 321 266 299 115 154 145 133 266 299 296 321 386 133 416 154 480 418 492 383 284 356 296 321
Fore
115 154 m 1
 236 321 l 1
 41 383 l 1
 53 418 l 1
 247 356 l 1
 247 563 l 1
 284 563 l 1
 284 356 l 1
 480 418 l 1
 492 383 l 1
 296 321 l 1
 416 154 l 1
 386 133 l 1
 266 299 l 1
 145 133 l 1
 115 154 l 1
EndSplineSet
MinimumDistance: x9,-1 
EndChar
StartChar: plus
Encoding: 43 43
Width: 600
HStem: 252 37<78 248 285 460>
VStem: 248 37<79 252 289 460>
Fore
285 461 m 1
 285 289 l 1
 461 289 l 1
 461 252 l 1
 285 252 l 1
 285 78 l 1
 248 78 l 1
 248 252 l 1
 77 252 l 1
 77 289 l 1
 248 289 l 1
 248 461 l 1
 285 461 l 1
EndSplineSet
MinimumDistance: x2,-1 y4,6 y4,5 y1,11 y1,0 x7,9 x7,8 x1,3 x1,2 
EndChar
StartChar: comma
Encoding: 44 44
Width: 600
Fore
228 112 m 1
 108 -134 l 1
 62 -134 l 1
 144 112 l 1
 228 112 l 1
EndSplineSet
EndChar
StartChar: hyphen
Encoding: 45 45
Width: 600
HStem: 253 37<78 461>
VStem: 77 385<254 289>
Fore
77 290 m 1
 462 290 l 1
 462 253 l 1
 77 253 l 1
 77 290 l 1
EndSplineSet
MinimumDistance: x1,-1 
EndChar
StartChar: period
Encoding: 46 46
Width: 600
HStem: -16 124<183 199>
VStem: 119 142<35.6483 48>
Fore
119 46 m 0
 119 80 151 108 190 108 c 0
 229 108 261 80 261 46 c 0
 261 12 229 -16 190 -16 c 0
 151 -16 119 12 119 46 c 0
EndSplineSet
MinimumDistance: x2,-1 
EndChar
StartChar: slash
Encoding: 47 47
Width: 600
HStem: 612 20G<450 490>
DStem: 450 632 490 632 82 -84 123 -84
Fore
82 -84 m 1
 450 632 l 1
 490 632 l 1
 123 -84 l 1
 82 -84 l 1
EndSplineSet
MinimumDistance: x2,-1 
EndChar
StartChar: zero
Encoding: 48 48
Width: 600
HStem: -1 37<292 308> 527 37<292 308>
VStem: 132 37<239 319> 431 37<255 319>
Fore
300 564 m 0
 440 564 468 423 468 282 c 0
 468 140 440 -1 300 -1 c 0
 160 -1 132 140 132 281 c 0
 132 423 160 564 300 564 c 0
300 527 m 16
 200 527 169 432 169 282 c 0
 169 132 200 36 300 36 c 0
 400 36 431 170 431 281 c 24
 431 392 411 527 300 527 c 16
EndSplineSet
MinimumDistance: x1,-1 
EndChar
StartChar: one
Encoding: 49 49
Width: 600
HStem: 0 31<128 285 319 477> 542 20G<296 319>
VStem: 286 33<31 517>
DStem: 296 562 286 518 122 438 142 414
Fore
127 31 m 1
 286 31 l 1
 286 518 l 1
 142 414 l 1
 122 438 l 1
 296 562 l 1
 319 562 l 1
 319 31 l 1
 478 31 l 1
 478 0 l 1
 319 0 l 1
 286 0 l 1
 127 0 l 1
 127 31 l 1
EndSplineSet
MinimumDistance: x8,-1 x5,7 y7,5 y7,6 x7,9 x7,8 x1,12 x1,0 
EndChar
StartChar: two
Encoding: 50 50
Width: 600
HStem: 0 34<178 439> 0 123<440 472> 526 36<303 319>
VStem: 127 37<362.125 385.625> 140 37<35 82> 439 34<35 122>
Fore
127 362 m 1
 127 409 l 1
 148 485 188 562 311 562 c 0
 390 562 473 520 473 429 c 0
 473 320 387 277 309 227 c 0
 251 189 177 162 177 80 c 2
 177 34 l 1
 439 34 l 1
 439 123 l 1
 473 123 l 1
 473 0 l 1
 140 0 l 1
 140 80 l 2
 140 214 310 251 394 332 c 0
 420 358 436 386 436 429 c 0
 436 487 381 526 306 526 c 0
 200 526 164 446 164 362 c 1
 127 362 l 1
EndSplineSet
MinimumDistance: x3,-1 y7,9 y7,8 
EndChar
StartChar: three
Encoding: 51 51
Width: 600
HStem: 0 37<276 308> 295 37<287 356> 526 37<285 308>
VStem: 446 37<160 176 416 432>
Fore
412 311 m 1
 463 278 483 219 483 166 c 0
 483 66 389 0 290 0 c 0
 201 0 162 51 120 96 c 1
 147 122 l 1
 188 77 218 37 290 37 c 0
 370 37 446 88 446 166 c 0
 446 235 402 295 352 295 c 2
 286 295 l 1
 286 332 l 1
 352 332 l 2
 406 332 447 373 447 419 c 0
 447 486 389 526 299 526 c 0
 226 526 176 478 146 437 c 1
 116 458 l 1
 150 507 211 563 299 563 c 0
 405 563 484 510 484 419 c 0
 484 375 458 333 412 311 c 1
EndSplineSet
MinimumDistance: x1,-1 
EndChar
StartChar: four
Encoding: 52 52
Width: 600
HStem: 0 34<298 386 425 512> 158 37<142 386 424 504> 542 20G<396 424>
VStem: 387 37<34 157 196 491>
Fore
387 492 m 1
 141 195 l 1
 387 195 l 1
 387 492 l 1
424 195 m 1
 505 195 l 1
 505 158 l 1
 424 158 l 1
 424 34 l 1
 513 34 l 1
 513 0 l 1
 297 0 l 1
 297 34 l 1
 387 34 l 1
 387 158 l 1
 87 158 l 1
 87 187 l 2
 87 188 396 562 396 562 c 1
 424 562 l 1
 424 195 l 1
EndSplineSet
MinimumDistance: x8,-1 x16,3 y3,16 y3,17 y15,13 x13,15 x13,14 x12,10 x12,11 x7,9 x7,8 x3,5 x3,4 
EndChar
StartChar: five
Encoding: 53 53
Width: 600
HStem: -1 37<279 311> 309 37<211 343> 525 37<211 512>
VStem: 173 37<346 525> 476 37<175 191>
Fore
109 105 m 1
 158 68 213 36 300 36 c 0
 395 36 476 91 476 179 c 0
 476 262 421 309 326 309 c 2
 173 309 l 1
 173 562 l 1
 513 562 l 1
 513 525 l 1
 210 525 l 1
 210 346 l 1
 326 346 l 2
 435 346 513 288 513 179 c 0
 513 60 404 -1 300 -1 c 0
 201 -1 138 37 87 75 c 1
 109 105 l 1
EndSplineSet
MinimumDistance: x6,-1 x8,6 x8,7 
EndChar
StartChar: six
Encoding: 54 54
Width: 600
HStem: -2 37<294 310> 299 37<294 310> 525 37<326 466>
VStem: 134 37<167 190 277 382> 429 37<158 183>
Fore
171 181 m 0
 171 92 218 35 299 35 c 0
 382 35 429 94 429 168 c 0
 429 240 373 299 303 299 c 0
 239 299 171 246 171 181 c 0
171 276 m 1
 205 311 256 336 303 336 c 0
 395 336 466 259 466 168 c 0
 466 76 405 -2 299 -2 c 0
 192 -2 134 76 134 181 c 0
 134 254 134 301 134 378 c 0
 134 481 227 562 331 562 c 2
 467 562 l 1
 467 525 l 1
 331 525 l 2
 245 525 171 459 171 378 c 0
 171 339 172 307 171 276 c 1
EndSplineSet
MinimumDistance: x6,-1 x14,11 x14,12 
EndChar
StartChar: seven
Encoding: 55 55
Width: 600
HStem: 0 21G<267 305> 432 21G<125 159> 525 37<160 431>
VStem: 125 34<433 524>
DStem: 432 525 475 539 267 0 305 0
Fore
267 0 m 1
 432 525 l 1
 159 525 l 1
 159 432 l 1
 125 432 l 1
 125 562 l 1
 475 562 l 1
 475 543 475 540 475 539 c 2
 305 0 l 1
 267 0 l 1
EndSplineSet
MinimumDistance: x6,-1 y2,4 y2,3 
EndChar
StartChar: eight
Encoding: 56 56
Width: 600
HStem: 0 36<291 307> 310 37<259 339> 527 36<291 307>
VStem: 131 37<160 192> 139 37<432 448> 432 37<160 192>
Fore
432 178 m 0
 432 262 379 310 329 310 c 2
 271 310 l 2
 220 310 168 269 168 178 c 0
 168 96 185 36 300 36 c 0
 402 36 432 97 432 178 c 0
271 347 m 2
 329 347 l 2
 380 347 424 388 424 437 c 0
 424 494 368 527 300 527 c 0
 232 527 176 494 176 436 c 0
 176 387 221 347 271 347 c 2
469 178 m 0
 469 86 429 0 300 0 c 0
 157 0 131 87 131 178 c 0
 131 251 161 303 204 329 c 1
 167 350 139 390 139 436 c 0
 139 524 227 563 300 563 c 0
 373 563 461 525 461 437 c 0
 461 390 433 349 394 328 c 1
 438 301 469 246 469 178 c 0
EndSplineSet
MinimumDistance: x10,-1 
EndChar
StartChar: nine
Encoding: 57 57
Width: 600
HStem: 0 37<80 223> 230 37<226.279 255> 531 37<239 255>
VStem: 80 36<384 416> 373 37<176 289 371.143 400>
Fore
373 385 m 0
 373 474 327 531 246 531 c 0
 163 531 116 472 116 398 c 0
 116 326 173 267 242 267 c 0
 306 267 373 319 373 385 c 0
373 290 m 1
 340 255 289 230 242 230 c 0
 151 230 80 307 80 398 c 0
 80 490 140 568 246 568 c 0
 353 568 410 490 410 385 c 0
 410 312 410 264 410 187 c 0
 410 84 318 0 215 0 c 2
 79 0 l 1
 79 37 l 1
 215 37 l 2
 300 37 373 106 373 187 c 0
 373 227 373 258 373 290 c 1
EndSplineSet
MinimumDistance: x8,-1 x14,11 x14,12 
EndChar
StartChar: colon
Encoding: 58 58
Width: 600
HStem: -16 124<258 274> 289 124<258 274>
VStem: 194 142<35.6483 48 340.648 353>
Fore
194 351 m 0
 194 386 226 413 265 413 c 0
 304 413 336 386 336 351 c 0
 336 317 304 289 265 289 c 0
 226 289 194 317 194 351 c 0
194 46 m 0
 194 80 226 108 265 108 c 0
 305 108 336 80 336 46 c 0
 336 12 305 -16 265 -16 c 0
 226 -16 194 12 194 46 c 0
EndSplineSet
MinimumDistance: x2,-1 
EndChar
StartChar: semicolon
Encoding: 59 59
Width: 600
HStem: 289 124<252.339 267>
VStem: 194 142<346 353>
Fore
194 351 m 0
 194 386 226 413 265 413 c 0
 304 413 336 386 336 351 c 0
 336 317 304 289 265 289 c 0
 226 289 194 317 194 351 c 0
318 112 m 1
 198 -134 l 1
 152 -134 l 1
 234 112 l 1
 318 112 l 1
EndSplineSet
MinimumDistance: x2,-1 
EndChar
StartChar: less
Encoding: 60 60
Width: 600
DStem: 61 252 147 252 545 15 545 53 545 481 545 440 61 252 147 252
Fore
545 440 m 1
 147 252 l 1
 545 53 l 1
 545 15 l 1
 61 252 l 1
 545 481 l 1
 545 440 l 1
EndSplineSet
MinimumDistance: x0,-1 
EndChar
StartChar: equal
Encoding: 61 61
Width: 600
HStem: 211 37<119 428> 331 37<119 428>
VStem: 118 311<212 247 332 367>
Fore
118 368 m 1
 429 368 l 1
 429 331 l 1
 118 331 l 1
 118 368 l 1
118 248 m 1
 429 248 l 1
 429 211 l 1
 118 211 l 1
 118 248 l 1
EndSplineSet
MinimumDistance: x1,-1 
EndChar
StartChar: greater
Encoding: 62 62
Width: 600
DStem: 52 440 52 481 450 252 536 252 450 252 536 252 52 53 52 15
Fore
52 440 m 1
 52 481 l 1
 536 252 l 1
 52 15 l 1
 52 53 l 1
 450 252 l 1
 52 440 l 1
EndSplineSet
MinimumDistance: x2,-1 
EndChar
StartChar: question
Encoding: 63 63
Width: 600
HStem: -16 124<236 256> 431 21G<64 101> 529 35<224 256>
VStem: 64 37<432 451> 227 37<148 208> 381 37<416.72 433>
Fore
227 147 m 5
 227 205 l 6
 227 302 381 326 381 431 c 4
 381 498 308 529 236 529 c 4
 168 529 101 501 101 449 c 6
 101 431 l 5
 64 431 l 5
 64 449 l 6
 64 526 149 564 235 564 c 4
 325 564 418 523 418 431 c 4
 418 312 264 278 264 205 c 6
 264 147 l 5
 227 147 l 5
177 46 m 4
 177 80 209 108 248 108 c 4
 287 108 319 80 319 46 c 4
 319 12 287 -16 248 -16 c 4
 209 -16 177 12 177 46 c 4
EndSplineSet
MinimumDistance: x9,-1 
EndChar
StartChar: at
Encoding: 64 64
Width: 600
HStem: 0 37<254 381> 138 37<346 421> 379 37<346 409> 526 37<255 298>
VStem: 90 37<240 320> 255 37<272 288> 422 37<176 320>
Fore
410 416 m 1
 393 498 355 526 275 526 c 0
 158 526 127 440 127 278 c 0
 127 116 158 37 274 37 c 2
 382 37 l 1
 382 0 l 1
 275 0 l 2
 118 0 90 124 90 278 c 0
 90 432 119 563 275 563 c 0
 433 563 459 432 459 278 c 2
 459 174 l 2
 459 145 446 138 422 138 c 2
 353 138 l 2
 279 138 255 226 255 282 c 0
 255 338 280 416 353 416 c 1
 410 416 l 1
422 175 m 1
 422 278 l 2
 422 315 420 348 416 379 c 1
 353 379 l 2
 316 379 292 338 292 282 c 0
 292 223 317 175 353 175 c 2
 422 175 l 1
EndSplineSet
MinimumDistance: x9,-1 
EndChar
StartChar: A
Encoding: 65 65
Width: 600
HStem: 0 34<30 108 148 241 362 456 496 570> 246 37<227 377> 528 34<123 265>
VStem: 29 213<1 34> 361 210<1 34>
DStem: 266 528 302 521 108 34 226 283 266 528 216 246 108 34 147 34 302 521 329 562 378 283 496 34 388 246 329 562 457 34 496 34
Fore
226 283 m 1
 378 283 l 1
 302 521 l 1
 226 283 l 1
361 34 m 1
 457 34 l 1
 388 246 l 1
 216 246 l 1
 147 34 l 1
 242 34 l 1
 242 0 l 1
 29 0 l 1
 29 34 l 1
 108 34 l 1
 266 528 l 1
 122 528 l 1
 122 562 l 1
 329 562 l 1
 496 34 l 1
 571 34 l 1
 571 0 l 1
 361 0 l 1
 361 34 l 1
EndSplineSet
MinimumDistance: x18,-1 
Back
226 283 m 5
 378 282 l 5
 302 521 l 5
 226 283 l 5
361 34 m 5
 457 34 l 5
 388 246 l 5
 216 246 l 5
 147 34 l 5
 242 34 l 5
 242 0 l 5
 29 0 l 5
 29 34 l 5
 108 34 l 5
 266 528 l 5
 122 528 l 5
 122 562 l 5
 329 562 l 5
 496 34 l 5
 571 34 l 5
 571 0 l 5
 361 0 l 5
 361 34 l 5
EndSplineSet
EndChar
StartChar: B
Encoding: 66 66
Width: 600
HStem: 0 34<82 169 208 386> 327 34<208 386> 528 34<82 169 208 386>
VStem: 170 37<35 326 362 527> 479 34<432 448> 484 34<176 192>
Fore
207 361 m 1
 383 361 l 2
 437 361 479 397 479 444 c 0
 479 492 436 528 384 528 c 2
 207 528 l 1
 207 361 l 1
207 34 m 1
 383 34 l 2
 431 34 484 82 484 184 c 0
 484 269 425 327 384 327 c 2
 207 327 l 1
 207 34 l 1
444 340 m 1
 486 309 518 250 518 184 c 0
 518 72 458 0 384 0 c 2
 81 0 l 1
 81 34 l 1
 170 34 l 1
 170 528 l 1
 81 528 l 1
 81 562 l 1
 383 562 l 2
 447 562 513 517 513 444 c 0
 513 394 485 358 444 340 c 1
EndSplineSet
MinimumDistance: x11,-1 x16,18 x16,17 x15,13 x15,14 
EndChar
StartChar: C
Encoding: 67 67
Width: 600
HStem: -2 37<311 327> 426 21G<478 513> 527 37<311 327> 542 20G<473 507>
VStem: 87 37<270 302>
Fore
325 564 m 0
 385 564 429 543 450 520 c 1
 458 514 461 511 461 520 c 0
 463 537 469 554 473 562 c 1
 507 562 l 1
 503 551 494 513 494 492 c 0
 494 471 505 446 513 426 c 1
 478 426 l 1
 460 489 388 527 325 527 c 0
 217 527 124 420 124 281 c 0
 124 142 217 35 325 35 c 0
 372 35 432 59 465 100 c 1
 496 79 l 1
 458 31 386 -2 325 -2 c 0
 190 -2 87 128 87 281 c 0
 87 434 190 564 325 564 c 0
EndSplineSet
MinimumDistance: x9,-1 
EndChar
StartChar: D
Encoding: 68 68
Width: 600
HStem: 0 34<53 147 186 356> 528 34<53 147 186 356>
VStem: 148 37<35 527> 513 35<272 288>
Fore
185 34 m 1
 347 34 l 2
 434 34 513 165 513 284 c 0
 513 361 460 528 347 528 c 2
 185 528 l 1
 185 34 l 1
52 34 m 1
 148 34 l 1
 148 528 l 1
 52 528 l 1
 52 562 l 1
 347 562 l 2
 490 562 548 379 548 286 c 0
 548 193 496 0 347 0 c 2
 52 0 l 1
 52 34 l 1
EndSplineSet
MinimumDistance: x11,-1 x7,9 x7,8 x6,13 x6,5 
EndChar
StartChar: E
Encoding: 69 69
Width: 600
HStem: 0 34<75 170 208 480> 0 121<492 514> 321 34<208 401> 528 34<75 170 208 480>
VStem: 171 36<35 320 356 527> 401 34<260 320 356 401>
DStem: 480 528 514 562 489 447 523 447 492 121 526 121 480 34 514 0
Fore
435 402 m 1
 435 259 l 1
 401 259 l 1
 401 321 l 1
 207 321 l 1
 207 34 l 1
 480 34 l 1
 492 121 l 1
 526 121 l 1
 514 0 l 1
 74 0 l 1
 74 34 l 1
 171 34 l 1
 171 528 l 1
 74 528 l 1
 74 562 l 1
 514 562 l 1
 523 447 l 1
 489 447 l 1
 480 528 l 1
 207 528 l 1
 207 355 l 1
 401 355 l 1
 401 402 l 1
 435 402 l 1
EndSplineSet
MinimumDistance: x8,-1 y22,0 y22,23 y3,1 y3,2 x13,15 x13,14 x12,10 x12,11 
EndChar
StartChar: F
Encoding: 70 70
Width: 600
HStem: 0 34<74 169 208 375> 321 34<208 327> 528 34<74 169 208 480>
VStem: 170 37<34 320 356 527> 328 34<260 320 356 401>
DStem: 480 528 513 562 493 403 527 403
Fore
207 528 m 1
 207 355 l 1
 327 355 l 1
 327 402 l 1
 362 402 l 1
 362 259 l 1
 328 259 l 1
 328 321 l 1
 207 321 l 1
 207 34 l 1
 376 34 l 1
 376 0 l 1
 73 0 l 1
 73 34 l 1
 170 34 l 1
 170 528 l 1
 73 528 l 1
 73 562 l 1
 513 562 l 1
 527 403 l 1
 493 403 l 1
 480 528 l 1
 207 528 l 1
EndSplineSet
MinimumDistance: x19,-1 y7,5 y7,6 x4,2 y2,4 y2,3 x15,17 x15,16 x14,12 x14,13 x9,11 x9,10 
EndChar
StartChar: G
Encoding: 71 71
Width: 600
HStem: -2 37<288.895 320> 248 34<376 484> 426 21G<475 510> 527 37<304 336> 542 20G<470 504>
VStem: 80 37<270 302> 375 145<248 281>
Fore
318 564 m 0
 379 564 426 543 446 520 c 1
 454 514 457 511 458 520 c 0
 460 537 465 554 470 562 c 1
 504 562 l 1
 500 551 491 513 491 492 c 0
 491 471 502 446 510 426 c 1
 475 426 l 1
 456 489 381 527 318 527 c 0
 210 527 117 420 117 281 c 0
 117 142 199 35 307 35 c 0
 413 35 480 129 485 248 c 1
 375 248 l 1
 375 282 l 1
 520 282 l 1
 520 248 l 1
 515 109 438 -2 307 -2 c 0
 172 -2 80 128 80 281 c 0
 80 434 184 564 318 564 c 0
EndSplineSet
MinimumDistance: x14,-1 
EndChar
StartChar: H
Encoding: 72 72
Width: 600
HStem: 0 34<32 126 165 260 339 436 475 567> 330 37<165 436> 528 34<32 126 165 260 340 436 475 568>
VStem: 127 37<34 329 368 528> 437 37<34 329 368 528>
Fore
164 367 m 1
 437 367 l 1
 437 528 l 1
 339 528 l 1
 339 562 l 1
 569 562 l 1
 569 528 l 1
 474 528 l 1
 474 34 l 1
 568 34 l 1
 568 0 l 1
 338 0 l 1
 338 34 l 1
 437 34 l 1
 437 330 l 1
 164 330 l 1
 164 34 l 1
 261 34 l 1
 261 0 l 1
 31 0 l 1
 31 34 l 1
 127 34 l 1
 127 528 l 1
 31 528 l 1
 31 562 l 1
 261 562 l 1
 261 528 l 1
 164 528 l 1
 164 367 l 1
EndSplineSet
MinimumDistance: x5,-1 x13,11 x13,12 x8,10 x8,9 x7,5 x7,6 x2,4 x2,3 x27,25 x27,26 x22,24 x22,23 x21,19 x21,20 x16,18 x16,17 
EndChar
StartChar: I
Encoding: 73 73
Width: 600
HStem: 0 34<90 284 322 509> 528 34<91 284 322 510>
VStem: 285 36<34 528>
Fore
285 528 m 1
 90 528 l 1
 90 562 l 1
 511 562 l 1
 511 528 l 1
 321 528 l 1
 321 34 l 1
 510 34 l 1
 510 0 l 1
 89 0 l 1
 89 34 l 1
 285 34 l 1
 285 528 l 1
EndSplineSet
MinimumDistance: x3,-1 x11,9 x11,10 x6,8 x6,7 x5,3 x5,4 x0,2 x0,1 
EndChar
StartChar: J
Encoding: 74 74
Width: 600
HStem: -1 37<244 260> 528 34<178 349 387 483>
VStem: 116 37<159 226> 350 37<127.67 528>
Fore
153 227 m 1
 153 155 142 36 252 36 c 0
 326 36 350 101 350 143 c 2
 350 528 l 1
 177 528 l 1
 177 562 l 1
 484 562 l 1
 484 528 l 1
 387 528 l 1
 387 143 l 2
 387 93 357 -1 252 -1 c 0
 155 -1 116 87 116 143 c 2
 116 227 l 1
 153 227 l 1
EndSplineSet
MinimumDistance: x6,-1 x11,8 y8,11 y8,9 x8,6 x8,7 x3,5 x3,4 
EndChar
StartChar: K
Encoding: 75 75
Width: 600
HStem: 0 34<33 113 151 240 450 567> 528 34<33 113 151 240 315 355 402 522>
VStem: 114 36<34 243 292 528> 314 209<528 561>
Fore
314 562 m 1
 523 562 l 1
 523 528 l 1
 402 528 l 1
 342 438 265 348 203 289 c 1
 310 259 371 177 450 34 c 1
 568 34 l 1
 568 0 l 1
 429 0 l 1
 341 159 281 238 170 259 c 1
 163 253 157 248 150 243 c 1
 150 34 l 1
 241 34 l 1
 241 0 l 1
 32 0 l 1
 32 34 l 1
 114 34 l 1
 114 528 l 1
 32 528 l 1
 32 562 l 1
 241 562 l 1
 241 528 l 1
 150 528 l 1
 150 291 l 1
 211 344 290 432 356 528 c 1
 314 528 l 1
 314 562 l 1
EndSplineSet
MinimumDistance: x1,-1 x22,20 x22,21 x17,19 x17,18 x16,14 x16,15 x11,13 x11,12 
EndChar
StartChar: L
Encoding: 76 76
Width: 600
HStem: 0 34<99 182 221 467> 0 223<488 502> 528 34<100 182 221 306>
VStem: 183 37<35 528>
DStem: 488 223 522 223 467 34 502 0
Fore
183 528 m 1
 99 528 l 1
 99 562 l 1
 307 562 l 1
 307 528 l 1
 220 528 l 1
 220 34 l 1
 467 34 l 1
 488 223 l 1
 522 223 l 1
 502 0 l 1
 98 0 l 1
 98 34 l 1
 183 34 l 1
 183 528 l 1
EndSplineSet
MinimumDistance: x9,-1 x13,11 x13,12 x5,3 x5,4 x0,2 x0,1 
EndChar
StartChar: M
Encoding: 77 77
Width: 600
HStem: 0 34<9 54 92 194 401 504 543 587> 528 34<9 54 92 99 500 504 543 591>
VStem: 55 36<34 527> 505 37<34 527>
DStem: 99 528 128 551 291 121 300 187 471 554 500 528 300 187 312 121
Fore
542 528 m 1
 542 34 l 1
 588 34 l 1
 588 0 l 1
 400 0 l 1
 400 34 l 1
 505 34 l 1
 505 528 l 1
 500 528 l 1
 312 121 l 1
 291 121 l 1
 99 528 l 1
 91 528 l 1
 91 34 l 1
 195 34 l 1
 195 0 l 1
 8 0 l 1
 8 34 l 1
 55 34 l 1
 55 528 l 1
 8 528 l 1
 8 562 l 1
 128 562 l 1
 128 551 l 1
 300 187 l 1
 471 554 l 1
 471 562 l 1
 592 562 l 1
 592 528 l 1
 542 528 l 1
EndSplineSet
MinimumDistance: x27,-1 x6,4 x6,5 x1,3 x1,2 x0,27 x0,28 x19,21 x19,20 x18,16 x18,17 x13,15 x13,14 
EndChar
StartChar: N
Encoding: 78 78
Width: 600
HStem: -7 21G<508 545> 0 34<10 55 93 195> 528 34<10 55 93 94 404 507 546 590>
VStem: 56 36<34 527> 508 37<55 528>
Fore
508 54 m 1
 508 528 l 1
 403 528 l 1
 403 562 l 1
 591 562 l 1
 591 528 l 1
 545 528 l 1
 545 -7 l 1
 508 -7 l 1
 94 528 l 1
 92 528 l 1
 92 34 l 1
 196 34 l 1
 196 0 l 1
 9 0 l 1
 9 34 l 1
 56 34 l 1
 56 528 l 1
 9 528 l 1
 9 562 l 1
 116 562 l 1
 116 561 508 54 508 54 c 1
EndSplineSet
MinimumDistance: x4,-1 y6,8 y6,7 x6,4 x6,5 x1,3 x1,2 x17,19 x17,18 x16,14 x16,15 x11,13 x11,12 
EndChar
StartChar: O
Encoding: 79 79
Width: 600
HStem: -2 37<286 318> 527 37<286 318>
VStem: 62 37<270 302> 501 37<270 302>
Fore
300 564 m 0
 434 564 538 434 538 281 c 0
 538 128 434 -2 300 -2 c 0
 166 -2 62 128 62 281 c 0
 62 434 166 564 300 564 c 0
300 527 m 24
 192 527 99 420 99 281 c 0
 99 142 192 35 300 35 c 0
 408 35 501 142 501 281 c 24
 501 420 408 527 300 527 c 24
EndSplineSet
MinimumDistance: x1,-1 
EndChar
StartChar: P
Encoding: 80 80
Width: 600
HStem: 0 34<54 148 187 321> 211 34<187 389> 528 34<54 148 187 389>
VStem: 149 37<34 211 246 527> 523 34<369.102 400>
Fore
186 245 m 1
 386 245 l 2
 434 245 523 293 523 386 c 0
 523 485 441 528 386 528 c 2
 186 528 l 1
 186 245 l 1
53 34 m 1
 149 34 l 1
 149 528 l 1
 53 528 l 1
 53 562 l 1
 386 562 l 2
 454 562 557 509 557 386 c 0
 557 269 447 211 386 211 c 2
 186 211 l 1
 186 34 l 1
 322 34 l 1
 322 0 l 1
 53 0 l 1
 53 34 l 1
EndSplineSet
MinimumDistance: x11,-1 x14,16 x14,15 y10,13 x13,10 x13,12 x7,9 x7,8 x6,17 x6,5 
EndChar
StartChar: Q
Encoding: 81 81
Width: 600
HStem: -128 34<342 350> -67 34<222 238> -2 37<286 318> 527 37<286 318>
VStem: 62 37<272 304> 501 37<272 304>
DStem: 200 24 232 10 91 -111 195 -36
Fore
300 527 m 0
 192 527 99 420 99 281 c 0
 99 142 192 35 300 35 c 0
 408 35 501 142 501 281 c 0
 501 420 408 527 300 527 c 0
232 10 m 1
 195 -36 l 1
 206 -34 218 -33 232 -33 c 0
 282 -33 310 -94 343 -94 c 0
 374 -94 394 -71 415 -54 c 1
 437 -80 l 1
 408 -103 391 -128 344 -128 c 0
 293 -128 265 -67 233 -67 c 0
 184 -67 143 -93 104 -120 c 1
 91 -111 l 1
 200 24 l 1
 117 70 62 169 62 281 c 0
 62 434 166 564 300 564 c 0
 434 564 538 434 538 281 c 0
 538 128 434 -2 300 -2 c 0
 276 -2 253 3 232 10 c 1
EndSplineSet
MinimumDistance: x17,-1 
EndChar
StartChar: R
Encoding: 82 82
Width: 600
HStem: 0 34<10 105 143 271 460 529> 247 34<143 279 333 361> 528 34<10 105 143 377>
VStem: 106 36<34 246 282 527> 496 34<400 416>
Fore
143 281 m 1
 359 281 l 2
 407 281 496 311 496 404 c 0
 496 503 414 528 359 528 c 2
 143 528 l 1
 143 281 l 1
332 247 m 1
 401 184 425 126 460 34 c 1
 530 34 l 1
 530 0 l 1
 436 0 l 1
 396 106 375 172 279 247 c 1
 142 247 l 1
 142 34 l 1
 272 34 l 1
 272 0 l 1
 9 0 l 1
 9 34 l 1
 106 34 l 1
 106 528 l 1
 9 528 l 1
 9 562 l 1
 359 562 l 2
 426 562 530 527 530 404 c 0
 530 287 419 247 359 247 c 2
 332 247 l 1
EndSplineSet
MinimumDistance: x7,-1 x18,20 x18,19 x17,15 x17,16 x12,14 x12,13 
EndChar
StartChar: S
Encoding: 83 83
Width: 600
HStem: 0 154<147 158> 9 37<284 316> 533 37<284 316>
VStem: 125 37<416.409 442> 439 37<153 161>
Fore
460 570 m 1
 456 559 448 534 448 513 c 0
 448 475 462 449 472 438 c 1
 463 441 444 434 437 440 c 1
 419 482 365 533 304 533 c 0
 228 533 162 494 162 432 c 0
 162 265 476 351 476 159 c 0
 476 63 385 9 298 9 c 0
 255 9 215 26 184 52 c 0
 178 58 175 54 173 45 c 0
 169 29 163 12 158 0 c 1
 124 0 l 1
 124 0 133 28 138 42 c 0
 143 57 147 74 147 86 c 0
 147 102 132 142 124 154 c 1
 158 154 l 1
 158 154 170 129 171 125 c 1
 196 81 242 46 298 46 c 0
 373 46 439 92 439 159 c 0
 439 315 125 233 125 432 c 0
 125 526 222 570 304 570 c 0
 339 570 375 556 405 534 c 0
 413 528 416 526 417 535 c 0
 419 552 418 554 426 570 c 1
 460 570 l 1
EndSplineSet
MinimumDistance: x6,-1 
EndChar
StartChar: T
Encoding: 84 84
Width: 600
HStem: 0 34<135 281 319 466> 528 34<89 281 319 512>
VStem: 282 36<34 527>
DStem: 54 562 89 528 44 358 79 358 512 528 545 562 522 358 556 358
Fore
522 358 m 1
 512 528 l 1
 318 528 l 1
 318 34 l 1
 467 34 l 1
 467 0 l 1
 134 0 l 1
 134 34 l 1
 282 34 l 1
 282 528 l 1
 89 528 l 1
 79 358 l 1
 44 358 l 1
 54 562 l 1
 545 562 l 1
 556 358 l 1
 522 358 l 1
EndSplineSet
MinimumDistance: x15,-1 x8,6 x8,7 x3,5 x3,4 
EndChar
StartChar: U
Encoding: 85 85
Width: 600
HStem: -7 34<284 316> 528 34<29 99 133 231 369 466 501 571>
VStem: 99 33<169 528> 467 34<169 528>
Fore
572 528 m 1
 501 528 l 1
 501 179 l 2
 501 106 423 -7 300 -7 c 0
 182 -7 99 108 99 179 c 2
 99 528 l 1
 28 528 l 1
 28 562 l 1
 232 562 l 1
 232 528 l 1
 132 528 l 1
 132 179 l 2
 132 131 207 27 299 27 c 0
 398 27 467 124 467 179 c 2
 467 528 l 1
 368 528 l 1
 368 562 l 1
 572 562 l 1
 572 528 l 1
EndSplineSet
MinimumDistance: x0,-1 x2,5 x4,1 y1,4 y1,2 x14,16 x14,15 x1,17 x1,0 x10,8 x10,9 x5,7 x5,6 
EndChar
StartChar: V
Encoding: 86 86
Width: 600
HStem: -16 21G<284 317> 528 34<14 63 104 208 392 496 537 586>
VStem: 13 196<528 561> 391 196<528 561>
DStem: 63 528 103 528 284 -16 300 39 497 528 537 528 300 39 317 -16
Fore
587 528 m 1
 537 528 l 1
 317 -16 l 1
 284 -16 l 1
 63 528 l 1
 13 528 l 1
 13 562 l 1
 209 562 l 1
 209 528 l 1
 103 528 l 1
 300 39 l 1
 497 528 l 1
 391 528 l 1
 391 562 l 1
 587 562 l 1
 587 528 l 1
EndSplineSet
MinimumDistance: x0,-1 
EndChar
StartChar: W
Encoding: 87 87
Width: 600
HStem: -15 21G<166 188 412 434> 528 34<1 24 63 197 403 537 576 599>
VStem: 0 198<528 561> 402 198<528 561>
DStem: 24 528 62 528 166 -15 178 84 287 457 300 370 178 84 188 -15 300 370 313 457 412 -15 422 84 538 528 576 528 422 84 434 -15
Fore
402 562 m 1
 600 562 l 1
 600 528 l 1
 576 528 l 1
 434 -15 l 1
 412 -15 l 1
 300 370 l 1
 188 -15 l 1
 166 -15 l 1
 24 528 l 1
 -0 528 l 1
 -0 562 l 1
 198 562 l 1
 198 528 l 1
 62 528 l 1
 178 84 l 1
 287 457 l 1
 313 457 l 1
 422 84 l 1
 538 528 l 1
 402 528 l 1
 402 562 l 1
EndSplineSet
EndChar
StartChar: X
Encoding: 88 88
Width: 600
HStem: 0 34<52 94 140 193 407 460 506 548> 528 34<59 94 140 200 400 460 506 541>
VStem: 52 141<1 34> 59 141<528 561> 400 141<528 561> 407 141<1 34>
DStem: 94 528 140 528 277 281 300 312 277 281 300 250 94 34 140 34 300 250 323 281 460 34 506 34 460 528 506 528 300 312 323 281
Fore
506 528 m 1
 323 281 l 1
 506 34 l 1
 548 34 l 1
 548 0 l 1
 473 0 500 0 407 0 c 1
 407 34 l 1
 460 34 l 1
 300 250 l 1
 140 34 l 1
 193 34 l 1
 193 0 l 1
 100 0 127 0 52 0 c 1
 52 34 l 1
 94 34 l 1
 277 281 l 1
 94 528 l 1
 59 528 l 1
 59 562 l 1
 125 562 99 562 200 562 c 1
 200 528 l 1
 140 528 l 1
 300 312 l 1
 460 528 l 1
 400 528 l 1
 400 562 l 1
 501 562 475 562 541 562 c 1
 541 528 l 1
 506 528 l 1
EndSplineSet
MinimumDistance: x3,-1 
EndChar
StartChar: Y
Encoding: 89 89
Width: 600
HStem: 0 34<223 280 317 375> 528 34<59 94 140 200 400 460 506 541>
VStem: 59 141<528 561> 280 37<34 273> 400 141<528 561>
DStem: 94 528 140 528 280 273 300 312 460 528 506 528 300 312 317 273
Fore
317 34 m 1
 375 34 l 1
 375 0 l 1
 282 0 298 0 223 0 c 1
 223 34 l 1
 280 34 l 1
 280 273 l 1
 94 528 l 1
 59 528 l 1
 59 562 l 1
 125 562 99 562 200 562 c 1
 200 528 l 1
 140 528 l 1
 300 312 l 1
 460 528 l 1
 400 528 l 1
 400 562 l 1
 501 562 475 562 541 562 c 1
 541 528 l 1
 506 528 l 1
 317 273 l 1
 317 34 l 1
EndSplineSet
MinimumDistance: x17,-1 x5,3 x5,4 x0,2 x0,1 
EndChar
StartChar: Z
Encoding: 90 90
Width: 600
HStem: 0 34<177 432> 0 190<443 464> 528 34<164 411>
DStem: 131 562 164 528 122 375 157 375 412 528 462 539 125 20 176 34 443 190 478 190 432 34 464 0
Fore
432 34 m 1
 443 190 l 1
 478 190 l 1
 464 0 l 1
 125 0 l 1
 125 20 l 1
 412 528 l 1
 164 528 l 1
 157 375 l 1
 122 375 l 1
 131 562 l 1
 462 562 l 1
 462 539 l 1
 176 34 l 1
 432 34 l 1
EndSplineSet
MinimumDistance: x2,-1 
EndChar
StartChar: bracketleft
Encoding: 91 91
Width: 600
HStem: -138 34<264 348> 528 34<264 349>
VStem: 225.01 37.9901<-104 528>
Fore
226 562 m 1
 350 562 l 1
 350 528 l 1
 263 528 l 1
 263 -104 l 1
 349 -104 l 1
 349 -138 l 1
 225 -138 l 1
 225 55 226 258 226 562 c 1
EndSplineSet
MinimumDistance: x1,-1 x4,6 x4,5 x3,1 x3,2 
EndChar
StartChar: backslash
Encoding: 92 92
Width: 600
HStem: 612 20G<122 162>
DStem: 122 632 162 632 488 -84 530 -84
Fore
530 -84 m 1
 488 -84 l 1
 122 632 l 1
 162 632 l 1
 530 -84 l 1
EndSplineSet
MinimumDistance: x0,-1 
EndChar
StartChar: bracketright
Encoding: 93 93
Width: 600
HStem: -138 34<144 228> 528 34<143 228>
VStem: 229 37.9896<-104 528>
Fore
266 562 m 1
 266 258 267 55 267 -138 c 1
 143 -138 l 1
 143 -104 l 1
 229 -104 l 1
 229 528 l 1
 142 528 l 1
 142 562 l 1
 266 562 l 1
EndSplineSet
MinimumDistance: x0,-1 x5,7 x5,6 x4,2 x4,3 
EndChar
StartChar: asciicircum
Encoding: 94 94
Width: 600
Fore
505 357 m 1
 483 335 l 1
 304 481 l 1
 117 335 l 1
 95 357 l 1
 301 562 l 1
 505 357 l 1
EndSplineSet
EndChar
StartChar: underscore
Encoding: 95 95
Width: 600
HStem: -106 34<36 565>
VStem: 35 531<-105 -73>
Fore
35 -72 m 1
 566 -72 l 1
 566 -106 l 1
 35 -106 l 1
 35 -72 l 1
EndSplineSet
MinimumDistance: x1,-1 
EndChar
StartChar: grave
Encoding: 96 96
Width: 600
Fore
191 657 m 1
 284 657 l 1
 406 482 l 1
 359 482 l 1
 191 657 l 1
EndSplineSet
EndChar
StartChar: a
Encoding: 97 97
Width: 600
HStem: -14 37<222 249> 0 34<446 538> 266 37<217 249> 400 37<222 249>
VStem: 41 37<130 146> 409 37<34 53 110 239 278 304> 409 130<1 33>
Fore
409 239 m 1
 378 247 289 266 223 266 c 0
 145 266 78 214 78 143 c 0
 78 70 156 23 239 23 c 0
 319 23 359 51 409 110 c 1
 409 239 l 1
446 34 m 1
 539 34 l 1
 539 0 l 1
 409 0 l 1
 409 54 l 1
 365 10 318 -14 239 -14 c 0
 147 -14 41 40 41 143 c 0
 41 241 132 303 223 303 c 0
 284 303 366 288 409 277 c 1
 409 294 l 2
 409 345 332 400 237 400 c 0
 191 400 120 376 77 357 c 1
 63 391 l 1
 63 391 88 402 122 414 c 0
 156 425 200 437 237 437 c 0
 343 437 446 378 446 294 c 2
 446 34 l 1
EndSplineSet
MinimumDistance: x6,-1 x5,7 x5,6 
EndChar
StartChar: b
Encoding: 98 98
Width: 600
HStem: 0 34<40 118 323.004 355> 390 37<339 355>
VStem: 119 38<35 94 207 223 332 590> 531 37<207 223>
Fore
344 390 m 0
 245 390 156 315 156 213 c 0
 156 111 245 36 343 36 c 0
 448 36 531 116 531 213 c 0
 531 310 448 390 344 390 c 0
119 591 m 1
 41 576 l 1
 35 610 l 1
 156 632 l 1
 156 331 l 1
 197 389 266 427 343 427 c 0
 467 427 568 332 568 213 c 0
 568 94 467 -1 344 -1 c 0
 266 -1 197 37 157 95 c 1
 157 0 l 1
 39 0 l 1
 39 34 l 1
 119 34 l 1
 119 591 l 1
EndSplineSet
MinimumDistance: x10,-1 x16,14 x16,15 
EndChar
StartChar: c
Encoding: 99 99
Width: 600
HStem: 0 37<293 309> 390 37<277 309>
VStem: 69 37<208 224>
Fore
454 377 m 1
 459 399 l 1
 492 392 l 1
 492 392 482 353 480 336 c 1
 488 325 494 312 499 300 c 1
 464 288 l 1
 434 348 369 390 294 390 c 0
 189 390 106 310 106 213 c 0
 106 116 194 37 303 37 c 0
 348 37 417 63 449 88 c 1
 469 55 l 1
 430 23 358 0 303 0 c 0
 171 0 69 94 69 213 c 0
 69 332 171 427 294 427 c 0
 348 427 400 406 440 375 c 1
 448 370 453 367 454 377 c 1
EndSplineSet
MinimumDistance: x7,-1 
EndChar
StartChar: d
Encoding: 100 100
Width: 600
HStem: -1 37<261 293 501 581> 0 21G<465 582> 390 37<261 293>
VStem: 53 37<207 223> 465 36<34 94 207 223 332 588> 465 117<1 33>
Fore
582 0 m 1
 465 0 l 1
 465 95 l 1
 424 37 355 -1 278 -1 c 0
 154 -1 53 94 53 213 c 0
 53 332 154 427 277 427 c 0
 355 427 424 389 464 331 c 1
 464 589 l 1
 304 559 l 1
 304 593 l 1
 501 632 l 1
 501 34 l 1
 582 34 l 1
 582 0 l 1
465 213 m 0
 465 315 376 390 278 390 c 0
 173 390 90 310 90 213 c 0
 90 116 173 36 277 36 c 0
 376 36 465 111 465 213 c 0
EndSplineSet
MinimumDistance: x0,-1 y0,11 x11,0 x11,12 
EndChar
StartChar: e
Encoding: 101 101
Width: 600
HStem: 0 37<293 309> 213 34<111 477> 390 37<277 309>
VStem: 69 37<208 213>
Fore
478 247 m 1
 461 328 386 390 294 390 c 0
 202 390 127 328 110 247 c 1
 478 247 l 1
519 213 m 1
 106 213 l 1
 106 116 194 37 299 37 c 0
 358 37 423 63 463 92 c 1
 487 64 l 1
 442 26 367 0 299 0 c 0
 176 0 69 94 69 213 c 0
 69 332 171 427 294 427 c 0
 417 427 519 335 519 213 c 1
EndSplineSet
MinimumDistance: x4,-1 
EndChar
StartChar: f
Encoding: 102 102
Width: 600
HStem: 0 34<113 184 222 387> 392 34<113 184 222 470> 595 37<320 352>
VStem: 185 36<34 392 426 512>
Fore
185 34 m 1
 185 392 l 1
 112 392 l 1
 112 426 l 1
 184 426 l 1
 184 505 l 2
 184 579 268 632 334 632 c 0
 399 632 450 606 482 583 c 1
 460 553 l 1
 434 572 390 595 334 595 c 0
 278 595 221 549 221 505 c 2
 221 426 l 1
 471 426 l 1
 471 392 l 1
 221 392 l 1
 221 34 l 1
 388 34 l 1
 388 0 l 1
 112 0 l 1
 112 34 l 1
 185 34 l 1
EndSplineSet
MinimumDistance: x12,-1 x15,17 x15,16 x11,13 x11,12 x4,3 x4,2 x0,18 x0,19 
EndChar
StartChar: g
Encoding: 103 103
Width: 600
HStem: -197 37<252 271> -1 37<252 284> 390 37<252 284 493 574> 406 20G<456 575>
VStem: 44 37<203 219> 456 37<-37 95 203 219 330 392> 456 119<393 425>
Fore
269 390 m 0
 164 390 81 310 81 213 c 0
 81 116 164 36 268 36 c 0
 373 36 456 116 456 213 c 0
 456 310 373 390 269 390 c 0
575 426 m 1
 575 392 l 1
 493 392 l 1
 493 258 493 185 493 -31 c 0
 493 -116 372 -197 266 -197 c 0
 190 -197 114 -163 73 -139 c 1
 89 -106 l 1
 122 -129 205 -160 265 -160 c 0
 346 -160 456 -91 456 -31 c 2
 456 96 l 1
 416 38 346 -1 269 -1 c 0
 145 -1 44 94 44 213 c 0
 44 332 145 427 268 427 c 0
 347 427 416 388 456 330 c 1
 456 426 l 1
 575 426 l 1
EndSplineSet
MinimumDistance: x4,-1 y4,6 x6,4 x6,5 
EndChar
StartChar: h
Encoding: 104 104
Width: 600
HStem: 0 35<23 108 146 229 369 454 491 575> 403 37<310 326>
VStem: 109 36<36 332 377 589> 455 36<35 304>
Fore
146 376 m 1
 192 401 252 440 321 440 c 8
 410 440 491 363 491 296 c 2
 491 35 l 1
 576 35 l 1
 576 0 l 1
 368 0 l 1
 368 35 l 1
 455 35 l 1
 455 296 l 2
 455 337 389 403 321 403 c 0
 269 403 192 363 145 332 c 1
 145 35 l 1
 230 35 l 1
 230 0 l 1
 22 0 l 1
 22 35 l 1
 109 35 l 1
 109 590 l 1
 22 568 l 1
 22 602 l 1
 146 632 l 1
 146 376 l 1
EndSplineSet
MinimumDistance: x4,-1 x8,6 x8,7 x3,5 x3,4 x17,15 x17,16 x12,14 x12,13 
EndChar
StartChar: k
Encoding: 107 107
Width: 600
HStem: 0 34<56 154 351 384 433 526> 392 34<325 356 414 493>
VStem: 155 37<35 205 255 584> 324 170<392 425> 350 177<1 34>
DStem: 192 632 155 585 55 583 55 549 224 232 252 256 385 34 433 34 357 392 414 392 192 254 252 256
Fore
350 34 m 1
 385 34 l 1
 224 232 l 1
 192 205 l 1
 192 0 l 1
 55 0 l 1
 55 34 l 1
 155 34 l 1
 155 585 l 1
 55 549 l 1
 55 583 l 1
 192 632 l 1
 192 254 l 1
 357 392 l 1
 324 392 l 1
 324 426 l 1
 494 426 l 1
 494 392 l 1
 414 392 l 1
 252 256 l 1
 433 34 l 1
 527 34 l 1
 527 0 l 1
 350 0 l 1
 350 34 l 1
EndSplineSet
MinimumDistance: x21,-1 x7,5 x7,6 
EndChar
StartChar: l
Encoding: 108 108
Width: 600
HStem: 0 34<93 254 292 507>
VStem: 255 37<34 588>
DStem: 292 632 255 589 92 583 92 549
Fore
255 589 m 1
 92 549 l 1
 92 583 l 1
 292 632 l 1
 292 34 l 1
 508 34 l 1
 508 0 l 1
 92 0 l 1
 92 34 l 1
 255 34 l 1
 255 589 l 1
EndSplineSet
MinimumDistance: x5,-1 x9,7 x9,8 x4,6 x4,5 
EndChar
StartChar: m
Encoding: 109 109
Width: 600
HStem: 0 35<1 86 124 207 320 403 515 599> 392 34<1 86> 403 37<223 226 416 432>
VStem: 87 36<36 332 377 391> 282 37<35 320> 282 122<0 35> 477 38<35 335> 477 123<0 35>
Fore
313 373 m 1
 346 414 401 440 419 440 c 0
 512 440 515 361 515 296 c 2
 515 35 l 1
 600 35 l 1
 600 0 l 1
 477 0 l 1
 477 102 477 164 477 296 c 0
 477 337 482 403 420 403 c 0
 384 403 345 362 319 333 c 1
 319 35 l 5
 404 35 l 1
 404 0 l 1
 282 0 l 1
 282 102 282 164 282 296 c 0
 282 337 275 403 224 403 c 0
 185 403 149 362 123 332 c 1
 123 35 l 1
 208 35 l 1
 208 0 l 1
 -0 0 l 1
 0 35 l 1
 87 35 l 1
 87 392 l 1
 -0 392 l 1
 -0 426 l 1
 123 426 l 1
 123 376 l 1
 139 407 203 440 224 440 c 0
 280 440 303 411 313 373 c 1
EndSplineSet
MinimumDistance: x3,5 x3,4 x10,12 x10,11 x23,25 x23,24 x22,20 x22,21 x17,19 x17,18 
EndChar
StartChar: n
Encoding: 110 110
Width: 600
HStem: 0 34<23 108 146 229 369 454 491 575> 392 34<23 108> 403 37<310 326>
VStem: 109 36<35 332 376 392> 455 36<34 304>
Fore
145 376 m 1
 156 382 170 390 184 397 c 0
 223 418 275 440 321 440 c 0
 404 440 491 363 491 296 c 2
 491 34 l 1
 576 34 l 1
 576 0 l 1
 368 0 l 1
 368 34 l 1
 455 34 l 1
 455 296 l 2
 455 337 389 403 321 403 c 0
 269 403 192 363 145 332 c 1
 145 34 l 1
 230 34 l 1
 230 0 l 1
 22 0 l 1
 22 34 l 1
 109 34 l 1
 109 392 l 1
 22 392 l 1
 22 426 l 1
 146 426 l 1
 143 412 145 376 145 376 c 1
EndSplineSet
MinimumDistance: x5,-1 x9,7 x9,8 x4,6 x4,5 x19,21 x19,20 x18,16 x18,17 x13,15 x13,14 
EndChar
StartChar: o
Encoding: 111 111
Width: 600
HStem: -1 37<283 315> 390 37<283 315>
VStem: 75 37<207 223> 488 37<207 223>
Fore
300 427 m 0
 423 427 525 332 525 213 c 0
 525 94 423 -1 300 -1 c 0
 177 -1 75 94 75 213 c 0
 75 332 177 427 300 427 c 0
300 390 m 24
 197 390 112 310 112 213 c 0
 112 116 195 36 300 36 c 0
 405 36 488 110 488 213 c 24
 488 316 403 390 300 390 c 24
EndSplineSet
MinimumDistance: x1,-1 
EndChar
StartChar: p
Encoding: 112 112
Width: 600
HStem: -180 34<41 119 157 278> -1 37<327 359> 392 34<40 119 327 359>
VStem: 119 37<-146 95 204 220 331 391.515> 531 37<204 220>
Fore
343 36 m 24
 446 36 531 116 531 213 c 0
 531 310 448 390 344 390 c 0
 245 390 156 316 156 213 c 24
 156 110 240 36 343 36 c 24
119 -146 m 1
 119 -146 120 -12 120 392 c 1
 39 392 l 1
 39 426 l 1
 156 426 l 1
 156 331 l 1
 197 389 266 427 343 427 c 0
 467 427 568 332 568 213 c 0
 568 94 467 -1 344 -1 c 0
 266 -1 197 37 156 95 c 1
 156 -146 l 1
 279 -146 l 1
 279 -180 l 1
 40 -180 l 1
 40 -146 l 1
 119 -146 l 1
EndSplineSet
MinimumDistance: x11,-1 x14,16 x14,15 
EndChar
StartChar: q
Encoding: 113 113
Width: 600
HStem: -180 34<322 443 481 559> -1 37<240 272> 390 37<240 272 481 560> 406 20G<444 561>
VStem: 32 37<204 220> 444 37<-146 95 204 220 331 391.515> 444 117<392 425>
Fore
257 36 m 24
 360 36 444 110 444 213 c 24
 444 316 355 390 256 390 c 0
 152 390 69 310 69 213 c 0
 69 116 154 36 257 36 c 24
481 -146 m 1
 560 -146 l 1
 560 -180 l 1
 321 -180 l 1
 321 -146 l 1
 444 -146 l 1
 444 95 l 1
 403 37 334 -1 256 -1 c 0
 133 -1 32 94 32 213 c 0
 32 332 133 427 257 427 c 0
 334 427 403 389 444 331 c 1
 444 426 l 1
 561 426 l 1
 561 392 l 1
 480 392 l 1
 480 -12 481 -146 481 -146 c 1
EndSplineSet
MinimumDistance: x5,-1 x9,7 x9,8 
EndChar
StartChar: r
Encoding: 114 114
Width: 600
HStem: 0 35<56 141 180 263> 392 34<56 141> 403 37<359 364>
VStem: 142 37<36 332 377 391>
Fore
462 363 m 1
 453 374 396 403 362 403 c 0
 309 403 226 363 179 332 c 1
 179 35 l 1
 264 35 l 1
 264 0 l 1
 55 0 l 1
 55 35 l 1
 142 35 l 1
 142 392 l 1
 55 392 l 1
 55 426 l 1
 179 426 l 1
 179 376 l 1
 190 382 203 390 218 397 c 0
 256 418 316 440 361 440 c 0
 406 440 460 418 493 387 c 1
 462 363 l 1
EndSplineSet
MinimumDistance: x4,-1 x9,11 x9,10 x8,6 x8,7 x3,5 x3,4 
EndChar
StartChar: s
Encoding: 115 115
Width: 600
HStem: -12 128<147 158> -5 37<284 316> 395 37<284 316>
VStem: 125 37<320 327> 439 37<100.985 118>
Fore
460 432 m 1
 456 424 448 399 448 383 c 0
 448 353 462 330 472 321 c 1
 438 321 l 1
 420 354 365 395 304 395 c 0
 228 395 162 373 162 325 c 0
 162 195 476 269 476 112 c 0
 476 37 385 -5 298 -5 c 0
 255 -5 215 8 184 28 c 0
 178 33 175 30 173 23 c 0
 169 10 163 -2 158 -12 c 1
 124 -12 l 1
 124 -12 133 10 138 21 c 0
 143 32 147 50 147 60 c 0
 147 72 132 107 124 116 c 1
 158 116 l 1
 158 116 170 96 171 94 c 0
 196 59 242 32 298 32 c 0
 373 32 439 59 439 112 c 0
 439 234 125 158 125 325 c 0
 125 398 222 432 304 432 c 0
 339 432 375 421 405 405 c 0
 413 400 416 398 417 405 c 0
 419 418 418 420 426 432 c 1
 460 432 l 1
EndSplineSet
MinimumDistance: x6,-1 
EndChar
StartChar: t
Encoding: 116 116
Width: 600
HStem: -19 37<309 325> 392 34<54 132 169 419>
VStem: 132 36<132 392 426 557>
Fore
53 426 m 1
 131 426 l 1
 131 558 l 1
 168 558 l 1
 168 426 l 1
 420 426 l 1
 420 392 l 1
 168 392 l 1
 168 141 l 2
 168 79 239 18 316 18 c 0
 398 18 501 131 503 133 c 1
 531 109 l 1
 482 55 391 -19 316 -19 c 0
 225 -19 132 53 132 141 c 2
 132 392 l 1
 53 392 l 1
 53 426 l 1
EndSplineSet
MinimumDistance: x5,-1 x2,4 x3,1 y1,3 y1,2 x4,6 x4,5 x1,15 x1,0 
EndChar
StartChar: u
Encoding: 117 117
Width: 600
HStem: -13 37<262.279 279> 0 35<490 575> 392 34<23 107 369 452>
VStem: 22 122<392 425.861> 107 36<130 391> 453 37<35 51 95 392> 453 123<1 34>
Fore
453 51 m 1
 442 45 428 37 414 30 c 0
 375 9 323 -13 277 -13 c 0
 194 -13 107 64 107 131 c 2
 107 392 l 1
 22 392 l 1
 22 426 l 1
 144 426 l 1
 144 324 143 263 143 131 c 0
 143 90 209 24 277 24 c 0
 329 24 406 64 453 95 c 1
 453 392 l 1
 368 392 l 1
 368 426 l 1
 490 426 l 1
 490 291 490 35 490 35 c 1
 576 35 l 1
 576 0 l 1
 453 0 l 1
 453 51 l 1
EndSplineSet
MinimumDistance: x16,-1 x13,15 y15,13 y15,14 x15,17 x15,16 x11,13 x11,12 x4,6 x4,5 
EndChar
StartChar: v
Encoding: 118 118
Width: 600
HStem: -13 21G<286 314> 392 34<11 86 128 200 400 472 514 589>
VStem: 10 191<392 425> 399 191<392 425>
DStem: 86 392 127 392 286 -13 300 42 473 392 514 392 300 42 314 -13
Fore
590 392 m 1
 514 392 l 1
 314 -13 l 1
 286 -13 l 1
 86 392 l 1
 10 392 l 1
 10 426 l 1
 201 426 l 1
 201 392 l 1
 127 392 l 1
 300 42 l 1
 473 392 l 1
 399 392 l 1
 399 426 l 1
 590 426 l 1
 590 392 l 1
EndSplineSet
MinimumDistance: x0,-1 
EndChar
StartChar: w
Encoding: 119 119
Width: 600
HStem: -24 21G<167 191 409 433> 392 34<1 37 77 200 400 523 563 599>
VStem: 0 201<392 425> 399 201<392 425>
DStem: 37 392 76 392 167 -24 182 56 286 325 300 258 182 56 191 -24 300 258 314 325 409 -24 418 56 524 392 563 392 418 56 433 -24
Fore
76 392 m 1
 182 56 l 1
 286 325 l 1
 314 325 l 1
 418 56 l 1
 524 392 l 1
 399 392 l 1
 399 426 l 1
 600 426 l 1
 600 392 l 1
 563 392 l 1
 433 -24 l 1
 409 -24 l 1
 300 258 l 1
 191 -24 l 1
 167 -24 l 1
 37 392 l 1
 0 392 l 1
 0 426 l 1
 201 426 l 1
 201 392 l 1
 76 392 l 1
EndSplineSet
EndChar
StartChar: x
Encoding: 120 120
Width: 600
HStem: 0 34<14 70 127 171 429 473 530 586> 392 34<14 67 124 171 429 476 533 586>
VStem: 13 159<1 34 392 425> 428 159<1 34 392 425>
DStem: 67 392 123 392 272 212 300 237 272 212 300 187 70 34 126 34 300 187 328 212 474 34 530 34 477 392 533 392 300 237 328 212
Fore
172 0 m 1
 13 0 l 1
 13 34 l 1
 70 34 l 1
 272 212 l 1
 67 392 l 1
 13 392 l 1
 13 426 l 1
 172 426 l 1
 172 392 l 1
 123 392 l 1
 300 237 l 1
 477 392 l 1
 428 392 l 1
 428 426 l 1
 587 426 l 1
 587 392 l 1
 533 392 l 1
 328 212 l 1
 530 34 l 1
 587 34 l 1
 587 0 l 1
 428 0 l 1
 428 34 l 1
 474 34 l 1
 300 187 l 1
 126 34 l 1
 172 34 l 1
 172 0 l 1
EndSplineSet
MinimumDistance: x15,-1 
Back
-22 426 m 5
 680 426 l 5
EndSplineSet
EndChar
StartChar: y
Encoding: 121 121
Width: 600
HStem: -168 34<1 213 255 283> 392 34<11 86 128 200 400 472 514 589>
VStem: 10 191<392 425> 399 191<392 425>
DStem: 86 392 127 392 279 0 300 42 279 0 514 392 213 -134 254 -134 473 392 514 392 300 42 254 -134
Fore
284 -168 m 1
 0 -168 l 1
 -0 -134 l 1
 213 -134 l 1
 279 0 l 1
 86 392 l 1
 10 392 l 1
 10 426 l 1
 201 426 l 1
 201 392 l 1
 127 392 l 1
 300 42 l 1
 360 165 416 276 473 392 c 1
 399 392 l 1
 399 426 l 1
 590 426 l 1
 590 392 l 1
 514 392 l 1
 426 214 335 30 254 -134 c 1
 284 -134 l 1
 284 -168 l 1
EndSplineSet
MinimumDistance: x15,-1 
EndChar
StartChar: z
Encoding: 122 122
Width: 600
HStem: 0 34<152 483> 0 70<484 516> 392 34<118 446>
VStem: 83 34<357 391> 483 34<35 69>
DStem: 447 392 499 392 99 34 151 34
Fore
499 392 m 1
 151 34 l 1
 483 34 l 1
 483 70 l 1
 517 70 l 1
 517 0 l 1
 99 0 l 1
 99 34 l 1
 447 392 l 1
 117 392 l 1
 117 356 l 1
 83 356 l 1
 83 426 l 1
 499 426 l 1
 499 392 l 1
EndSplineSet
MinimumDistance: x4,-1 y9,11 y9,10 y2,4 y2,3 
EndChar
StartChar: braceleft
Encoding: 123 123
Width: 600
HStem: -120 38<338.728 375> 226 37<146.063 158.466> 573 37<339.008 375>
VStem: 218 36<8 157 328 488>
Fore
207 245 m 1
 239 223 254 184 254 155 c 2
 254 19 l 2
 254 -43 292 -82 356 -82 c 2
 376 -82 l 1
 376 -120 l 1
 356 -120 l 2
 272 -120 218 -63 218 19 c 2
 218 155 l 2
 218 185 194 226 146 226 c 1
 146 263 l 1
 194 263 217 305 217 335 c 2
 217 471 l 2
 217 553 272 610 356 610 c 2
 376 610 l 1
 376 573 l 1
 356 573 l 2
 292 573 255 533 255 471 c 2
 255 335 l 2
 255 306 239 267 207 245 c 1
EndSplineSet
MinimumDistance: x4,-1 x17,14 x17,15 x11,10 x11,9 x2,5 x2,4 
EndChar
StartChar: bar
Encoding: 124 124
Width: 600
HStem: -143 705<282 318>
VStem: 281 38<-142 561>
Fore
319 562 m 1
 319 -143 l 1
 281 -143 l 1
 281 562 l 1
 319 562 l 1
EndSplineSet
MinimumDistance: x0,-1 
EndChar
StartChar: braceright
Encoding: 125 125
Width: 600
HStem: -120 38<152 183> 226 37<375 380> 573 37<152 183>
VStem: 273 37<8 157 328 473>
Fore
320 245 m 1
 288 267 273 306 273 335 c 2
 273 471 l 2
 273 533 235 573 171 573 c 2
 151 573 l 1
 151 610 l 1
 171 610 l 2
 256 610 310 553 310 471 c 2
 310 335 l 2
 310 305 333 263 381 263 c 1
 381 226 l 1
 333 226 310 185 310 155 c 2
 310 19 l 2
 310 -63 256 -120 171 -120 c 2
 151 -120 l 1
 151 -82 l 1
 171 -82 l 2
 235 -82 273 -43 273 19 c 2
 273 155 l 2
 273 184 288 223 320 245 c 1
EndSplineSet
MinimumDistance: x9,-1 x17,14 x17,15 x8,10 x8,9 x2,5 x2,4 
EndChar
StartChar: asciitilde
Encoding: 126 126
Width: 600
HStem: 176 34<408.748 439> 286 34<167 183>
Fore
39 252 m 1
 80 289 115 320 175 320 c 0
 291 320 325 210 425 210 c 0
 473 210 506 240 539 270 c 1
 561 244 l 1
 521 209 483 176 425 176 c 0
 308 176 274 286 175 286 c 0
 125 286 95 257 61 226 c 1
 39 252 l 1
EndSplineSet
EndChar
StartChar: exclamdown
Encoding: 161 161
Width: 600
HStem: -18 21G<238 295> 416 20G<248 285> 498 112<255.671 270>
VStem: 238 47<-17 14 398 435>
Fore
238 -18 m 1
 248 436 l 1
 285 436 l 1
 295 -18 l 1
 238 -18 l 1
332 554 m 0
 332 523 303 498 268 498 c 0
 232 498 203 523 203 554 c 0
 203 585 232 610 268 610 c 0
 303 610 332 585 332 554 c 0
EndSplineSet
MinimumDistance: x2,-1 
EndChar
StartChar: cent
Encoding: 162 162
Width: 600
HStem: -62 154<244 262> 445 173<228 262>
VStem: 20 37<258 274> 228 34<-61 56 481 617>
Fore
405 432 m 1
 410 455 l 1
 443 448 l 1
 443 448 433 409 431 392 c 1
 439 381 445 368 450 356 c 1
 415 344 l 1
 385 403 320 445 245 445 c 0
 140 445 57 365 57 269 c 0
 57 172 145 92 254 92 c 0
 299 92 368 119 400 143 c 1
 420 110 l 1
 383 80 316 58 262 56 c 1
 262 -62 l 1
 228 -62 l 1
 228 57 l 1
 109 68 20 158 20 268 c 0
 20 382 113 473 228 481 c 1
 228 618 l 1
 262 618 l 1
 262 481 l 1
 310 478 356 458 391 431 c 0
 399 425 404 422 405 432 c 1
EndSplineSet
MinimumDistance: x11,-1 
EndChar
StartChar: sterling
Encoding: 163 163
Width: 600
HStem: -30 34<368.711 384> -12 21G<133 133> 28 34<224 242> 296 34<81 148 206 408> 570 34<336 352>
VStem: 127 34<402 434> 194 34<194 210>
Fore
80 330 m 1
 149 330 l 1
 137 355 127 382 127 418 c 0
 127 539 239 604 342 604 c 0
 420 604 461 571 517 517 c 1
 493 493 l 1
 439 545 406 570 342 570 c 0
 249 570 161 513 161 418 c 0
 161 383 173 356 187 330 c 1
 409 330 l 1
 409 296 l 1
 205 296 l 1
 217 270 228 242 228 205 c 0
 228 157 211 102 184 55 c 1
 202 60 221 62 240 62 c 0
 304 62 330 4 380 4 c 0
 422 4 446 15 475 50 c 1
 501 28 l 1
 466 -15 432 -30 380 -30 c 0
 316 -30 290 28 240 28 c 0
 197 28 162 17 138 -7 c 2
 133 -12 l 1
 133 -12 l 1
 109 12 l 1
 109 12 l 1
 111 14 112 15 114 17 c 0
 147 51 194 127 194 205 c 0
 194 242 181 269 167 296 c 1
 80 296 l 1
 80 330 l 1
EndSplineSet
MinimumDistance: x12,-1 
EndChar
StartChar: currency
Encoding: 164 164
Width: 600
HStem: 26 37<284 316> 410 37<284 316>
VStem: 89 37<223 255> 474 37<223 239>
DStem: 76 434 100 459 139 372 163 396 140 100 164 76 81 39 105 16 435 75 459 99 495 15 519 40 500 459 524 434 437 396 461 372
Fore
300 447 m 0
 352 447 400 428 437 396 c 1
 500 459 l 1
 524 434 l 1
 461 372 l 1
 492 336 511 288 511 237 c 0
 511 184 491 136 459 99 c 1
 519 40 l 1
 495 15 l 1
 435 75 l 1
 399 44 351 26 300 26 c 0
 248 26 201 45 164 76 c 1
 105 16 l 1
 81 39 l 1
 140 100 l 1
 109 136 89 184 89 236 c 0
 89 288 108 335 139 372 c 1
 76 434 l 1
 100 459 l 1
 163 396 l 1
 199 428 247 447 300 447 c 0
300 410 m 0
 204 410 126 332 126 237 c 0
 126 141 204 63 300 63 c 0
 396 63 474 141 474 236 c 0
 474 332 396 410 300 410 c 0
EndSplineSet
MinimumDistance: x3,-1 
EndChar
StartChar: yen
Encoding: 165 165
Width: 600
HStem: 0 34<224 279 318 374> 172 34<104 279 318 495> 303 34<104 232 365 495> 528 34<60 94 141 199 401 459 506 540>
VStem: 59 141<528 561> 280 37<34 171 207 273> 400 141<528 561>
DStem: 94 528 140 528 233 337 282 337 460 528 506 528 318 337 364 337
Fore
317 34 m 1
 375 34 l 1
 375 0 l 1
 223 0 l 1
 223 34 l 1
 280 34 l 1
 280 172 l 1
 103 172 l 1
 103 206 l 1
 280 206 l 1
 280 273 l 1
 258 303 l 1
 103 303 l 1
 103 337 l 1
 233 337 l 1
 94 528 l 1
 59 528 l 1
 59 562 l 1
 200 562 l 1
 200 528 l 1
 140 528 l 1
 282 337 l 1
 318 337 l 1
 460 528 l 1
 400 528 l 1
 400 562 l 1
 541 562 l 1
 541 528 l 1
 506 528 l 1
 364 337 l 1
 496 337 l 1
 496 303 l 1
 339 303 l 1
 317 273 l 1
 317 206 l 1
 496 206 l 1
 496 172 l 1
 317 172 l 1
 317 34 l 1
EndSplineSet
MinimumDistance: x26,-1 x34,36 x34,35 x6,8 x6,7 x5,3 x5,4 x0,2 x0,1 
EndChar
StartChar: brokenbar
Encoding: 166 166
Width: 600
HStem: -143 310<282 318> 321 241<282 318>
VStem: 281 38<-142 166 322 561>
Fore
319 167 m 1
 319 -143 l 1
 281 -143 l 1
 281 167 l 1
 319 167 l 1
281 321 m 1
 281 562 l 1
 319 562 l 1
 319 321 l 1
 281 321 l 1
EndSplineSet
MinimumDistance: x0,-1 
EndChar
StartChar: section
Encoding: 167 167
Width: 600
HStem: -92 34<170 364> -92 102<137 169> 544 34<204 407>
VStem: 124 34<276.444 292> 136 34<-57 9> 409 34<196 200 477 543>
Fore
220 371 m 1
 218 369 l 2
 196 352 158 317 158 287 c 0
 158 230 247 179 290 152 c 0
 307 141 327 128 347 114 c 1
 349 116 l 2
 371 133 409 168 409 198 c 0
 409 255 320 306 277 334 c 0
 260 345 240 357 220 371 c 1
170 10 m 1
 170 -58 l 1
 356 -58 l 2
 392 -58 403 -46 403 -16 c 0
 403 99 124 153 124 287 c 0
 124 325 160 366 193 393 c 1
 158 422 130 458 130 502 c 0
 130 554 159 578 211 578 c 2
 442 578 l 1
 442 476 l 1
 408 476 l 1
 408 544 l 1
 211 544 l 2
 175 544 164 532 164 502 c 0
 164 387 443 332 443 198 c 0
 443 160 408 119 375 93 c 1
 409 63 437 27 437 -16 c 0
 437 -68 408 -92 356 -92 c 2
 136 -92 l 1
 136 10 l 1
 170 10 l 1
EndSplineSet
MinimumDistance: x16,-1 x17,19 y19,17 y19,18 y9,27 y9,8 
EndChar
StartChar: dieresis
Encoding: 168 168
Width: 600
HStem: 482 76<161 169 321 326>
VStem: 129 76<514 522> 286 76<514 522>
Fore
129 520 m 0
 129 541 146 558 167 558 c 0
 188 558 205 541 205 520 c 0
 205 499 188 482 167 482 c 0
 146 482 129 499 129 520 c 0
286 520 m 0
 286 541 303 558 324 558 c 0
 345 558 362 541 362 520 c 0
 362 499 345 482 324 482 c 0
 303 482 286 499 286 520 c 0
EndSplineSet
MinimumDistance: x6,-1 
EndChar
StartChar: copyright
Encoding: 169 169
Width: 600
HStem: -13 34<288 320> 106 34<288 304> 392 34<288 304> 520 34<288 320>
VStem: 16 34<259 291> 150 34<259 275> 550 34<259 291>
Fore
300 554 m 0
 457 554 584 427 584 271 c 0
 584 114 457 -13 300 -13 c 0
 143 -13 16 114 16 270 c 0
 16 427 143 554 300 554 c 0
300 520 m 0
 162 520 50 408 50 271 c 0
 50 133 162 21 300 21 c 0
 438 21 550 133 550 270 c 0
 550 408 438 520 300 520 c 0
410 155 m 1
 383 125 344 106 302 106 c 0
 217 106 150 179 150 266 c 0
 150 353 217 426 301 426 c 0
 347 426 388 405 415 371 c 1
 389 350 l 1
 367 376 336 392 302 392 c 0
 238 392 184 337 184 266 c 0
 184 195 238 140 301 140 c 0
 334 140 364 154 385 178 c 1
 410 155 l 1
EndSplineSet
MinimumDistance: x1,-1 
EndChar
StartChar: ordfeminine
Encoding: 170 170
Width: 600
HStem: 162 34<162 448> 288 21<396 451> 448 22<249 281> 528 22<261 281>
VStem: 153 23<370 376> 374 22<309 320 354 432 456 472> 374 78<289 308>
Fore
449 162 m 1
 161 162 l 1
 161 196 l 1
 449 196 l 1
 449 162 l 1
374 432 m 1
 355 437 302 448 262 448 c 0
 215 448 176 417 176 374 c 0
 176 331 222 303 272 303 c 0
 320 303 344 319 374 354 c 1
 374 432 l 1
396 309 m 1
 452 309 l 1
 452 288 l 1
 374 288 l 1
 374 321 l 1
 348 294 319 280 272 280 c 0
 217 280 153 313 153 374 c 0
 153 433 207 470 262 470 c 0
 299 470 348 461 374 455 c 1
 374 465 l 2
 374 495 328 528 271 528 c 0
 243 528 201 514 175 503 c 1
 166 523 l 1
 166 523 181 530 202 537 c 0
 222 543 249 550 271 550 c 0
 334 550 396 515 396 465 c 2
 396 309 l 1
EndSplineSet
MinimumDistance: x10,-1 x9,11 x9,10 
EndChar
StartChar: guillemotleft
Encoding: 171 171
Width: 600
Fore
330 422 m 1
 116 240 l 1
 330 59 l 1
 301 27 l 1
 13 240 l 1
 301 453 l 1
 330 422 l 1
521 422 m 1
 307 240 l 1
 521 59 l 1
 492 27 l 1
 204 240 l 1
 492 453 l 1
 521 422 l 1
EndSplineSet
EndChar
StartChar: logicalnot
Encoding: 172 172
Width: 600
HStem: 309 38<72 401>
VStem: 402 37<177 308>
Fore
71 347 m 1
 439 347 l 1
 439 176 l 1
 402 176 l 1
 402 309 l 1
 71 309 l 1
 71 347 l 1
EndSplineSet
MinimumDistance: x1,-1 y4,2 y4,3 x4,0 x4,5 
EndChar
StartChar: uni00AD
Encoding: 173 173
Width: 600
HStem: 253 37<119 428>
VStem: 118 311<254 289>
Fore
118 290 m 1
 429 290 l 1
 429 253 l 1
 118 253 l 1
 118 290 l 1
EndSplineSet
MinimumDistance: x1,-1 
EndChar
StartChar: registered
Encoding: 174 174
Width: 600
HStem: -13 34<288 320> 266 34<258 293 333 337> 396 34<258 337> 520 34<288 320>
VStem: 16 34<259 291> 223 34<142 265 301 395> 368 34<339 355> 550 34<259 291>
DStem: 293 266 332 266 361 144 398 144
Fore
257 300 m 1
 335 300 l 2
 357 300 368 321 368 344 c 0
 368 370 355 396 332 396 c 2
 257 396 l 1
 257 300 l 1
332 266 m 1
 398 144 l 1
 361 144 l 1
 293 266 l 1
 257 266 l 1
 257 141 l 1
 223 141 l 1
 223 430 l 1
 332 430 l 2
 377 430 402 388 402 346 c 0
 402 306 381 266 335 266 c 2
 332 266 l 1
300 554 m 0
 457 554 584 427 584 271 c 0
 584 114 457 -13 300 -13 c 0
 143 -13 16 114 16 270 c 0
 16 427 143 554 300 554 c 0
300 520 m 0
 162 520 50 408 50 271 c 0
 50 133 162 21 300 21 c 0
 438 21 550 133 550 270 c 0
 550 408 438 520 300 520 c 0
EndSplineSet
MinimumDistance: x17,-1 y9,11 y9,10 
EndChar
StartChar: macron
Encoding: 175 175
Width: 600
HStem: 528 34<72 417>
VStem: 71 347<529 561>
Fore
71 562 m 1
 418 562 l 1
 418 528 l 1
 71 528 l 1
 71 562 l 1
EndSplineSet
MinimumDistance: x1,-1 
EndChar
StartChar: degree
Encoding: 176 176
Width: 600
HStem: 358 34<398.173 414> 579 34<398.173 414>
VStem: 284 34<472.087 488> 506 34<471.476 488>
Fore
412 613 m 0
 482 613 540 556 540 486 c 0
 540 415 482 358 412 358 c 0
 342 358 284 415 284 485 c 0
 284 556 342 613 412 613 c 0
412 579 m 0
 360 579 318 537 318 486 c 0
 318 434 360 392 412 392 c 0
 464 392 506 434 506 485 c 0
 506 537 464 579 412 579 c 0
EndSplineSet
MinimumDistance: x1,-1 
EndChar
StartChar: plusminus
Encoding: 177 177
Width: 600
HStem: 87 37<78 461> 281 37<78 247 286 460>
VStem: 248 37<194 281 318 416>
Fore
284 417 m 1
 284 318 l 1
 461 318 l 1
 461 281 l 1
 285 281 l 1
 285 193 l 1
 248 193 l 1
 248 281 l 1
 77 281 l 1
 77 318 l 1
 247 318 l 1
 247 417 l 1
 284 417 l 1
77 124 m 1
 462 124 l 1
 462 87 l 1
 77 87 l 1
 77 124 l 1
EndSplineSet
MinimumDistance: x2,-1 x0,10 y4,6 y4,5 x11,1 y1,11 y1,0 x10,9 x10,8 x4,3 x4,2 
EndChar
StartChar: twosuperior
Encoding: 178 178
Width: 600
HStem: 290 20<227 383> 290 73<384 403> 605 22<292 309>
VStem: 196 22<507.062 524.929> 204 22<311 340> 383 21<311 362 534 549>
Fore
196 507 m 1
 196 535 l 1
 209 581 236 627 307 627 c 0
 354 627 404 602 404 547 c 0
 404 481 352 456 305 426 c 0
 270 403 226 387 226 338 c 2
 226 310 l 1
 383 310 l 1
 383 363 l 1
 404 363 l 1
 404 290 l 1
 204 290 l 1
 204 338 l 2
 204 418 306 440 356 489 c 0
 372 504 382 521 382 547 c 0
 382 582 349 605 304 605 c 0
 240 605 218 557 218 507 c 1
 196 507 l 1
EndSplineSet
MinimumDistance: x3,-1 y7,9 y7,8 
EndChar
StartChar: threesuperior
Encoding: 179 179
Width: 600
HStem: 291 22<286 302> 468 22<293 334> 606 23<286 302>
VStem: 388 22<387 403 532.166 553>
Fore
367 477 m 1
 398 458 410 422 410 390 c 0
 410 330 353 291 294 291 c 0
 241 291 217 321 192 349 c 1
 208 364 l 1
 233 337 251 313 294 313 c 0
 342 313 388 343 388 390 c 0
 388 432 361 468 331 468 c 2
 292 468 l 1
 292 490 l 1
 331 490 l 2
 364 490 388 514 388 542 c 0
 388 582 354 606 299 606 c 0
 256 606 225 578 208 553 c 1
 190 566 l 1
 210 595 247 629 299 629 c 0
 363 629 410 597 410 542 c 0
 410 515 395 491 367 477 c 1
EndSplineSet
MinimumDistance: x1,-1 
EndChar
StartChar: acute
Encoding: 180 180
Width: 600
Fore
403 657 m 1
 234 482 l 1
 188 482 l 1
 310 657 l 1
 403 657 l 1
EndSplineSet
EndChar
StartChar: mu
Encoding: 181 181
Width: 600
HStem: -15 37<252 284> 0 34<470 554> 392 34<29 111 349 432>
VStem: 28 121<392 426> 112 38<-192 29 114 392> 433 37<34 65 116 391> 433 122<1 33>
Fore
28 426 m 1
 149 426 l 1
 149 310 149 415 149 114 c 1
 154 65 191 22 271 22 c 0
 331 22 392 68 433 116 c 1
 433 392 l 1
 348 392 l 1
 348 426 l 1
 470 426 l 1
 470 34 l 1
 555 34 l 1
 555 0 l 1
 433 0 l 1
 433 66 l 1
 391 22 330 -15 270 -15 c 0
 220 -15 178 -1 150 29 c 1
 150 -192 l 1
 112 -192 l 1
 112 3 112 197 112 392 c 1
 28 392 l 1
 28 426 l 1
EndSplineSet
MinimumDistance: x10,-1 y18,16 y18,17 x7,9 y9,7 y9,8 x9,11 x9,10 x5,7 x5,6 x18,0 x18,19 
EndChar
StartChar: paragraph
Encoding: 182 182
Width: 600
HStem: -59 34<212 338 510 573> 228 34<252 338> 528 34<252 338 377 472 510 546>
VStem: 60 34<389 405> 339 37<-24 228 263 527> 473 36<-25 527> 473 101<-58 -26>
Fore
339 262 m 1
 339 528 l 1
 272 528 l 2
 197 528 94 490 94 395 c 0
 94 289 199 262 266 262 c 2
 339 262 l 1
376 528 m 1
 376 -59 l 1
 211 -59 l 1
 211 -25 l 1
 339 -25 l 1
 339 228 l 1
 266 228 l 2
 199 228 60 255 60 395 c 0
 60 522 195 562 272 562 c 2
 547 562 l 1
 547 528 l 1
 509 528 l 1
 509 -25 l 1
 574 -25 l 1
 574 -59 l 1
 473 -59 l 1
 473 528 l 1
 376 528 l 1
EndSplineSet
MinimumDistance: x18,-1 y21,19 y21,20 x7,5 y5,7 y5,6 x17,19 x17,18 x16,14 x16,15 x9,7 x9,8 
EndChar
StartChar: periodcentered
Encoding: 183 183
Width: 600
HStem: 186 124<296 312>
VStem: 232 142<237.648 250>
Fore
232 248 m 0
 232 282 264 310 303 310 c 0
 342 310 374 282 374 248 c 0
 374 214 342 186 303 186 c 0
 264 186 232 214 232 248 c 0
EndSplineSet
MinimumDistance: x2,-1 
EndChar
StartChar: cedilla
Encoding: 184 184
Width: 600
HStem: -193.715 33.5038<296 325> -59.6037 33.2626<334 350>
VStem: 403 37<-114 -104>
DStem: 297 25 334 26 285 -69 324 -28
Fore
334 26 m 1
 324 -28 l 1
 392 -14 440 -59 440 -106 c 0
 440 -154 392 -204 268 -192 c 1
 273 -158 l 1
 370 -171 403 -132 403 -112 c 0
 403 -65 362 -52 310 -63 c 2
 285 -69 l 1
 297 25 l 1
 334 26 l 1
EndSplineSet
MinimumDistance: x2,-1 
EndChar
StartChar: onesuperior
Encoding: 185 185
Width: 600
HStem: 293 18<197 290 312 406>
VStem: 291 21<311 601>
DStem: 298 629 291 602 193 555 205 541
Fore
196 311 m 1
 291 311 l 1
 291 602 l 1
 205 541 l 1
 193 555 l 1
 298 629 l 1
 312 629 l 1
 312 311 l 1
 407 311 l 1
 407 293 l 1
 312 293 l 1
 291 293 l 1
 196 293 l 1
 196 311 l 1
EndSplineSet
MinimumDistance: x8,-1 x5,7 y7,5 y7,6 x7,9 x7,8 x1,12 x1,0 
EndChar
StartChar: ordmasculine
Encoding: 186 186
Width: 600
HStem: 162 34<162 448> 292 22<289 305> 526 22<289 305>
VStem: 163 22<405.794 434> 410 22<405.794 434>
Fore
449 162 m 1
 161 162 l 1
 161 196 l 1
 449 196 l 1
 449 162 l 1
298 548 m 0
 371 548 432 491 432 420 c 0
 432 349 371 292 298 292 c 0
 224 292 163 349 163 420 c 0
 163 491 224 548 298 548 c 0
298 526 m 0
 235 526 185 478 185 420 c 0
 185 362 235 314 298 314 c 0
 360 314 410 362 410 420 c 0
 410 478 360 526 298 526 c 0
EndSplineSet
MinimumDistance: x5,-1 
EndChar
StartChar: guillemotright
Encoding: 187 187
Width: 600
Fore
265 422 m 1
 294 453 l 1
 582 240 l 1
 294 27 l 1
 265 59 l 1
 479 240 l 1
 265 422 l 1
73 422 m 1
 102 453 l 1
 390 240 l 1
 102 27 l 1
 73 59 l 1
 287 240 l 1
 73 422 l 1
EndSplineSet
EndChar
StartChar: onequarter
Encoding: 188 188
Width: 600
HStem: 0 23<442 500 526 584> 107 25<338 500 525 579> 290 19<31 124 145 239>
VStem: 125 20<309 598> 501 24<23 106 133 330>
DStem: 131 626 125 599 27 553 39 538 404 632 436 622 197 5 229 -5 507 377 501 331 301 127 337 132
Fore
197 5 m 1
 404 632 l 1
 436 622 l 1
 229 -5 l 1
 197 5 l 1
501 331 m 1
 337 132 l 1
 501 132 l 1
 501 331 l 1
525 132 m 1
 580 132 l 1
 580 107 l 1
 525 107 l 1
 525 23 l 1
 585 23 l 1
 585 0 l 1
 441 0 l 1
 441 23 l 1
 501 23 l 1
 501 107 l 1
 301 107 l 1
 301 127 l 1
 507 377 l 1
 525 377 l 1
 525 132 l 1
30 309 m 1
 125 309 l 1
 125 599 l 1
 39 538 l 1
 27 553 l 1
 131 626 l 1
 145 626 l 1
 145 309 l 1
 240 309 l 1
 240 290 l 1
 145 290 l 1
 125 290 l 1
 30 290 l 1
 30 309 l 1
EndSplineSet
MinimumDistance: x12,-1 x27,29 y29,27 y29,28 x20,7 y7,20 y7,21 y19,17 x17,19 x17,18 x16,14 x16,15 x11,13 x11,12 x7,9 x7,8 x29,31 x29,30 x23,34 x23,22 
EndChar
StartChar: onehalf
Encoding: 189 189
Width: 600
HStem: 0 20<405 561> 0 73<562 581> 290 19<31 124 145 239> 314 22<475 491>
VStem: 125 20<309 598> 382 22<21 59> 561 21<21 72 243 258>
DStem: 131 626 125 599 27 553 39 538 404 632 436 623 197 5 229 -5
Fore
197 5 m 1
 404 632 l 1
 436 623 l 1
 229 -5 l 1
 197 5 l 1
30 309 m 1
 125 309 l 1
 125 599 l 1
 39 538 l 1
 27 553 l 1
 131 626 l 1
 145 626 l 1
 145 309 l 1
 240 309 l 1
 240 290 l 1
 145 290 l 1
 125 290 l 1
 30 290 l 1
 30 309 l 1
374 216 m 1
 374 244 l 1
 387 290 414 336 484 336 c 0
 532 336 582 311 582 256 c 0
 582 190 530 165 483 135 c 0
 448 112 404 97 404 48 c 2
 404 20 l 1
 561 20 l 1
 561 73 l 1
 582 73 l 1
 582 0 l 1
 382 0 l 1
 382 48 l 2
 382 128 484 149 534 198 c 0
 550 213 560 230 560 256 c 0
 560 291 527 314 481 314 c 0
 418 314 396 266 396 216 c 1
 374 216 l 1
EndSplineSet
MinimumDistance: x20,-1 x9,11 y11,9 y11,10 y24,26 y24,25 x11,13 x11,12 x5,16 x5,4 
EndChar
StartChar: threequarters
Encoding: 190 190
Width: 600
HStem: 0 23<442 500 526 584> 107 25<338 500 525 579> 291 22<125 141> 468 22<132 173> 606 23<130 157>
VStem: 227 23<379 395 539 553> 501 24<23 106 133 330>
DStem: 401 632 433 623 194 5 226 -5 507 377 501 331 301 127 337 132
Fore
194 5 m 1
 401 632 l 1
 433 623 l 1
 226 -5 l 1
 194 5 l 1
501 331 m 1
 337 132 l 1
 501 132 l 1
 501 331 l 1
525 132 m 1
 580 132 l 1
 580 107 l 1
 525 107 l 1
 525 23 l 1
 585 23 l 1
 585 0 l 1
 441 0 l 1
 441 23 l 1
 501 23 l 1
 501 107 l 1
 301 107 l 1
 301 127 l 1
 507 377 l 1
 525 377 l 1
 525 132 l 1
207 477 m 1
 238 458 250 422 250 390 c 0
 250 330 193 291 134 291 c 0
 81 291 57 321 32 349 c 1
 48 364 l 1
 73 337 91 313 134 313 c 0
 182 313 227 343 227 390 c 0
 227 432 201 468 171 468 c 2
 131 468 l 1
 131 490 l 1
 171 490 l 2
 204 490 228 514 228 542 c 0
 228 582 193 606 139 606 c 0
 96 606 65 578 48 553 c 1
 29 566 l 1
 50 595 87 629 139 629 c 0
 203 629 250 597 250 542 c 0
 250 515 235 491 207 477 c 1
EndSplineSet
MinimumDistance: x12,-1 x20,7 y7,20 y7,21 y19,17 x17,19 x17,18 x16,14 x16,15 x11,13 x11,12 x7,9 x7,8 
EndChar
StartChar: questiondown
Encoding: 191 191
Width: 600
HStem: -16 37<224 257> 442 124<224 246>
VStem: 64 37<112 128> 218 37<336 402> 381 37<96 118>
Fore
255 403 m 1
 255 345 l 2
 255 248 101 224 101 119 c 0
 101 53 174 21 245 21 c 0
 314 21 381 49 381 101 c 2
 381 119 l 1
 418 119 l 1
 418 101 l 2
 418 24 333 -16 246 -16 c 0
 156 -16 64 28 64 119 c 0
 64 238 218 272 218 345 c 2
 218 403 l 1
 255 403 l 1
305 504 m 0
 305 470 273 442 234 442 c 0
 195 442 163 470 163 504 c 0
 163 538 195 566 234 566 c 0
 273 566 305 538 305 504 c 0
EndSplineSet
MinimumDistance: x6,-1 
EndChar
StartChar: AE
Encoding: 198 198
Width: 600
HStem: 0 34<25 103 143 236 350 531> 0 121<543 565> 246 37<230 311> 321 34<350 452> 528 34<118 275 350 531>
VStem: 24 213<1 34> 312 37<35 245 284 320 356 520> 452 34<260 320 356 401>
DStem: 276 528 312 521 103 34 229 283 276 528 216 246 103 34 142 34 531 528 565 562 540 447 574 447 543 121 577 121 531 34 565 0
Fore
312 283 m 1
 312 521 l 1
 229 283 l 1
 312 283 l 1
486 402 m 1
 486 259 l 1
 452 259 l 1
 452 321 l 1
 349 321 l 1
 349 34 l 1
 531 34 l 1
 543 121 l 1
 577 121 l 1
 565 0 l 1
 312 0 l 1
 312 246 l 1
 216 246 l 1
 142 34 l 1
 237 34 l 1
 237 0 l 1
 24 0 l 1
 24 34 l 1
 103 34 l 1
 276 528 l 1
 117 528 l 1
 117 562 l 1
 565 562 l 1
 574 447 l 1
 540 447 l 1
 531 528 l 1
 349 528 l 1
 349 355 l 1
 452 355 l 1
 452 402 l 1
 486 402 l 1
EndSplineSet
MinimumDistance: x11,-1 y31,3 y31,32 y6,4 y6,5 x12,14 y14,12 y14,13 
EndChar
StartChar: Eth
Encoding: 208 208
Width: 600
HStem: 0 34<53 147 186 356> 282 34<83 147 186 253> 528 34<53 147 186 356>
VStem: 148 37<35 282 316 527> 513 35<272 288>
Fore
185 34 m 1
 347 34 l 2
 434 34 513 165 513 284 c 0
 513 361 460 528 347 528 c 2
 185 528 l 1
 185 316 l 1
 254 316 l 1
 254 282 l 1
 185 282 l 1
 185 34 l 1
52 34 m 1
 148 34 l 1
 148 282 l 1
 82 282 l 1
 82 316 l 1
 148 316 l 1
 148 528 l 1
 52 528 l 1
 52 562 l 1
 347 562 l 2
 490 562 548 379 548 286 c 0
 548 193 496 0 347 0 c 2
 52 0 l 1
 52 34 l 1
EndSplineSet
MinimumDistance: x19,-1 x15,17 x15,16 x11,13 x11,12 x10,21 x10,9 x5,7 x5,6 
EndChar
StartChar: multiply
Encoding: 215 215
Width: 600
DStem: 188 357 212 381 276 269 300 293 276 269 300 245 188 181 212 157 300 245 324 269 388 157 412 181 388 381 412 357 300 293 324 269
Fore
412 357 m 1
 324 269 l 1
 412 181 l 1
 388 157 l 1
 300 245 l 1
 212 157 l 1
 188 181 l 1
 276 269 l 1
 188 357 l 1
 212 381 l 1
 300 293 l 1
 388 381 l 1
 412 357 l 1
EndSplineSet
MinimumDistance: x0,-1 
EndChar
StartChar: Oslash
Encoding: 216 216
Width: 600
HStem: -2 37<286 318> 527 37<286 302>
VStem: 62 37<260 292> 501 37<260 292>
DStem: 135 78 159 53 75 -8 103 -28 415 482 440 457 157 109 180 84 493 594 521 574 437 512 462 489
Fore
300 564 m 0
 351 564 398 545 437 512 c 1
 493 594 l 1
 521 574 l 1
 462 489 l 1
 509 436 538 362 538 281 c 0
 538 128 435 -2 300 -2 c 0
 247 -2 198 19 159 53 c 1
 103 -28 l 1
 75 -8 l 1
 135 78 l 1
 90 130 62 202 62 281 c 0
 62 434 165 564 300 564 c 0
180 84 m 1
 214 53 256 35 300 35 c 0
 408 35 501 142 501 281 c 0
 501 351 477 413 440 457 c 1
 180 84 l 1
300 527 m 0
 192 527 99 420 99 281 c 0
 99 213 121 153 157 109 c 1
 415 482 l 1
 382 510 342 527 300 527 c 0
EndSplineSet
MinimumDistance: x5,-1 
EndChar
StartChar: Thorn
Encoding: 222 222
Width: 600
HStem: 0 34<54 148 187 281> 201 34<187 405> 438 34<187 405> 528 34<54 148 188 282>
VStem: 149 37<34 201 236 437 472 527> 523 34<320 352>
Fore
186 235 m 1
 386 235 l 2
 434 235 523 243 523 336 c 0
 523 435 441 438 386 438 c 2
 186 438 l 1
 186 235 l 1
53 34 m 1
 149 34 l 1
 149 528 l 1
 53 528 l 1
 53 562 l 1
 283 562 l 1
 283 526 l 1
 187 526 l 1
 187 472 l 1
 386 472 l 2
 454 472 557 459 557 336 c 0
 557 219 447 201 386 201 c 2
 186 201 l 1
 186 34 l 1
 282 34 l 1
 282 0 l 1
 53 0 l 1
 53 34 l 1
EndSplineSet
MinimumDistance: x15,-1 x18,20 x18,19 y14,17 y16,13 x13,16 x13,14 y10,12 x12,10 x12,11 x7,9 x7,8 x6,21 x6,5 
EndChar
StartChar: germandbls
Encoding: 223 223
Width: 600
HStem: -12 128<243 253> 0 34<34 106> 392 34<34 106> 593 37<305 321>
VStem: 33 110<0.250326 34 392 426> 106 36<34 392 426 507> 221 37<312.861 327> 458 46<489.219 507> 535 37<100.985 118>
Fore
318 630 m 0
 419 630 504 561 504 499 c 0
 504 467 477 419 396 409 c 0
 322 399 258 365 258 325 c 0
 258 195 572 269 572 112 c 0
 572 37 481 -5 393 -5 c 0
 351 -5 311 8 280 28 c 0
 273 33 271 30 269 23 c 0
 264 10 259 -2 253 -12 c 1
 219 -12 l 1
 219 -12 229 10 234 21 c 0
 239 32 243 50 243 60 c 0
 243 72 227 107 219 116 c 1
 254 116 l 1
 254 116 266 96 267 94 c 0
 292 59 338 32 394 32 c 0
 469 32 535 59 535 112 c 0
 535 234 221 158 221 325 c 0
 221 406 316 432 397 446 c 0
 441 454 458 475 458 499 c 0
 458 542 397 593 317 593 c 0
 244 593 142 563 142 505 c 0
 142 237 143 174 143 0 c 1
 33 0 l 1
 33 34 l 1
 106 34 l 1
 106 392 l 1
 33 392 l 1
 33 426 l 1
 106 426 l 1
 106 505 l 2
 106 598 228 630 318 630 c 0
EndSplineSet
MinimumDistance: x4,-1 x26,28 x26,27 x25,23 x25,24 
EndChar
StartChar: ae
Encoding: 230 230
Width: 600
HStem: -14 37<160 179> 0 37<432 451> 213 34<322 541> 266 37<147 179> 390 37<419 451> 400 37<159 179>
VStem: 19 44<130 162> 284 37<194 213>
Fore
542 247 m 1
 536 324 523 390 433 390 c 0
 344 390 324 305 321 247 c 1
 542 247 l 1
284 239 m 1
 255 247 223 266 160 266 c 0
 92 266 63 203 63 143 c 0
 63 85 103 23 175 23 c 0
 226 23 248 57 284 110 c 1
 284 239 l 1
310 79 m 1
 272 27 249 -14 175 -14 c 0
 86 -14 19 40 19 143 c 0
 19 241 71 303 160 303 c 0
 219 303 243 288 284 277 c 1
 284 294 l 2
 284 345 266 400 173 400 c 0
 125 400 96 384 55 358 c 1
 41 392 l 1
 60 408 131 437 173 437 c 0
 249 437 293 405 311 354 c 1
 334 399 372 427 433 427 c 0
 553 427 581 335 581 213 c 1
 321 213 l 1
 321 116 354 37 443 37 c 0
 501 37 521 69 545 97 c 1
 568 69 l 1
 546 42 509 0 443 0 c 0
 375 0 333 31 310 79 c 1
EndSplineSet
MinimumDistance: x2,-1 
EndChar
StartChar: eth
Encoding: 240 240
Width: 600
HStem: -1 37<277 309> 390 37<277 309>
VStem: 69 37<207 223> 482 37<207 223>
DStem: 292 553 320 530 220 505 238 477 402 625 420 597 325 574 352 552
Fore
294 390 m 0
 189 390 106 310 106 213 c 0
 106 116 189 36 294 36 c 0
 399 36 482 116 482 213 c 0
 482 310 399 390 294 390 c 0
439 376 m 1
 409 436 366 490 320 530 c 1
 238 477 l 1
 220 505 l 1
 292 553 l 1
 268 570 244 583 221 590 c 1
 233 626 l 1
 263 616 294 598 325 574 c 1
 402 625 l 1
 420 597 l 1
 352 552 l 1
 442 470 519 339 519 215 c 2
 519 213 l 2
 519 94 417 -1 294 -1 c 0
 171 -1 69 94 69 213 c 0
 69 332 171 427 294 427 c 0
 349 427 400 407 439 376 c 1
EndSplineSet
MinimumDistance: x15,-1 
EndChar
StartChar: divide
Encoding: 247 247
Width: 600
HStem: 144 56<269 272> 253 37<78 461> 342 56<269 272>
VStem: 242 56<171 176 368 372>
Fore
242 370 m 0
 242 385 255 398 270 398 c 0
 285 398 298 385 298 370 c 0
 298 355 285 342 270 342 c 0
 255 342 242 355 242 370 c 0
242 172 m 0
 242 187 255 200 270 200 c 0
 285 200 298 187 298 172 c 0
 298 157 285 144 270 144 c 0
 255 144 242 157 242 172 c 0
77 290 m 1
 462 290 l 1
 462 253 l 1
 77 253 l 1
 77 290 l 1
EndSplineSet
MinimumDistance: x2,-1 
EndChar
StartChar: oslash
Encoding: 248 248
Width: 600
HStem: -1 37<283 315> 390 37<283 315>
VStem: 75 37<195 227> 488 37<195 227>
DStem: 142 61 168 40 82 -7 108 -29 404 360 431 339 166 89 193 68 487 455 513 433 428 388 455 367
Fore
300 427 m 0
 348 427 392 412 428 388 c 1
 487 455 l 1
 513 433 l 1
 455 367 l 1
 498 328 525 274 525 213 c 0
 525 94 423 -1 300 -1 c 0
 251 -1 206 14 168 40 c 1
 108 -29 l 1
 82 -7 l 1
 142 61 l 1
 101 100 75 153 75 213 c 0
 75 332 177 427 300 427 c 0
193 68 m 1
 223 48 260 36 300 36 c 0
 405 36 488 116 488 213 c 0
 488 262 466 307 431 339 c 1
 193 68 l 1
300 390 m 0
 195 390 112 310 112 213 c 0
 112 165 133 121 166 89 c 1
 404 360 l 1
 374 379 339 390 300 390 c 0
EndSplineSet
MinimumDistance: x5,-1 
EndChar
StartChar: thorn
Encoding: 254 254
Width: 600
HStem: -180 34<41 118 157 278> -1 37<323 355> 390 37<339 355>
VStem: 119 37<-146 95 204 220 331 590> 531 37<204 220>
Fore
343 36 m 24
 446 36 531 116 531 213 c 0
 531 310 448 390 344 390 c 0
 245 390 156 316 156 213 c 24
 156 110 240 36 343 36 c 24
119 -146 m 1
 119 -146 119 345 119 590 c 1
 41 575 l 1
 35 609 l 1
 156 632 l 1
 156 331 l 1
 197 389 266 427 343 427 c 0
 467 427 568 332 568 213 c 0
 568 94 467 -1 344 -1 c 0
 266 -1 197 37 156 95 c 1
 156 -146 l 1
 279 -146 l 1
 279 -180 l 1
 40 -180 l 1
 40 -146 l 1
 119 -146 l 1
EndSplineSet
MinimumDistance: x11,-1 x14,16 x14,15 x4,17 x4,18 
EndChar
StartChar: Dcroat
Encoding: 272 272
Width: 600
HStem: 0 34<53 147 186 356> 282 34<83 147 186 253> 528 34<53 147 186 356>
VStem: 148 37<35 282 316 527> 513 35<272 288>
Fore
185 34 m 1
 347 34 l 2
 434 34 513 165 513 284 c 0
 513 361 460 528 347 528 c 2
 185 528 l 1
 185 316 l 1
 254 316 l 1
 254 282 l 1
 185 282 l 1
 185 34 l 1
52 34 m 1
 148 34 l 1
 148 282 l 1
 82 282 l 1
 82 316 l 1
 148 316 l 1
 148 528 l 1
 52 528 l 1
 52 562 l 1
 347 562 l 2
 490 562 548 386 548 286 c 0
 548 193 496 0 347 0 c 2
 52 0 l 1
 52 34 l 1
EndSplineSet
MinimumDistance: x19,-1 x15,17 x15,16 x11,13 x11,12 x10,21 x10,9 x5,7 x5,6 
EndChar
StartChar: dcroat
Encoding: 273 273
Width: 600
HStem: -1 37<261 293 502 580> 0 21G<464 581> 390 37<261 293> 461 34<368 463 501 583>
VStem: 53 37<207 223> 464 37<34 94 207 223 333 461 495 588> 464 117<1 33>
Fore
278 390 m 0
 173 390 90 310 90 213 c 0
 90 116 173 36 277 36 c 0
 376 36 464 111 464 213 c 0
 464 315 376 390 278 390 c 0
464 332 m 1
 464 461 l 1
 367 461 l 1
 367 495 l 1
 464 495 l 1
 464 589 l 1
 304 559 l 1
 304 593 l 1
 501 632 l 1
 501 495 l 1
 584 495 l 1
 584 461 l 1
 501 461 l 1
 501 34 l 1
 581 34 l 1
 581 0 l 1
 464 0 l 1
 464 95 l 1
 423 37 355 -1 278 -1 c 0
 154 -1 53 94 53 213 c 0
 53 332 154 427 277 427 c 0
 355 427 423 390 464 332 c 1
EndSplineSet
MinimumDistance: x14,-1 y19,17 x17,19 x17,18 x13,15 x13,14 x5,7 x5,6 
EndChar
StartChar: Hbar
Encoding: 294 294
Width: 600
HStem: 0 34<32 126 165 260 339 436 475 567> 283 37<165 436> 406 34<63 126 165 436 475 550> 528 34<32 126 165 260 340 436 475 568>
VStem: 127 37<35 282 321 406 442 527> 437 37<34 282 321 406 442 528>
Fore
437 441 m 1
 437 528 l 1
 339 528 l 1
 339 562 l 1
 569 562 l 1
 569 528 l 1
 474 528 l 1
 474 441 l 1
 551 441 l 1
 551 407 l 1
 474 407 l 1
 474 34 l 1
 568 34 l 1
 568 0 l 1
 338 0 l 1
 338 34 l 1
 437 34 l 1
 437 283 l 1
 164 283 l 1
 164 34 l 1
 261 34 l 1
 261 0 l 1
 31 0 l 1
 31 34 l 1
 127 34 l 1
 127 406 l 1
 62 406 l 1
 62 440 l 1
 127 440 l 1
 127 528 l 1
 31 528 l 1
 31 562 l 1
 261 562 l 1
 261 528 l 1
 164 528 l 1
 164 441 l 1
 437 441 l 1
164 320 m 1
 437 320 l 1
 437 407 l 1
 164 407 l 1
 164 320 l 1
EndSplineSet
MinimumDistance: x4,-1 x16,14 x16,15 x11,13 x11,12 y8,10 y9,7 x7,9 x7,8 x6,4 x6,5 x1,3 x1,2 x34,32 x34,33 x29,31 x29,30 x25,27 x25,26 x24,22 x24,23 x19,21 x19,20 
EndChar
StartChar: hbar
Encoding: 295 295
Width: 600
HStem: 0 34<23 108 145 229 369 454 491 575> 403 37<310 326> 483 34<30 108 147 226>
VStem: 109 36<35 332 377 482 518 589> 455 36<34 304>
Fore
146 376 m 1
 192 402 250 440 321 440 c 8
 410 440 491 363 491 296 c 2
 491 34 l 1
 576 34 l 1
 576 0 l 1
 368 0 l 1
 368 34 l 1
 455 34 l 1
 455 296 l 2
 455 337 389 403 321 403 c 0
 269 403 192 363 145 332 c 1
 145 34 l 1
 230 34 l 1
 230 0 l 1
 22 0 l 1
 22 34 l 1
 109 34 l 1
 109 483 l 1
 29 483 l 1
 29 517 l 1
 109 517 l 1
 109 590 l 1
 22 567 l 1
 22 601 l 1
 145 632 l 1
 145 517 l 1
 227 517 l 1
 227 483 l 1
 146 483 l 1
 146 376 l 1
EndSplineSet
MinimumDistance: x4,-1 x8,6 x8,7 x3,5 x3,4 x29,28 x29,27 x18,20 x18,19 x17,15 x17,16 x12,14 x12,13 
EndChar
StartChar: dotlessi
Encoding: 305 305
Width: 600
HStem: 0 34<104 288 326 498> 392 34<104 288>
VStem: 289 37<35 391>
Fore
289 392 m 1
 103 392 l 1
 103 426 l 1
 326 426 l 1
 326 34 l 1
 499 34 l 1
 499 0 l 1
 103 0 l 1
 103 34 l 1
 289 34 l 1
 289 392 l 1
EndSplineSet
MinimumDistance: x5,-1 x2,4 y4,2 y4,3 x9,7 x9,8 x4,6 x4,5 x0,2 x0,1 
EndChar
StartChar: IJ
Encoding: 306 306
Width: 600
HStem: 0 34<36 131 170 264 403 419> 528 34<37 131 170 265 340 512 550 645>
VStem: 132 37<34 528> 279 37<159 226> 513 37<127.67 528>
Fore
132 528 m 1
 36 528 l 1
 36 562 l 1
 266 562 l 1
 266 528 l 1
 169 528 l 1
 169 34 l 1
 265 34 l 1
 265 0 l 1
 35 0 l 1
 35 34 l 1
 132 34 l 1
 132 528 l 1
316 227 m 1
 316 155 305 36 414 36 c 0
 489 36 513 101 513 143 c 2
 513 528 l 1
 339 528 l 1
 339 562 l 1
 646 562 l 1
 646 528 l 1
 550 528 l 1
 550 143 l 2
 550 93 520 -1 414 -1 c 0
 318 -1 279 87 279 143 c 2
 279 227 l 1
 316 227 l 1
EndSplineSet
MinimumDistance: x23,20 y20,23 y20,21 x20,18 x20,19 x15,17 x15,16 x11,9 x11,10 x6,8 x6,7 x5,3 x5,4 x0,2 x0,1 
Ligature: I J
EndChar
StartChar: ij
Encoding: 307 307
Width: 600
HStem: -197 37<396 412> 0 34<61 245 283 455> 392 34<61 245 378 507> 465 97<210 282 471 543>
VStem: 246 37<35 391> 470 74<466 561> 508 37<-37 391>
Fore
246 392 m 1
 60 392 l 1
 60 426 l 1
 283 426 l 1
 283 34 l 1
 456 34 l 1
 456 0 l 1
 60 0 l 1
 60 34 l 1
 246 34 l 1
 246 392 l 1
283 562 m 1
 283 465 l 1
 209 465 l 1
 209 562 l 1
 283 562 l 1
544 562 m 1
 544 465 l 1
 470 465 l 1
 470 562 l 1
 544 562 l 1
294 -134 m 1
 313 -147 359 -160 403 -160 c 0
 461 -160 508 -87 508 -31 c 2
 508 392 l 1
 377 392 l 1
 377 426 l 1
 545 426 l 1
 545 -31 l 2
 545 -97 491 -197 403 -197 c 0
 347 -197 299 -182 278 -167 c 1
 294 -134 l 1
EndSplineSet
MinimumDistance: x14,-1 x2,4 y4,2 y4,3 x21,23 x21,22 x9,7 x9,8 x4,6 x4,5 x0,2 x0,1 
Ligature: i j
EndChar
StartChar: kgreenlandic
Encoding: 312 312
Width: 600
HStem: 0 34<62 142 180 269 421 538> 392 34<62 142 180 226 301 341 388 508>
VStem: 143 36<34 191 240 392> 300 209<392 425>
Fore
300 426 m 1
 509 426 l 1
 509 392 l 1
 388 392 l 1
 328 302 294 296 232 237 c 1
 300 208 367 132 421 34 c 1
 539 34 l 1
 539 0 l 1
 400 0 l 1
 351 89 264 182 199 207 c 1
 192 201 186 196 179 191 c 1
 179 34 l 1
 270 34 l 1
 270 0 l 1
 61 0 l 1
 61 34 l 1
 143 34 l 1
 143 392 l 1
 61 392 l 1
 61 426 l 1
 227 426 l 1
 227 392 l 1
 179 392 l 1
 179 239 l 1
 240 292 276 296 342 392 c 1
 300 392 l 1
 300 426 l 1
EndSplineSet
MinimumDistance: x1,-1 x22,20 x22,21 x17,19 x17,18 x16,14 x16,15 x11,13 x11,12 
EndChar
StartChar: Lslash
Encoding: 321 321
Width: 600
HStem: 0 34<99 182 221 467> 528 34<100 182 221 306>
VStem: 183 37<35 276 338 528>
DStem: 183 316 183 277 107 273 107 234 361 416 361 377 220 337 220 298 494 229 528 229 467 34 502 0
Fore
183 528 m 1
 99 528 l 1
 99 562 l 1
 307 562 l 1
 307 528 l 1
 220 528 l 1
 220 337 l 1
 361 416 l 1
 361 377 l 1
 220 298 l 1
 220 34 l 1
 467 34 l 1
 494 229 l 1
 528 229 l 1
 502 0 l 1
 98 0 l 1
 98 34 l 1
 183 34 l 1
 183 277 l 1
 107 234 l 1
 107 273 l 1
 183 316 l 1
 183 528 l 1
EndSplineSet
MinimumDistance: x13,-1 x17,15 x17,16 x5,3 x5,4 x0,2 x0,1 
EndChar
StartChar: lslash
Encoding: 322 322
Width: 600
HStem: 0 34<93 254 293 507>
VStem: 255 37<35 278 339 588>
DStem: 292 632 255 589 92 583 92 549 448 426 448 387 292 338 292 300
Fore
194 283 m 1
 255 317 l 1
 255 589 l 1
 92 549 l 1
 92 583 l 1
 292 632 l 1
 292 338 l 1
 448 426 l 1
 448 387 l 1
 292 300 l 1
 292 34 l 1
 508 34 l 1
 508 0 l 1
 92 0 l 1
 92 34 l 1
 255 34 l 1
 255 279 l 1
 194 244 l 1
 194 283 l 1
EndSplineSet
MinimumDistance: x11,-1 x15,13 x15,14 x10,12 x10,11 
EndChar
StartChar: napostrophe
Encoding: 329 329
Width: 600
HStem: 0 34<23 108 146 229 369 454 491 575> 392 34<23 108> 403 37<310 326>
VStem: 109 36<35 332 376 392> 455 36<34 304>
Fore
404 707 m 1
 287 534 l 1
 247 534 l 1
 325 707 l 1
 404 707 l 1
EndSplineSet
Ref: 110 S 1 0 0 1 0 0
EndChar
StartChar: Eng
Encoding: 330 330
Width: 600
HStem: -191 37<393 412> 0 34<10 55 93 195> 528 34<10 55 93 94 404 507 545 590>
VStem: 56 36<34 527> 274 37<-48 -1> 508 37<-62.3304 -7 55 528>
DStem: 94 528 115 562 508 -7 508 54
Fore
311 0 m 1
 311 -44 300 -154 409 -154 c 0
 484 -154 508 -89 508 -47 c 2
 508 -7 l 1
 94 528 l 1
 92 528 l 1
 92 34 l 1
 196 34 l 1
 196 0 l 1
 9 0 l 1
 9 34 l 1
 56 34 l 1
 56 528 l 1
 9 528 l 1
 9 562 l 1
 115 562 l 1
 508 54 l 1
 508 528 l 1
 403 528 l 1
 403 562 l 1
 591 562 l 1
 591 528 l 1
 545 528 l 1
 545 -47 l 2
 545 -97 515 -191 410 -191 c 0
 313 -191 274 -103 274 -47 c 2
 274 0 l 1
 311 0 l 1
EndSplineSet
MinimumDistance: x20,-1 x25,22 y22,25 y22,23 x22,20 x22,21 x17,19 x17,18 x12,14 x12,13 x11,9 x11,10 x6,8 x6,7 
EndChar
StartChar: eng
Encoding: 331 331
Width: 600
HStem: -197 37<342 358> 0 34<23 108 146 229> 392 34<23 108> 403 37<310 326>
VStem: 109 36<35 332 377 391> 455 37<-37 299>
Fore
241 -134 m 1
 260 -147 306 -160 350 -160 c 0
 408 -160 455 -91 455 -31 c 0
 455 296 l 0
 455 337 389 403 321 403 c 0
 269 403 192 363 145 332 c 1
 145 34 l 1
 230 34 l 1
 230 0 l 1
 22 0 l 1
 22 34 l 1
 109 34 l 1
 109 392 l 1
 22 392 l 1
 22 426 l 1
 145 426 l 1
 145 376 l 1
 156 382 170 390 184 397 c 0
 223 418 275 440 321 440 c 0
 404 440 492 363 492 296 c 0
 492 -31 l 0
 492 -106 438 -197 351 -197 c 0
 294 -197 247 -182 225 -167 c 1
 241 -134 l 1
EndSplineSet
MinimumDistance: x19,-1 x12,14 x12,13 x11,9 x11,10 x6,8 x6,7 
EndChar
StartChar: OE
Encoding: 338 338
Width: 600
HStem: 0 34<307 526> 0 37<256 269> 0 121<538 560> 321 34<308 447> 528 34<308 526>
VStem: 32 37<258 304> 270 37<38 320 356 524> 447 34<260 320 356 401>
DStem: 526 528 560 562 535 447 569 447 538 121 572 121 526 34 560 0
Fore
270 37 m 1
 270 525 l 1
 162 525 69 420 69 281 c 0
 69 142 162 37 270 37 c 1
481 402 m 1
 481 259 l 1
 447 259 l 1
 447 321 l 1
 307 321 l 1
 307 34 l 1
 526 34 l 1
 538 121 l 1
 572 121 l 1
 560 0 l 1
 560 0 364 0 270 0 c 0
 136 0 32 128 32 281 c 0
 32 434 136 562 270 562 c 2
 560 562 l 1
 569 447 l 1
 535 447 l 1
 526 528 l 1
 307 528 l 1
 307 355 l 1
 447 355 l 1
 447 402 l 1
 481 402 l 1
EndSplineSet
MinimumDistance: x11,-1 y22,3 y22,23 y6,4 y6,5 
EndChar
StartChar: oe
Encoding: 339 339
Width: 600
HStem: -2 37<160.321 175 442 463> 213 34<332 550> 391 37<160.321 175 431 455>
VStem: 15 36<190 222> 294 37<206 213>
Fore
551 247 m 1
 546 324 532 390 443 390 c 0
 354 390 334 305 331 247 c 1
 551 247 l 1
173 428 m 0
 233 428 282 384 308 322 c 1
 327 385 368 427 443 427 c 0
 563 427 591 335 591 213 c 1
 331 213 l 1
 331 116 364 37 453 37 c 0
 511 37 531 69 555 97 c 1
 578 69 l 1
 556 42 519 0 453 0 c 0
 373 0 329 42 309 106 c 1
 283 43 233 -2 173 -2 c 0
 81 -2 15 100 15 213 c 0
 15 326 81 428 173 428 c 0
173 391 m 0
 110 391 51 317 51 213 c 0
 51 109 110 35 173 35 c 0
 235 35 294 127 294 213 c 24
 294 299 240 391 173 391 c 0
EndSplineSet
MinimumDistance: x2,-1 
EndChar
StartChar: Tbar
Encoding: 358 358
Width: 600
HStem: 0 34<135 281 319 466> 282 34<181 281 319 419> 528 34<89 281 319 512>
VStem: 282 36<35 282 316 527>
DStem: 54 562 89 528 44 358 79 358 512 528 545 562 522 358 556 358
Fore
522 358 m 1
 512 528 l 1
 318 528 l 1
 318 316 l 1
 420 316 l 1
 420 282 l 1
 318 282 l 1
 318 34 l 1
 467 34 l 1
 467 0 l 1
 134 0 l 1
 134 34 l 1
 282 34 l 1
 282 282 l 1
 180 282 l 1
 180 316 l 1
 282 316 l 1
 282 528 l 1
 89 528 l 1
 79 358 l 1
 44 358 l 1
 54 562 l 1
 545 562 l 1
 556 358 l 1
 522 358 l 1
EndSplineSet
MinimumDistance: x23,-1 x13,15 x13,14 x12,10 x12,11 x7,9 x7,8 x3,5 x3,4 
EndChar
StartChar: tbar
Encoding: 359 359
Width: 600
HStem: -19 37<309 325> 243 34<74 132 169 227> 392 34<54 131 169 419>
VStem: 132 36<132 243 277 391 427 557>
Fore
53 426 m 1
 131 426 l 1
 131 558 l 1
 168 558 l 1
 168 426 l 1
 420 426 l 1
 420 392 l 1
 168 392 l 1
 168 277 l 1
 228 277 l 1
 228 243 l 1
 168 243 l 1
 168 141 l 2
 168 79 239 18 316 18 c 0
 398 18 501 131 503 133 c 1
 531 109 l 1
 482 55 391 -19 316 -19 c 0
 225 -19 132 53 132 141 c 2
 132 243 l 1
 73 243 l 1
 73 277 l 1
 132 277 l 1
 132 392 l 1
 53 392 l 1
 53 426 l 1
EndSplineSet
MinimumDistance: x5,-1 x2,4 x3,1 y1,3 y1,2 x18,20 x18,19 x8,10 x8,9 x4,6 x4,5 x1,23 x1,0 
EndChar
StartChar: longs
Encoding: 383 383
Width: 600
HStem: 0 34<113 184 222 387> 392 34<113 184> 593 37<320 352>
VStem: 185 36<35 391 427 512>
Fore
185 34 m 1
 185 392 l 1
 112 392 l 1
 112 426 l 1
 184 426 l 1
 184 505 l 2
 184 579 268 630 334 630 c 0
 399 630 450 606 482 583 c 1
 460 553 l 1
 434 572 390 593 334 593 c 0
 278 593 221 549 221 505 c 2
 221 34 l 1
 388 34 l 1
 388 0 l 1
 112 0 l 1
 112 34 l 1
 185 34 l 1
EndSplineSet
MinimumDistance: x12,-1 x11,13 x11,12 x4,3 x4,2 x0,14 x0,15 
EndChar
StartChar: uni0180
Encoding: 384 384
Width: 600
HStem: 0 34<40 119 323.004 355> 390 37<339 355> 481 34<42 118 156 238>
VStem: 120 37<35 94 207 223 332 480 516 589> 531 37<207 223>
Fore
344 390 m 0
 245 390 156 315 156 213 c 0
 156 111 245 36 343 36 c 0
 448 36 531 116 531 213 c 0
 531 310 448 390 344 390 c 0
119 590 m 1
 41 575 l 1
 35 609 l 1
 156 632 l 1
 156 515 l 1
 239 515 l 1
 239 481 l 1
 156 481 l 1
 156 331 l 1
 197 389 266 427 343 427 c 0
 467 427 568 332 568 213 c 0
 568 94 467 -1 344 -1 c 0
 266 -1 197 37 157 95 c 1
 157 0 l 1
 39 0 l 1
 39 34 l 1
 120 34 l 1
 120 481 l 1
 41 481 l 1
 41 515 l 1
 119 515 l 1
 119 590 l 1
EndSplineSet
MinimumDistance: x14,-1 x24,23 x24,22 x20,18 x20,19 x8,10 x8,9 
EndChar
StartChar: uni0181
Encoding: 385 385
Width: 600
HStem: 0 34<82 169 208 386> 327 34<208 386> 528 34<83 169 208 386>
VStem: 170 37<35 326 362 527> 479 34<432 448> 484 34<176 192>
Fore
207 361 m 1
 383 361 l 2
 437 361 479 397 479 444 c 0
 479 492 436 528 384 528 c 2
 207 528 l 1
 207 361 l 1
207 34 m 1
 383 34 l 2
 431 34 484 82 484 184 c 0
 484 269 425 327 384 327 c 2
 207 327 l 1
 207 34 l 1
383 562 m 2
 447 562 513 517 513 444 c 0
 513 394 485 358 444 340 c 1
 486 309 518 250 518 184 c 0
 518 72 458 0 384 0 c 2
 81 0 l 1
 81 34 l 1
 170 34 l 1
 170 528 l 1
 82 528 l 2
 64 528 41 521 44 497 c 1
 52 499 58 499 66 498 c 1
 87 492 97 478 97 464 c 0
 97 445 84 426 61 426 c 0
 34 426 12 469 21 507 c 0
 33 554 73 562 97 562 c 2
 383 562 l 2
EndSplineSet
MinimumDistance: x13,-1 x17,15 x17,16 
EndChar
StartChar: uni0182
Encoding: 386 386
Width: 600
HStem: 0 30<66 135 321 353> 347 33<321 353> 532 30<83 135 170 488>
VStem: 136 33<30 84 176 192 295 532> 502 33<176 192>
DStem: 488 532 519 562 502 416 533 416
Fore
336 347 m 0
 248 347 169 280 169 190 c 0
 169 99 248 32 336 32 c 0
 429 32 502 104 502 190 c 0
 502 275 429 347 336 347 c 0
488 532 m 1
 169 532 l 1
 169 295 l 1
 205 346 267 380 336 380 c 0
 445 380 535 295 535 190 c 0
 535 84 445 0 336 0 c 0
 267 0 205 33 169 84 c 1
 169 0 l 1
 65 0 l 1
 65 30 l 1
 136 30 l 1
 136 408 136 532 136 532 c 1
 82 532 l 1
 82 562 l 1
 519 562 l 1
 533 416 l 1
 502 416 l 1
 488 532 l 1
EndSplineSet
MinimumDistance: x8,-1 x15,17 x15,16 x14,12 x14,13 
EndChar
StartChar: uni0183
Encoding: 387 387
Width: 600
HStem: -1 37<308 340> 0 21G<98 135> 390 37<308 340> 598 34<37 97 136 494>
VStem: 98 37<1 94 207 223 332 597> 510 37<207 223>
DStem: 494 598 528 632 510 467 544 467
Fore
322 390 m 0
 223 390 135 315 135 213 c 0
 135 111 223 36 322 36 c 0
 427 36 510 116 510 213 c 0
 510 310 427 390 322 390 c 0
494 598 m 1
 135 598 l 1
 135 331 l 1
 175 389 244 427 322 427 c 0
 445 427 547 332 547 213 c 0
 547 94 445 -1 322 -1 c 0
 244 -1 175 37 135 95 c 1
 135 0 l 1
 98 0 l 1
 98 598 l 1
 36 598 l 1
 36 632 l 1
 528 632 l 1
 544 467 l 1
 510 467 l 1
 494 598 l 1
EndSplineSet
MinimumDistance: x8,-1 y13,11 y13,12 x13,15 x13,14 
EndChar
StartChar: uni0184
Encoding: 388 388
Width: 600
HStem: -1 37<324 356> 0 21G<120 157> 390 37<323.85 356>
VStem: 120 37<1 94 207 223 332 589> 531 37<207 223>
Fore
344 390 m 0
 245 390 156 315 156 213 c 0
 156 111 245 36 343 36 c 0
 448 36 531 116 531 213 c 0
 531 310 448 390 344 390 c 0
120 590 m 1
 42 575 l 1
 36 609 l 1
 157 632 l 1
 156 331 l 1
 197 389 266 427 343 427 c 0
 467 427 568 332 568 213 c 0
 568 94 467 -1 344 -1 c 0
 266 -1 197 37 157 95 c 1
 157 0 l 1
 120 0 l 1
 120 590 l 1
EndSplineSet
MinimumDistance: x10,-1 
EndChar
StartChar: uni0185
Encoding: 389 389
Width: 600
HStem: -1 37<323.018 355> 390 37<339 355>
VStem: 120 37<207 223 331 589.682> 531 37<207 223>
Fore
344 390 m 0
 245 390 157 315 157 213 c 0
 157 111 245 36 343 36 c 0
 448 36 531 116 531 213 c 0
 531 310 448 390 344 390 c 0
119 590 m 1
 41 575 l 1
 35 609 l 1
 156 632 l 1
 156 331 l 1
 197 389 266 427 343 427 c 0
 467 427 568 332 568 213 c 0
 568 94 467 -1 344 -1 c 0
 202 -1 120 94 120 216 c 0
 120 420 119 257 119 590 c 1
EndSplineSet
MinimumDistance: x10,-1 
EndChar
StartChar: uni0186
Encoding: 390 390
Width: 600
HStem: -6 37<277 293> -3 137<120 136> 522 37<277 293>
VStem: 490 37<266 298>
Fore
289 -6 m 0
 229 -6 185 15 164 38 c 1
 156 44 154 47 153 37 c 0
 151 20 145 5 141 -3 c 1
 107 -3 l 1
 111 8 120 45 120 66 c 0
 120 87 109 115 101 134 c 1
 136 134 l 1
 154 71 226 31 289 31 c 0
 397 31 490 138 490 277 c 0
 490 416 397 522 289 522 c 0
 242 522 182 499 149 457 c 1
 118 479 l 1
 156 527 228 559 289 559 c 0
 424 559 527 429 527 277 c 0
 527 124 424 -6 289 -6 c 0
EndSplineSet
MinimumDistance: x14,-1 
EndChar
StartChar: uni0187
Encoding: 391 391
Width: 600
HStem: -2 37<311 327> 426 21G<478 513> 527 37<311 327> 591.79 17.6398<543 551>
VStem: 87 37<270 302> 548 72<556 569>
Fore
461 520 m 0
 463 537 471 553 476 561 c 0
 483 571 500 610 554 610 c 0
 593 610 620 588 620 556 c 0
 620 516 548 519 548 569 c 0
 548 577 550 583 554 590 c 1
 532 599 513 573 507 561 c 0
 503 550 494 513 494 492 c 0
 494 471 505 446 513 426 c 1
 478 426 l 1
 460 489 388 527 325 527 c 0
 217 527 124 420 124 281 c 0
 124 142 217 35 325 35 c 0
 372 35 432 59 465 100 c 1
 496 79 l 1
 458 31 386 -2 325 -2 c 0
 190 -2 87 128 87 281 c 0
 87 434 190 564 325 564 c 0
 385 564 429 543 450 520 c 1
 458 514 461 511 461 520 c 0
EndSplineSet
EndChar
StartChar: uni0188
Encoding: 392 392
Width: 600
HStem: 0 37<293 309> 390 37<277 309> 422.79 17.6445<528 535>
VStem: 69 37<208 224> 533 72<387 400>
Fore
454 377 m 1
 458 392 l 1
 465 402 485 441 539 441 c 0
 578 441 605 419 605 387 c 0
 605 347 533 350 533 400 c 0
 533 408 535 414 539 421 c 1
 517 430 498 404 492 392 c 1
 492 392 482 353 480 336 c 1
 488 325 494 312 499 300 c 1
 464 288 l 1
 434 348 369 390 294 390 c 0
 189 390 106 310 106 213 c 0
 106 116 194 37 303 37 c 0
 348 37 417 63 449 88 c 1
 469 54 l 1
 430 23 358 0 303 0 c 0
 171 0 69 94 69 213 c 0
 69 332 171 427 294 427 c 0
 348 427 400 406 440 375 c 1
 448 370 452 367 454 377 c 1
EndSplineSet
EndChar
StartChar: uni018A
Encoding: 394 394
Width: 600
HStem: 0 34<53 147 186 356> 528 34<53 147 186 356>
VStem: 148 37<35 527> 513 35<272 288>
Fore
185 34 m 1
 347 34 l 2
 434 34 513 165 513 284 c 0
 513 361 460 528 347 528 c 2
 185 528 l 1
 185 34 l 1
347 562 m 2
 490 562 548 379 548 286 c 0
 548 193 496 0 347 0 c 2
 52 0 l 1
 52 34 l 1
 148 34 l 1
 148 528 l 1
 52 528 l 2
 34 528 11 521 14 497 c 1
 22 499 28 499 36 498 c 1
 84 485 72 425 31 425 c 0
 -0 425 -18 469 -9 507 c 0
 3 554 43 562 67 562 c 2
 347 562 l 2
EndSplineSet
MinimumDistance: x6,-1 x10,8 x10,9 
EndChar
StartChar: uni018B
Encoding: 395 395
Width: 600
HStem: 0 32<243 259 451 520> 347 33<243 259> 532 30<98 416 451 503>
VStem: 51 33<176 192> 417 33<30 83 176 192 296 531> 417 104<1 29>
DStem: 67 562 98 532 53 416 84 416
Fore
250 347 m 0
 157 347 84 275 84 190 c 0
 84 104 157 32 250 32 c 0
 338 32 417 99 417 190 c 0
 417 280 338 347 250 347 c 0
98 532 m 1
 84 416 l 1
 53 416 l 1
 67 562 l 1
 504 562 l 1
 504 532 l 1
 450 532 l 1
 450 30 l 1
 521 30 l 1
 521 0 l 1
 417 0 l 1
 417 84 l 1
 381 33 319 0 250 0 c 0
 141 0 51 84 51 190 c 0
 51 295 141 380 250 380 c 0
 319 380 381 346 417 295 c 1
 417 532 l 1
 98 532 l 1
EndSplineSet
MinimumDistance: x12,-1 y13,11 x11,13 x11,12 x10,8 x10,9 
EndChar
StartChar: uni018C
Encoding: 396 396
Width: 600
HStem: -1 37<256 288> 0 21G<460 497> 390 37<256 288> 598 34<101 459 498 558>
VStem: 48 37<207 223> 460 37<1 94 207 223 332 597>
DStem: 67 632 101 598 51 467 85 467
Fore
273 390 m 0
 168 390 85 310 85 213 c 0
 85 116 168 36 273 36 c 0
 372 36 461 111 461 213 c 0
 461 315 372 390 273 390 c 0
101 598 m 1
 85 467 l 1
 51 467 l 1
 67 632 l 1
 559 632 l 1
 559 598 l 1
 497 598 l 1
 497 0 l 1
 460 0 l 1
 460 95 l 1
 420 37 351 -1 273 -1 c 0
 150 -1 48 94 48 213 c 0
 48 332 150 427 273 427 c 0
 351 427 420 389 460 331 c 1
 460 598 l 1
 101 598 l 1
EndSplineSet
MinimumDistance: x8,-1 y10,12 y10,11 x10,8 x10,9 
EndChar
StartChar: uni018D
Encoding: 397 397
Width: 600
HStem: -141 16<211 222> 390 37<283 315>
VStem: 75 37<195 227> 289 20<-81 0> 488 37<195 227>
Fore
300 427 m 0
 423 427 525 332 525 213 c 0
 525 97 428 4 309 0 c 1
 309 -73 l 2
 309 -107 264 -141 218 -141 c 0
 191 -141 151 -130 139 -83 c 0
 130 -45 145 -14 176 -6 c 0
 214 5 229 -66 180 -79 c 0
 173 -80 166 -80 159 -78 c 1
 154 -110 194 -125 220 -125 c 0
 247 -125 289 -108 289 -72 c 2
 289 0 l 1
 171 5 75 98 75 213 c 0
 75 332 177 427 300 427 c 0
300 390 m 24
 197 390 112 310 112 213 c 0
 112 116 195 36 300 36 c 0
 405 36 488 110 488 213 c 24
 488 316 403 390 300 390 c 24
EndSplineSet
MinimumDistance: x1,-1 
EndChar
StartChar: uni018E
Encoding: 398 398
Width: 600
HStem: 0 34<127 398 437 532> 0 115<93 118> 207 34<206 398> 528 34<127 398 437 532>
VStem: 172 34<161 206 242 302> 399 37<35 206 242 527>
DStem: 84 115 118 115 93 0 127 34 93 562 127 528 81 441 115 441
Fore
172 160 m 1
 172 303 l 1
 206 303 l 1
 206 241 l 1
 399 241 l 1
 399 528 l 1
 127 528 l 1
 115 441 l 1
 81 441 l 1
 93 562 l 1
 533 562 l 1
 533 528 l 1
 436 528 l 1
 436 34 l 1
 533 34 l 1
 533 0 l 1
 93 0 l 1
 84 115 l 1
 118 115 l 1
 127 34 l 1
 399 34 l 1
 399 207 l 1
 206 207 l 1
 206 160 l 1
 172 160 l 1
EndSplineSet
MinimumDistance: x10,-1 y22,0 y22,23 y3,1 y3,2 x13,15 x13,14 x12,10 x12,11 
EndChar
StartChar: uni018F
Encoding: 399 399
Width: 600
HStem: -19 37<259 291> 220 37<87 498> 540 37<271 291>
VStem: 507 37<285 317>
Fore
504 257 m 1
 506 274 507 291 507 308 c 0
 507 443 409 540 285 540 c 0
 188 540 126 493 65 412 c 1
 35 434 l 1
 100 521 171 577 285 577 c 0
 431 577 544 463 544 308 c 0
 544 131 459 -19 272 -19 c 0
 138 -19 48 152 48 241 c 2
 48 257 l 1
 504 257 l 1
499 220 m 1
 86 220 l 1
 97 139 175 18 272 18 c 0
 410 18 477 111 499 220 c 1
EndSplineSet
MinimumDistance: x6,-1 
EndChar
StartChar: uni0190
Encoding: 400 400
Width: 600
HStem: -3 37<273 299> 290 34<267 327> 525 37<267 288>
VStem: 139 34<157 173> 144 34<421 429>
Fore
139 167 m 0
 139 233 170 272 212 303 c 1
 171 321 144 377 144 427 c 0
 144 500 217 562 277 562 c 0
 338 562 377 542 398 518 c 1
 406 512 409 510 409 519 c 0
 411 536 417 553 421 562 c 1
 455 562 l 1
 451 551 442 511 442 491 c 0
 442 469 453 442 461 422 c 1
 426 422 l 1
 408 485 340 525 277 525 c 0
 226 525 178 475 178 427 c 0
 178 380 219 324 273 324 c 2
 328 324 l 1
 328 290 l 1
 277 290 l 2
 244 290 173 252 173 167 c 0
 173 65 244 34 286 34 c 0
 334 34 380 57 413 99 c 1
 444 78 l 1
 406 30 348 -3 286 -3 c 0
 225 -3 139 55 139 167 c 0
EndSplineSet
MinimumDistance: x12,-1 
EndChar
StartChar: uni0191
Encoding: 401 401
Width: 600
HStem: -136 16<108 116> 321 34<207 326> 528 34<74 169 208 479>
VStem: 41 72<-99 -86> 170 37<-53.1339 320 356 527> 327 35<260 320 356 401>
DStem: 479 528 514 562 492 403 527 403
Fore
107 -120 m 1
 129 -129 170 -89 170 -69 c 2
 170 528 l 1
 73 528 l 1
 73 562 l 1
 514 562 l 1
 527 403 l 1
 492 403 l 1
 479 528 l 1
 207 528 l 1
 207 355 l 1
 328 355 l 1
 328 402 l 1
 362 402 l 1
 362 259 l 1
 327 259 l 1
 327 321 l 1
 207 321 l 1
 207 -41 l 2
 207 -88 161 -136 107 -136 c 0
 68 -136 41 -118 41 -86 c 0
 41 -44 113 -49 113 -99 c 0
 113 -107 111 -113 107 -120 c 1
EndSplineSet
MinimumDistance: x6,-1 y16,14 y16,15 x13,11 y11,13 y11,12 x2,4 x2,3 
EndChar
StartChar: florin
Encoding: 402 402
Width: 600
HStem: -168 37<89 121> 392 34<149 220 259 507> 593 37<361 377>
VStem: 221 37<-53.2533 392 426 507>
Fore
258 -43 m 2
 258 -117 174 -168 109 -168 c 0
 43 -168 -8 -144 -39 -121 c 1
 -18 -91 l 1
 9 -110 53 -131 108 -131 c 0
 164 -131 221 -87 221 -43 c 2
 221 392 l 1
 148 392 l 1
 148 426 l 1
 221 426 l 1
 221 505 l 2
 221 579 305 630 370 630 c 0
 436 630 487 606 518 583 c 1
 497 553 l 1
 470 572 426 593 371 593 c 0
 315 593 258 549 258 505 c 2
 258 426 l 1
 508 426 l 1
 508 392 l 1
 258 392 l 1
 258 -43 l 2
EndSplineSet
MinimumDistance: x17,-1 x16,18 x16,17 x6,8 x6,7 
EndChar
StartChar: uni0193
Encoding: 403 403
Width: 600
Flags: W
HStem: -2 37<288.895 320> 248 34<376 484> 527 37<304 320> 591.795 17.7358<540 547>
VStem: 80 37<270 302> 375 145<248 281>
Fore
458 520 m 0
 462 537 468 553 473 561 c 0
 479 571 496 610 550 610 c 0
 589 610 616 588 617 556 c 0
 618 516 545 519 545 569 c 0
 545 577 547 583 551 590 c 1
 529 599 509 573 504 561 c 0
 500 550 491 513 491 492 c 0
 491 471 502 443 510 423 c 1
 475 424 l 1
 456 487 381 527 318 527 c 0
 210 527 117 420 117 281 c 0
 117 142 199 35 307 35 c 0
 413 35 480 129 485 248 c 1
 375 248 l 1
 375 282 l 1
 520 282 l 1
 520 248 l 1
 515 109 438 -2 307 -2 c 0
 172 -2 80 128 80 281 c 0
 80 434 184 564 318 564 c 0
 379 564 426 543 446 520 c 0
 452 512 457 516 458 520 c 0
EndSplineSet
MinimumDistance: x16,-1 
EndChar
StartChar: uni0194
Encoding: 404 404
Width: 600
HStem: -165 37<292.596 304> 528 34<14 66 107 208 392 494 535 586>
VStem: 13 196<528 561> 241.327 42.0568<-117 -109> 317.943 37.2419<-117 -109> 391 196<528 561>
DStem: 66 528 106 528 280 -6 301 40 495 528 535 528 301 40 321 -10
Fore
302 -60 m 1
 288 -94 l 2
 277 -121 286 -128 301 -128 c 0
 338 -128 306 -71 302 -60 c 1
391 528 m 1
 391 562 l 1
 587 562 l 1
 587 528 l 1
 535 528 l 1
 321 -10 l 1
 350 -82 l 2
 363 -115 355 -165 301 -165 c 0
 252 -165 231 -128 246 -90 c 2
 280 -6 l 1
 66 528 l 1
 13 528 l 1
 13 562 l 1
 209 562 l 1
 209 528 l 1
 106 528 l 1
 301 40 l 1
 495 528 l 1
 391 528 l 1
EndSplineSet
MinimumDistance: x5,-1 
EndChar
StartChar: uni0195
Encoding: 405 405
Width: 600
HStem: -13 37<438 454> 0 34<23 108 146 229> 392 34<444 527> 403 37<249.735 263>
VStem: 109 36<35 332 377 589> 335 37<115 307> 528 37<130 391>
Fore
372 296 m 0
 372 131 l 0
 372 90 385 24 445 24 c 0
 497 24 528 70 528 144 c 2
 528 392 l 1
 443 392 l 1
 443 426 l 1
 565 426 l 1
 565 131 l 0
 565 32 498 -13 444 -13 c 0
 361 -13 335 64 335 131 c 0
 335 296 l 0
 335 337 329 403 261 403 c 0
 224 403 185 369 145 332 c 1
 145 34 l 1
 230 34 l 1
 230 0 l 1
 22 0 l 1
 22 34 l 1
 109 34 l 1
 109 590 l 1
 22 567 l 1
 22 601 l 1
 146 632 l 1
 146 376 l 1
 172 401 217 440 261 440 c 0
 344 440 372 363 372 296 c 0
EndSplineSet
MinimumDistance: x7,-1 x4,6 x4,5 x19,17 x19,18 x14,16 x14,15 
EndChar
StartChar: uni0196
Encoding: 406 406
Width: 600
HStem: -140 29<393 399>
VStem: 289 37<-14 588>
DStem: 326 632 289 589 127 583 127 549
Fore
326 -13 m 0
 326 -51 357 -111 394 -111 c 0
 413 -111 444 -101 454 -83 c 1
 450 -76 444 -63 444 -55 c 0
 444 18 518 21 516 -42 c 0
 515 -74 448 -140 395 -140 c 0
 351 -140 289 -97 289 0 c 0
 289 589 l 1
 127 549 l 1
 127 583 l 1
 326 632 l 1
 326 632 326 508 326 -13 c 0
EndSplineSet
MinimumDistance: x0,-1 
EndChar
StartChar: uni0197
Encoding: 407 407
Width: 600
HStem: 0 34<90 284 322 509> 296 34<187 284 322 422> 528 34<91 284 322 510>
VStem: 285 36<35 296 330 527>
Fore
285 528 m 1
 90 528 l 1
 90 562 l 1
 511 562 l 1
 511 528 l 1
 321 528 l 1
 321 330 l 1
 423 330 l 1
 423 296 l 1
 321 296 l 1
 321 34 l 1
 510 34 l 1
 510 0 l 1
 89 0 l 1
 89 34 l 1
 285 34 l 1
 285 296 l 1
 186 296 l 1
 186 330 l 1
 285 330 l 1
 285 528 l 1
EndSplineSet
MinimumDistance: x3,-1 x16,18 x16,17 x15,13 x15,14 x10,12 x10,11 x6,8 x6,7 x5,3 x5,4 x0,2 x0,1 
EndChar
StartChar: uni0198
Encoding: 408 408
Width: 600
HStem: 0 34<33 113 151 240 450 567> 528 34<33 113 151 240> 540 23<439 464>
VStem: 114 36<34 243 292 528>
Fore
203 289 m 1
 310 259 371 177 450 34 c 1
 568 34 l 1
 568 0 l 1
 429 0 l 1
 341 159 281 238 170 259 c 1
 163 253 157 248 150 243 c 1
 150 34 l 1
 241 34 l 1
 241 0 l 1
 32 0 l 1
 32 34 l 1
 114 34 l 1
 114 528 l 1
 32 528 l 1
 32 562 l 1
 241 562 l 1
 241 528 l 1
 150 528 l 1
 150 291 l 1
 191 327 283 438 347 511 c 0
 379 548 418 563 455 563 c 0
 468 563 506 559 517 514 c 0
 526 476 511 445 480 437 c 0
 442 426 427 497 476 510 c 0
 483 511 490 511 497 509 c 1
 499 524 472 540 460 540 c 2
 440 540 l 2
 413 540 265 348 203 289 c 1
EndSplineSet
MinimumDistance: x8,-1 x18,16 x18,17 x13,15 x13,14 x12,10 x12,11 x7,9 x7,8 
EndChar
StartChar: uni0199
Encoding: 409 409
Width: 600
HStem: 0 34<56 155 351 384 433 526> 392 34<325 356 414 493> 618 16<247 254>
VStem: 155 37<35 205 255 544> 324 170<392 425> 350 177<1 34>
DStem: 224 232 252 256 385 34 433 34 357 392 414 392 192 254 252 256
Fore
192 254 m 1
 357 392 l 1
 324 392 l 1
 324 426 l 1
 494 426 l 1
 494 392 l 1
 414 392 l 1
 252 256 l 1
 433 34 l 1
 527 34 l 1
 527 0 l 1
 350 0 l 1
 350 34 l 1
 385 34 l 1
 224 232 l 1
 192 205 l 1
 192 0 l 1
 55 0 l 1
 55 34 l 1
 155 34 l 1
 155 539 l 2
 155 593 201 634 255 634 c 0
 294 634 320 616 321 584 c 0
 322 544 249 547 249 597 c 0
 249 605 251 611 255 618 c 1
 233 627 192 586 192 565 c 2
 192 254 l 1
EndSplineSet
MinimumDistance: x9,-1 x19,17 x19,18 
EndChar
StartChar: uni019A
Encoding: 410 410
Width: 600
HStem: 0 34<93 254 292 507> 316 34<136 254 292 414>
VStem: 255 37<35 316 350 588>
DStem: 292 632 255 589 92 583 92 549
Fore
255 589 m 1
 92 549 l 1
 92 583 l 1
 292 632 l 1
 292 350 l 1
 415 350 l 1
 415 316 l 1
 292 316 l 1
 292 34 l 1
 508 34 l 1
 508 0 l 1
 92 0 l 1
 92 34 l 1
 255 34 l 1
 255 316 l 1
 135 316 l 1
 135 350 l 1
 255 350 l 1
 255 589 l 1
EndSplineSet
MinimumDistance: x9,-1 x14,16 x14,15 x13,11 x13,12 x8,10 x8,9 x4,6 x4,5 
EndChar
StartChar: uni019B
Encoding: 411 411
Width: 600
HStem: 0 34<118 189 228 297> 610.939 37.0185<124.03 141.63>
VStem: 117 181<1 34> 401.499 37.0997<48 96>
DStem: 225 549 247 523 159 489 181 463 294 453 320 406 189 34 227 34 319 635 341 609 253 575 275 549
Fore
320 406 m 1
 227 34 l 1
 298 34 l 1
 298 0 l 1
 117 0 l 1
 117 34 l 1
 189 34 l 1
 294 453 l 1
 279 479 263 503 247 523 c 1
 181 463 l 1
 159 489 l 1
 225 549 l 1
 186 593 149 616 124 610 c 1
 116 646 l 1
 156 656 205 627 253 575 c 1
 319 635 l 1
 341 609 l 1
 275 549 l 1
 375 421 462 195 434 0 c 1
 397 0 l 1
 417 144 377 292 320 406 c 1
EndSplineSet
EndChar
StartChar: uni019C
Encoding: 412 412
Width: 600
HStem: -13 37<182 189 374 384> 0 34<520 605> 528 34<7 91 203 286 399 482 520 605>
VStem: 91 38<93 527> 202 122<528 561.878> 287 38<94 527> 483 36<34 50 95 528> 483 123<1 33>
Fore
293 54 m 1
 260 13 205 -13 187 -13 c 0
 94 -13 91 66 91 131 c 2
 91 528 l 1
 6 528 l 1
 6 562 l 1
 129 562 l 1
 129 460 129 263 129 131 c 0
 129 90 124 24 186 24 c 0
 222 24 261 65 287 94 c 1
 287 106 287 119 287 131 c 2
 287 528 l 1
 202 528 l 1
 202 562 l 1
 324 562 l 1
 324 460 325 263 325 131 c 0
 325 90 314 24 382 24 c 0
 421 24 457 65 483 95 c 1
 483 528 l 1
 398 528 l 1
 398 562 l 1
 606 562 l 1
 606 528 l 1
 519 528 l 1
 519 34 l 1
 606 34 l 1
 606 0 l 1
 483 0 l 1
 483 51 l 1
 467 20 403 -13 382 -13 c 0
 326 -13 303 16 293 54 c 1
EndSplineSet
MinimumDistance: x24,26 x24,25 x23,21 x23,22 x18,20 x18,19 x11,13 x11,12 x3,5 x3,4 
EndChar
StartChar: uni019D
Encoding: 413 413
Width: 600
HStem: -7 21G<507 544> 528 34<10 55 404 507 545 590>
VStem: 56 37<-16 527> 508 36<55 528>
DStem: 93 528 116 562 507 -7 508 54
Fore
93 528 m 1
 93 -8 l 1
 93 -31 77 -76 30 -88 c 0
 -8 -97 -39 -82 -47 -51 c 0
 -58 -13 13 2 26 -47 c 0
 27 -54 27 -61 25 -68 c 1
 53 -72 56 -47 56 -31 c 2
 56 528 l 1
 9 528 l 1
 9 562 l 1
 116 562 l 1
 508 54 l 1
 508 528 l 1
 403 528 l 1
 403 562 l 1
 591 562 l 1
 591 528 l 1
 544 528 l 1
 544 -7 l 1
 507 -7 l 1
 93 528 l 1
EndSplineSet
MinimumDistance: x15,-1 x19,17 y17,19 y17,18 x17,15 x17,16 x12,14 x12,13 x7,9 x7,8 
EndChar
StartChar: uni01A2
Encoding: 418 418
Width: 600
HStem: -135 34<463 509 546 592> -2 37<226 258> 527 37<226 258 412 434>
VStem: 34 37<265 297> 413 37<265 297> 510 36<-101 425>
Fore
242 527 m 0
 134 527 71 420 71 281 c 0
 71 142 134 35 242 35 c 0
 350 35 413 142 413 281 c 0
 413 420 350 527 242 527 c 0
343 534 m 1
 357 543 391 564 421 564 c 0
 527 564 546 470 546 421 c 2
 546 -101 l 1
 593 -101 l 1
 593 -135 l 1
 462 -135 l 1
 462 -101 l 1
 510 -101 l 1
 510 420 l 2
 510 463 495 527 421 527 c 0
 397 527 382 521 370 512 c 1
 422 460 450 375 450 281 c 0
 450 128 376 -2 242 -2 c 0
 108 -2 34 128 34 281 c 0
 34 434 108 564 242 564 c 0
 281 564 314 553 343 534 c 1
EndSplineSet
MinimumDistance: x8,-1 x12,10 x12,11 x7,9 x7,8 
EndChar
StartChar: uni01A3
Encoding: 419 419
Width: 600
HStem: -135 34<481 526 564 610> -1 37<232 264> 390 37<232 264 427.116 441>
VStem: 40 37<201 217> 424 37<201 217> 527 37<-101 297>
Fore
250 427 m 8
 296 427 330 416 361 397 c 1
 376 406 409 427 439 427 c 0
 545 427 564 333 564 283 c 2
 564 -101 l 1
 611 -101 l 1
 611 -135 l 1
 480 -135 l 1
 480 -101 l 1
 527 -101 l 1
 527 283 l 2
 527 325 513 390 439 390 c 0
 416 390 402 385 390 376 c 1
 434 337 461 279 461 213 c 0
 461 94 374 -1 251 -1 c 0
 127 -1 40 93 40 213 c 16
 40 340 134 427 250 427 c 8
251 390 m 24
 152 390 77 310 77 213 c 0
 77 116 146 36 250 36 c 0
 355 36 424 114 424 213 c 24
 424 312 350 390 251 390 c 24
EndSplineSet
MinimumDistance: x9,7 x9,8 x4,6 x4,5 
EndChar
StartChar: uni01A4
Encoding: 420 420
Width: 600
HStem: 0 34<54 148 187 321> 211 34<187 393> 528 34<52 148 187 393>
VStem: 149 37<34 211 246 527> 523 34<369.102 400>
Fore
186 245 m 1
 386 245 l 2
 434 245 523 293 523 386 c 0
 523 485 441 528 386 528 c 2
 186 528 l 1
 186 245 l 1
386 562 m 2
 454 562 557 509 557 386 c 0
 557 269 447 211 386 211 c 2
 186 211 l 1
 186 34 l 1
 322 34 l 1
 322 0 l 1
 53 0 l 1
 53 34 l 1
 149 34 l 1
 149 528 l 1
 53 528 l 2
 36 528 12 521 16 497 c 1
 23 499 30 499 37 498 c 0
 86 485 71 414 33 425 c 0
 2 433 -13 464 -4 502 c 0
 8 549 38 562 64 562 c 1
 386 562 l 2
EndSplineSet
MinimumDistance: x6,-1 x14,12 x14,13 x9,11 x9,10 y5,8 x8,5 x8,7 
EndChar
StartChar: uni01A5
Encoding: 421 421
Width: 600
HStem: -180 34<41 118 157 278> -1 37<327 359> 392 34<40 118 327 359>
VStem: 119 37<-145 94 204 220 332 391> 531 37<204 220>
Fore
343 36 m 8
 446 36 531 116 531 213 c 0
 531 310 448 390 344 390 c 0
 245 390 156 316 156 213 c 24
 156 110 244 36 343 36 c 8
417 415 m 1
 423 429 433 453 438 467 c 0
 449 492 473 525 522 518 c 0
 560 513 584 487 580 455 c 0
 575 416 503 429 510 478 c 0
 512 486 514 492 519 498 c 1
 491 514 463 483 453 459 c 2
 433 409 l 1
 512 376 568 301 568 213 c 0
 568 94 467 -1 344 -1 c 0
 266 -1 197 37 156 95 c 1
 156 -146 l 1
 279 -146 l 1
 279 -180 l 1
 40 -180 l 1
 40 -146 l 1
 119 -146 l 1
 119 392 l 1
 39 392 l 1
 39 426 l 1
 156 426 l 1
 156 331 l 1
 197 389 266 427 343 427 c 0
 369 427 394 422 417 415 c 1
EndSplineSet
MinimumDistance: x12,-1 x21,23 x21,22 x20,18 x20,19 x15,17 x15,16 
EndChar
StartChar: uni01A6
Encoding: 422 422
Width: 600
HStem: 0 34<10 104 143 271 460 529> 247 34<143 279 333 374> 528 34<143 374> 598 34<7 104 143 251>
VStem: 105 37<34 247 281 528 562 598> 496 34<400 416>
Fore
143 281 m 1
 359 281 l 2
 407 281 496 311 496 404 c 0
 496 503 414 528 359 528 c 2
 143 528 l 1
 143 281 l 1
332 247 m 1
 401 184 425 126 460 34 c 1
 530 34 l 1
 530 0 l 1
 436 0 l 1
 396 106 375 172 279 247 c 1
 142 247 l 1
 142 34 l 1
 272 34 l 1
 272 0 l 1
 9 0 l 1
 9 34 l 1
 105 34 l 1
 105 172 105 445 105 598 c 1
 6 598 l 1
 6 632 l 1
 252 632 l 1
 252 598 l 1
 142 598 l 1
 142 562 l 1
 359 562 l 2
 426 562 530 527 530 404 c 0
 530 287 419 247 359 247 c 2
 332 247 l 1
EndSplineSet
MinimumDistance: x7,-1 y27,24 x24,27 x24,25 x23,21 x23,22 x18,20 x18,19 x17,15 x17,16 x12,14 x12,13 
EndChar
StartChar: uni01A7
Encoding: 423 423
Width: 600
HStem: 0 154<446 457> 9 37<288 320> 533 37<288 320>
VStem: 128 37<153 161> 442 37<416.409 436 438 442>
Fore
144 570 m 1
 178 570 l 1
 187 554 185 552 187 535 c 0
 188 526 191 528 199 534 c 0
 229 556 265 570 300 570 c 0
 382 570 479 526 479 432 c 0
 479 233 165 315 165 159 c 0
 165 92 231 46 306 46 c 0
 362 46 408 81 433 125 c 1
 434 129 446 154 446 154 c 1
 480 154 l 1
 472 142 457 102 457 86 c 0
 457 74 461 57 466 42 c 0
 471 28 480 0 480 0 c 1
 446 0 l 1
 441 12 435 29 431 45 c 0
 429 54 426 58 420 52 c 0
 389 26 349 9 306 9 c 0
 219 9 128 63 128 159 c 0
 128 351 442 265 442 432 c 0
 442 494 376 533 300 533 c 0
 239 533 185 482 167 440 c 1
 160 434 141 441 132 438 c 1
 142 449 156 475 156 513 c 0
 156 534 148 559 144 570 c 1
EndSplineSet
MinimumDistance: x5,-1 
EndChar
StartChar: uni01A8
Encoding: 424 424
Width: 600
HStem: -12 128<442 452> -5 37<283 315> 395 37<283 315>
VStem: 123 37<100.985 118> 437 37<320 327>
Fore
139 432 m 1
 173 432 l 1
 182 420 181 418 183 405 c 0
 184 398 186 400 194 405 c 0
 225 421 260 432 296 432 c 0
 378 432 474 398 474 325 c 0
 474 158 160 234 160 112 c 0
 160 59 226 32 302 32 c 0
 358 32 404 59 428 94 c 0
 429 96 442 116 442 116 c 1
 476 116 l 1
 468 107 452 72 452 60 c 0
 452 50 457 32 462 21 c 0
 466 10 476 -12 476 -12 c 1
 442 -12 l 1
 437 -2 431 10 427 23 c 0
 424 30 422 33 415 28 c 0
 384 8 345 -5 302 -5 c 0
 215 -5 123 37 123 112 c 0
 123 269 437 195 437 325 c 0
 437 373 371 395 296 395 c 0
 234 395 181 354 162 321 c 1
 128 321 l 1
 138 330 151 352 151 383 c 0
 151 399 143 424 139 432 c 1
EndSplineSet
MinimumDistance: x5,-1 
EndChar
StartChar: uni01A9
Encoding: 425 425
Width: 600
HStem: 0 34<14 64 109 450> 0 131<475 484> 431 21G<487 521> 528 34<14 64 109 450>
DStem: 64 528 108 528 223 281 267 281 223 281 267 281 64 34 108 34 475 131 509 131 450 34 484 0
Fore
13 0 m 1
 13 34 l 1
 64 34 l 1
 223 281 l 1
 64 528 l 1
 13 528 l 1
 13 562 l 1
 484 562 l 1
 521 431 l 1
 487 431 l 1
 450 528 l 1
 108 528 l 1
 267 281 l 1
 108 34 l 1
 450 34 l 1
 475 131 l 1
 509 131 l 1
 484 0 l 1
 13 0 l 1
EndSplineSet
MinimumDistance: x16,-1 
EndChar
StartChar: uni01AA
Encoding: 426 426
Width: 600
HStem: -174.429 13.6813<387 394> 489 18<216.029 232> 655 18<216.029 232>
VStem: 136 19<569 593> 298 37<-93.6642 520 556 583>
Fore
464 -125 m 0
 463 -157 437 -175 398 -175 c 0
 344 -175 298 -134 298 -80 c 2
 298 521 l 1
 281 501 256 489 228 489 c 0
 177 489 136 530 136 581 c 0
 136 632 177 673 228 673 c 0
 289 673 335 637 335 570 c 2
 335 -116 l 2
 335 -141 376 -168 398 -159 c 1
 394 -152 392 -146 392 -138 c 0
 392 -88 465 -85 464 -125 c 0
298 609 m 1
 287 636 259 655 228 655 c 0
 188 655 155 622 155 581 c 0
 155 540 188 507 228 507 c 0
 260 507 288 528 298 556 c 1
 298 609 l 1
EndSplineSet
MinimumDistance: x7,-1 
EndChar
StartChar: uni01AB
Encoding: 427 427
Width: 600
HStem: -19 37<309 325> 392 34<54 132 169 419>
VStem: 132 36<132 392 426 557> 379.883 13.9033<-52.6519 -4.02717>
Fore
393 -64 m 0
 390 -103 375 -129 343 -130 c 0
 303 -131 306 -58 356 -58 c 0
 364 -58 370 -60 377 -64 c 1
 381 -47 380 -23 379 -4 c 1
 358 -13 336 -19 316 -19 c 0
 225 -19 132 53 132 141 c 2
 132 392 l 1
 53 392 l 1
 53 426 l 1
 131 426 l 1
 131 558 l 1
 168 558 l 1
 168 426 l 1
 420 426 l 1
 420 392 l 1
 168 392 l 1
 168 141 l 2
 168 79 239 18 316 18 c 0
 398 18 501 131 503 133 c 1
 531 109 l 1
 498 73 447 28 394 2 c 1
 394 -14 394 -38 393 -64 c 0
EndSplineSet
MinimumDistance: x14,-1 x11,13 x12,10 y10,12 y10,11 x13,15 x13,14 x10,9 x10,8 
EndChar
StartChar: uni01AC
Encoding: 428 428
Width: 600
HStem: 0 34<135 281 319 466> 528 34<53 281 319 511>
VStem: 282 36<34 527>
DStem: 511 528 546 562 521 358 556 358
Fore
282 528 m 1
 70 528 l 2
 46 528 9 526 12 500 c 1
 20 502 26 502 34 501 c 1
 82 488 68 417 29 428 c 0
 -2 436 -17 467 -7 505 c 0
 4 552 44 562 55 562 c 2
 546 562 l 1
 556 358 l 1
 521 358 l 1
 511 528 l 1
 318 528 l 1
 318 34 l 1
 467 34 l 1
 467 0 l 1
 134 0 l 1
 134 34 l 1
 282 34 l 1
 282 528 l 1
EndSplineSet
MinimumDistance: x8,-1 x17,15 x17,16 x12,14 x12,13 
EndChar
StartChar: uni01AD
Encoding: 429 429
Width: 600
HStem: -19 37<299 325> 392 34<54 131 170 419> 671 16<226 233>
VStem: 132 36<132 392 426 605>
Fore
169 426 m 1
 420 426 l 1
 420 392 l 1
 168 392 l 1
 168 141 l 2
 168 79 239 18 316 18 c 0
 398 18 501 131 503 133 c 1
 531 109 l 1
 482 55 391 -19 316 -19 c 0
 225 -19 132 53 132 141 c 2
 132 392 l 1
 53 392 l 1
 53 426 l 1
 131 426 l 1
 131 592 l 2
 131 646 180 687 234 687 c 0
 273 687 299 669 300 637 c 0
 301 597 228 600 228 650 c 0
 228 658 230 664 234 671 c 1
 212 680 169 633 169 613 c 2
 169 426 l 1
EndSplineSet
MinimumDistance: x1,-1 x13,12 x13,11 x0,2 x0,1 
EndChar
StartChar: uni01AE
Encoding: 430 430
Width: 600
HStem: -95 16<373 381> 528 34<88 281 319 511>
VStem: 281 37<-14.6053 527> 376 72<-58 -45>
DStem: 55 562 88 528 44 358 78 358 511 528 546 562 523 358 558 358
Fore
318 528 m 1
 318 -34 l 1
 318 -54 360 -88 383 -79 c 1
 378 -72 376 -66 376 -58 c 0
 376 -8 450 -5 448 -45 c 0
 448 -77 421 -95 382 -95 c 0
 313 -95 281 -48 281 0 c 2
 281 528 l 1
 88 528 l 1
 78 358 l 1
 44 358 l 1
 55 562 l 1
 546 562 l 1
 558 358 l 1
 523 358 l 1
 511 528 l 1
 318 528 l 1
EndSplineSet
MinimumDistance: x13,-1 
EndChar
StartChar: uni01B1
Encoding: 433 433
Width: 600
HStem: 0 37<288 320> 537 34<109 190 411 491>
VStem: 70 37<208 224> 191 37<512 536> 372 38<512 536> 493 37<208 224>
DStem: 85 571 109 537 48 470 80 458 491 537 515 571 520 458 552 470
Fore
410 537 m 1
 410 519 l 2
 410 415 530 345 530 221 c 0
 530 85 434 0 300 0 c 0
 166 0 70 85 70 221 c 0
 70 344 191 415 191 519 c 2
 191 537 l 1
 109 537 l 1
 80 458 l 1
 48 470 l 1
 85 571 l 1
 228 571 l 1
 228 519 l 2
 228 400 107 331 107 221 c 0
 107 107 184 37 300 37 c 0
 416 37 493 107 493 221 c 0
 493 331 372 400 372 519 c 2
 372 571 l 1
 515 571 l 1
 552 470 l 1
 520 458 l 1
 491 537 l 1
 410 537 l 1
EndSplineSet
MinimumDistance: x19,-1 
EndChar
StartChar: uni01B2
Encoding: 434 434
Width: 600
HStem: -7 34<284 316> 528 34<29 99 133 231 369 466 501 571>
VStem: 99 33<169 528> 467 34<169 528>
Fore
572 528 m 1
 501 528 l 1
 501 179 l 2
 501 106 423 -7 300 -7 c 0
 182 -7 99 108 99 179 c 2
 99 528 l 1
 28 528 l 1
 28 562 l 1
 232 562 l 1
 232 528 l 1
 132 528 l 1
 132 179 l 2
 132 131 207 27 299 27 c 0
 398 27 467 124 467 179 c 2
 467 528 l 1
 368 528 l 1
 368 562 l 1
 572 562 l 1
 572 528 l 1
EndSplineSet
MinimumDistance: x0,-1 x2,5 x4,1 y1,4 y1,2 x14,16 x14,15 x1,17 x1,0 x10,8 x10,9 x5,7 x5,6 
EndChar
StartChar: uni01B3
Encoding: 435 435
Width: 600
HStem: 0 34<223 280 317 375> 528 34<400 460 506 541> 540 21.4967<57 70>
VStem: 280 37<34 273> 400 141<528 561>
DStem: 103 515 138 529 280 273 300 312 460 528 506 528 300 312 317 273
Fore
103 515 m 2
 93 529 75 540 66 540 c 0
 54 540 12 541 16 512 c 1
 23 514 30 514 37 513 c 0
 86 500 71 429 33 440 c 0
 2 448 -13 479 -4 517 c 0
 8 564 60 562 75 562 c 0
 95 562 118 556 138 529 c 2
 300 312 l 1
 460 528 l 1
 400 528 l 1
 400 562 l 1
 501 562 475 562 541 562 c 1
 541 528 l 1
 506 528 l 1
 317 273 l 1
 317 34 l 1
 375 34 l 1
 375 0 l 1
 282 0 298 0 223 0 c 1
 223 34 l 1
 280 34 l 1
 280 273 l 1
 103 515 l 2
EndSplineSet
MinimumDistance: x12,-1 x21,19 x21,20 x16,18 x16,17 
EndChar
StartChar: uni01B4
Encoding: 436 436
Width: 600
HStem: -168 34<1 213 255 283> 392 34<400 472 514 589> 404 21.4967<46 59>
VStem: 0 284<-167 -134> 399 191<392 425>
DStem: 92 379 127 393 279 0 300 42 279 0 514 392 213 -134 254 -134 473 392 514 392 300 42 254 -134
Fore
300 42 m 1
 360 165 416 276 473 392 c 1
 399 392 l 1
 399 426 l 1
 590 426 l 1
 590 392 l 1
 514 392 l 1
 426 214 335 30 254 -134 c 1
 284 -134 l 1
 284 -168 l 1
 0 -168 l 1
 0 -134 l 1
 213 -134 l 1
 279 0 l 1
 92 379 l 2
 87 390 64 404 55 404 c 0
 43 404 1 405 5 376 c 1
 12 378 19 378 26 377 c 0
 75 364 60 293 22 304 c 0
 -9 312 -24 343 -15 381 c 0
 -3 428 49 426 64 426 c 0
 84 426 116 415 127 393 c 2
 300 42 l 1
EndSplineSet
MinimumDistance: x4,-1 
EndChar
StartChar: uni01B5
Encoding: 437 437
Width: 600
HStem: 0 34<177 432> 0 190<443 464> 286 34<167 275 339 441> 528 34<164 411>
VStem: 166 276<286 320>
DStem: 131 562 164 528 122 375 157 375 276 286 318 286 125 20 176 34 412 528 462 539 295 320 338 320 443 190 478 190 432 34 464 0
Fore
432 34 m 1
 443 190 l 1
 478 190 l 1
 464 0 l 1
 125 0 l 1
 125 20 l 1
 276 286 l 1
 166 286 l 1
 166 320 l 1
 295 320 l 1
 412 528 l 1
 164 528 l 1
 157 375 l 1
 122 375 l 1
 131 562 l 1
 462 562 l 1
 462 539 l 1
 338 320 l 1
 442 320 l 1
 442 286 l 1
 318 286 l 1
 176 34 l 1
 432 34 l 1
EndSplineSet
MinimumDistance: x2,-1 
EndChar
StartChar: uni01B6
Encoding: 438 438
Width: 600
HStem: 0 34<152 483> 0 70<484 516> 221 34<178 280 367 461> 392 34<118 446>
VStem: 83 34<357 391> 483 34<35 69>
DStem: 281 221 333 221 99 34 151 34 447 392 499 392 314 255 366 255
Fore
499 392 m 1
 366 255 l 1
 462 255 l 1
 462 221 l 1
 333 221 l 1
 151 34 l 1
 483 34 l 1
 483 70 l 1
 517 70 l 1
 517 0 l 1
 99 0 l 1
 99 34 l 1
 281 221 l 1
 177 221 l 1
 177 255 l 1
 314 255 l 1
 447 392 l 1
 117 392 l 1
 117 356 l 1
 83 356 l 1
 83 426 l 1
 499 426 l 1
 499 392 l 1
EndSplineSet
MinimumDistance: x8,-1 y17,19 y17,18 y6,8 y6,7 
EndChar
StartChar: uni01B7
Encoding: 439 439
Width: 600
HStem: 0 33<239 268> 346 33<240 278> 532 30<165 386>
VStem: 134 30<501 531> 433 33<176 192>
DStem: 387 532 433 532 194 379 240 379
Fore
194 346 m 1
 194 379 l 1
 387 532 l 1
 164 532 l 1
 164 500 l 1
 134 500 l 1
 134 562 l 1
 433 562 l 1
 433 532 l 1
 240 379 l 1
 249 379 257 379 266 379 c 0
 376 379 466 295 466 190 c 0
 466 84 376 0 258 0 c 0
 209 0 178 9 136 37 c 1
 153 67 l 1
 188 44 218 33 258 33 c 0
 355 33 433 104 433 190 c 0
 433 275 359 346 266 346 c 0
 194 346 l 1
EndSplineSet
MinimumDistance: x11,-1 y3,5 y3,4 
EndChar
StartChar: uni01B8
Encoding: 440 440
Width: 600
HStem: 0 33<258 293> 346 33<258 291> 532 30<146 367>
VStem: 66 32<176 192> 368 30<501 531>
DStem: 99 532 145 532 292 379 338 379
Fore
338 346 m 1
 265 346 l 0
 172 346 98 275 98 190 c 0
 98 104 176 33 273 33 c 0
 313 33 344 44 378 67 c 1
 396 37 l 1
 353 9 322 0 273 0 c 0
 156 0 66 84 66 190 c 0
 66 295 156 379 265 379 c 0
 275 379 282 379 292 379 c 1
 99 532 l 1
 99 562 l 1
 398 562 l 1
 398 500 l 1
 368 500 l 1
 368 532 l 1
 145 532 l 1
 338 379 l 1
 338 346 l 1
EndSplineSet
MinimumDistance: x12,-1 y15,13 y15,14 
EndChar
StartChar: uni01B9
Encoding: 441 441
Width: 600
HStem: -207 37<269 300> 181 37<254 299> 392 34<136 384>
VStem: 46 37<1 17> 385 34<357 391>
DStem: 83 392 135 392 300 219 352 219
Fore
352 181 m 1
 352 181 346 181 270 181 c 0
 166 181 83 103 83 6 c 0
 83 -91 170 -170 279 -170 c 0
 324 -170 358 -158 397 -132 c 1
 417 -165 l 1
 369 -197 334 -207 279 -207 c 0
 147 -207 46 -113 46 6 c 0
 46 125 147 218 270 218 c 0
 270 218 289 219 300 219 c 1
 83 392 l 1
 83 426 l 1
 419 426 l 1
 419 356 l 1
 385 356 l 1
 385 392 l 1
 135 392 l 1
 352 219 l 1
 352 181 l 1
EndSplineSet
MinimumDistance: x12,-1 y15,13 y15,14 
EndChar
StartChar: uni01BA
Encoding: 442 442
Width: 600
HStem: -226 128<385 395> -218 36<226 258> 182 37<209 258> 392 34<125 373>
VStem: 66 37<-112.845 -96> 90 34<357 391> 381 37<98.8615 113>
DStem: 374 392 426 392 157 219 209 219
Fore
209 219 m 1
 220 219 228 219 239 219 c 0
 321 219 418 185 418 111 c 0
 418 -56 103 20 103 -102 c 0
 103 -154 169 -182 245 -182 c 0
 301 -182 347 -155 371 -120 c 0
 373 -117 385 -98 385 -98 c 1
 419 -98 l 1
 411 -107 395 -141 395 -154 c 0
 395 -163 400 -181 405 -193 c 0
 409 -204 419 -226 419 -226 c 1
 385 -226 l 1
 385 -226 374 -203 370 -191 c 0
 368 -184 365 -181 358 -185 c 0
 327 -206 288 -218 245 -218 c 0
 158 -218 66 -176 66 -102 c 0
 66 55 381 -19 381 111 c 0
 381 160 314 182 239 182 c 0
 164 182 157 182 157 182 c 1
 157 219 l 1
 374 392 l 1
 124 392 l 1
 124 356 l 1
 90 356 l 1
 90 426 l 1
 426 426 l 1
 426 392 l 1
 209 219 l 1
EndSplineSet
MinimumDistance: x25,-1 y21,23 y21,22 
EndChar
StartChar: uni01BB
Encoding: 443 443
Width: 600
HStem: 0 34<178 439> 0 123<440 472> 290 34<244 338 438 527> 526 36<303 319>
VStem: 127 37<362.125 385.625> 140 37<35 82> 439 34<35 122>
Fore
243 324 m 1
 385 324 l 1
 388 327 391 329 394 332 c 0
 420 358 436 386 436 429 c 0
 436 487 381 526 306 526 c 0
 200 526 164 446 164 362 c 1
 127 362 l 1
 127 409 l 1
 148 485 198 562 311 562 c 0
 390 562 473 520 473 429 c 0
 473 384 459 351 437 324 c 1
 528 324 l 1
 528 290 l 1
 402 290 l 1
 374 267 341 248 309 227 c 0
 251 189 177 162 177 80 c 2
 177 34 l 1
 439 34 l 1
 439 123 l 1
 473 123 l 1
 473 0 l 1
 140 0 l 1
 140 80 l 2
 140 189 252 233 339 290 c 1
 243 290 l 1
 243 324 l 1
EndSplineSet
MinimumDistance: x9,-1 y17,19 y17,18 
EndChar
StartChar: uni01BC
Encoding: 444 444
Width: 600
HStem: -1 37<279 311> 309 37<211 343> 525 37<95 172 211 512>
VStem: 173 37<346 525> 476 37<175 191>
Fore
210 525 m 1
 210 346 l 1
 326 346 l 2
 435 346 513 288 513 179 c 0
 513 60 404 -1 300 -1 c 0
 201 -1 138 37 87 75 c 1
 109 105 l 1
 158 68 213 36 300 36 c 0
 395 36 476 91 476 179 c 0
 476 262 421 309 326 309 c 2
 173 309 l 1
 173 525 l 1
 94 525 l 1
 94 562 l 1
 513 562 l 1
 513 525 l 1
 210 525 l 1
EndSplineSet
MinimumDistance: x3,-1 x11,13 x11,12 x0,14 x0,15 
EndChar
StartChar: uni01BD
Encoding: 445 445
Width: 600
HStem: -1 37<279 325> 235 37<211 343> 389 37<95 172 211 512>
VStem: 173 37<272 389> 476 37<129.654 144>
Fore
210 389 m 1
 210 272 l 1
 326 272 l 2
 435 272 513 235 513 142 c 0
 513 48 404 -1 300 -1 c 0
 201 -1 138 37 87 75 c 1
 109 105 l 1
 158 68 213 36 300 36 c 0
 395 36 476 77 476 142 c 0
 476 206 421 235 326 235 c 2
 173 235 l 1
 173 389 l 1
 94 389 l 1
 94 426 l 1
 513 426 l 1
 513 389 l 1
 210 389 l 1
EndSplineSet
MinimumDistance: x3,-1 x11,13 x11,12 x0,14 x0,15 
EndChar
StartChar: uni01BE
Encoding: 446 446
Width: 600
HStem: 0 38<283 315> 438 34<214 286 324 395> 548 20G<286 323>
VStem: 123 37<112 136> 286 37<352.88 438 472 567> 440 37<128 144>
Fore
286 568 m 1
 323 568 l 1
 323 472 l 1
 396 472 l 1
 396 438 l 1
 323 438 l 1
 323 363 l 2
 323 290 477 256 477 137 c 0
 477 46 385 0 295 0 c 0
 208 0 123 41 123 119 c 2
 123 137 l 1
 160 137 l 1
 160 119 l 2
 160 67 228 38 296 38 c 0
 367 38 440 71 440 137 c 0
 440 242 286 266 286 363 c 2
 286 438 l 1
 213 438 l 1
 213 472 l 1
 286 472 l 1
 286 568 l 1
EndSplineSet
MinimumDistance: x7,-1 y2,0 y2,1 x16,18 x16,17 x2,4 x2,3 
EndChar
StartChar: uni01BF
Encoding: 447 447
Width: 600
HStem: -180 34<41 118 157 278> 392 34<40 118 327 359>
VStem: 119 37<-145 -113 -75 220 332 391> 531 37<204 220>
Fore
156 -113 m 1
 156 -146 l 1
 279 -146 l 1
 279 -180 l 1
 40 -180 l 1
 40 -146 l 1
 119 -146 l 1
 119 392 l 1
 39 392 l 1
 39 426 l 1
 156 426 l 1
 156 331 l 1
 197 389 266 427 343 427 c 0
 467 427 568 332 568 213 c 0
 568 24 270 -17 156 -113 c 1
156 -76 m 1
 249 1 531 62 531 213 c 0
 531 310 448 390 344 390 c 0
 245 390 156 315 156 213 c 2
 156 -76 l 1
EndSplineSet
MinimumDistance: x13,-1 x7,9 x7,8 x6,4 x6,5 x1,3 x1,2 
EndChar
StartChar: uni01C0
Encoding: 448 448
Width: 600
HStem: -143 705<270 305>
VStem: 269 37<-142 561>
Fore
306 562 m 1
 306 -143 l 1
 269 -143 l 1
 269 562 l 1
 306 562 l 1
EndSplineSet
MinimumDistance: x0,-1 
EndChar
StartChar: uni01C1
Encoding: 449 449
Width: 600
HStem: -143 705<217 252 337 372>
VStem: 216 37<-142 561> 336 37<-142 561>
Fore
253 562 m 1
 253 -143 l 1
 216 -143 l 1
 216 562 l 1
 253 562 l 1
373 562 m 1
 373 -143 l 1
 336 -143 l 1
 336 562 l 1
 373 562 l 1
EndSplineSet
MinimumDistance: x4,-1 
EndChar
StartChar: uni01C2
Encoding: 450 450
Width: 600
HStem: 219 34<179 268 307 404> 314 34<179 269 306 404> 542 20G<269 306>
VStem: 269 37<-142 219 253 314 348 561>
Fore
306 562 m 1
 306 348 l 1
 405 348 l 1
 405 314 l 1
 306 314 l 1
 306 253 l 1
 405 253 l 1
 405 219 l 1
 306 219 l 1
 306 -143 l 1
 269 -143 l 1
 269 219 l 1
 178 219 l 1
 178 253 l 1
 269 253 l 1
 269 314 l 1
 178 314 l 1
 178 348 l 1
 269 348 l 1
 269 562 l 1
 306 562 l 1
EndSplineSet
MinimumDistance: x2,-1 y1,19 y1,0 y8,10 y8,9 x15,17 x15,16 x11,13 x11,12 x5,7 x5,6 x1,3 x1,2 
EndChar
StartChar: uni01C4
Encoding: 452 452
Width: 600
HStem: 0 34<26 55 94 153 373 544> 0 190<555 575> 528 34<26 55 94 153 360 523>
VStem: 56 37<35 527> 255 35<256 336>
DStem: 328 562 360 528 319 375 353 375 524 528 573 539 322 20 372 34 555 190 589 190 544 34 575 0
Fore
93 34 m 1
 145 34 l 2
 232 34 255 165 255 284 c 0
 255 361 258 528 145 528 c 2
 93 528 l 1
 93 34 l 1
25 34 m 1
 56 34 l 1
 56 528 l 1
 25 528 l 1
 25 562 l 1
 145 562 l 2
 288 562 290 379 290 286 c 0
 290 193 287 0 145 0 c 2
 25 0 l 1
 25 34 l 1
544 34 m 1
 555 190 l 1
 589 190 l 1
 575 0 l 1
 322 0 l 1
 322 20 l 1
 524 528 l 1
 360 528 l 1
 353 375 l 1
 319 375 l 1
 328 562 l 1
 573 562 l 1
 573 539 l 1
 372 34 l 1
 544 34 l 1
640 779 m 1
 469 607 l 1
 439 607 l 1
 266 779 l 1
 286 799 l 1
 457 666 l 1
 620 799 l 1
 640 779 l 1
EndSplineSet
MinimumDistance: x16,-1 x7,9 x7,8 x6,13 x6,5 
EndChar
StartChar: uni01C5
Encoding: 453 453
Width: 600
HStem: 0 34<26 55 94 153 390 555> 0 70<556 588> 392 34<356 518> 528 34<26 55 94 153>
VStem: 56 37<35 527> 255 35<256 336> 321 34<357 391> 555 34<35 69>
DStem: 519 392 571 392 337 34 389 34
Fore
571 392 m 1
 389 34 l 1
 555 34 l 1
 555 70 l 1
 589 70 l 1
 589 0 l 1
 337 0 l 1
 337 34 l 1
 519 392 l 1
 355 392 l 1
 355 356 l 1
 321 356 l 1
 321 426 l 1
 571 426 l 1
 571 392 l 1
634 684 m 1
 463 511 l 1
 434 511 l 1
 261 684 l 1
 281 704 l 1
 451 571 l 1
 614 704 l 1
 634 684 l 1
93 34 m 1
 145 34 l 2
 232 34 255 165 255 284 c 0
 255 361 258 528 145 528 c 2
 93 528 l 1
 93 34 l 1
25 34 m 1
 56 34 l 1
 56 528 l 1
 25 528 l 1
 25 562 l 1
 145 562 l 2
 288 562 290 379 290 286 c 0
 290 193 287 0 145 0 c 2
 25 0 l 1
 25 34 l 1
EndSplineSet
MinimumDistance: x4,-1 y9,11 y9,10 y2,4 y2,3 x28,30 x28,29 x27,34 x27,26 
EndChar
StartChar: uni01C6
Encoding: 454 454
Width: 600
HStem: -2 37<134 141 256 289 386 555> 0 70<556 588> 356 70<322 355> 391 37<125 141 356 522>
VStem: 13 37<186 242> 219 37<34 55 174 254 371 590> 219 71<1 33> 321 34<357 391> 555 34<35 69>
DStem: 523 392 571 392 337 34 385 34
Fore
571 392 m 1
 385 34 l 1
 555 34 l 1
 555 70 l 1
 589 70 l 1
 589 0 l 1
 337 0 l 1
 337 34 l 1
 523 392 l 1
 355 392 l 1
 355 356 l 1
 321 356 l 1
 321 426 l 1
 571 426 l 1
 571 392 l 1
634 684 m 1
 463 511 l 1
 434 511 l 1
 261 684 l 1
 281 704 l 1
 451 571 l 1
 614 704 l 1
 634 684 l 1
135 428 m 12
 176 428 198 405 219 370 c 5
 219 591 l 5
 97 565 l 5
 97 599 l 5
 256 632 l 5
 256 213 l 5
 256 34 l 5
 290 34 l 5
 290 0 l 5
 219 0 l 5
 219 56 l 5
 198 21 170 -2 135 -2 c 4
 59 -2 13 106 13 213 c 4
 13 324 44 428 135 428 c 12
135 391 m 4
 78 391 50 323 50 213 c 4
 50 103 97 35 135 35 c 4
 170 35 219 92 219 186 c 6
 219 240 l 6
 219 304 196 391 135 391 c 4
EndSplineSet
MinimumDistance: x4,-1 y9,11 y9,10 y2,4 y2,3 y30,28 x28,30 x28,29 
EndChar
StartChar: uni01C7
Encoding: 455 455
Width: 600
HStem: 0 34<31 95 134 242 451 464> 0 223<263 277> 528 34<32 95 134 197 453 529 567 635>
VStem: 96 37<35 528> 356 37<142 226> 530 37<127 528>
DStem: 263 223 297 223 242 34 277 0
Fore
393 227 m 1
 393 155 383 36 461 36 c 0
 521 36 530 101 530 143 c 2
 530 528 l 1
 452 528 l 1
 452 562 l 1
 636 562 l 1
 636 528 l 1
 567 528 l 1
 567 143 l 2
 567 93 567 -1 462 -1 c 0
 365 -1 356 87 356 143 c 2
 356 227 l 1
 393 227 l 1
96 528 m 1
 31 528 l 1
 31 562 l 1
 198 562 l 1
 198 528 l 1
 133 528 l 1
 133 34 l 1
 242 34 l 1
 263 223 l 1
 297 223 l 1
 277 0 l 1
 30 0 l 1
 30 34 l 1
 96 34 l 1
 96 528 l 1
EndSplineSet
MinimumDistance: x11,8 y8,11 y8,9 x8,6 x8,7 x3,5 x3,4 x26,24 x26,25 x18,16 x18,17 x13,15 x13,14 
EndChar
StartChar: uni01C8
Encoding: 456 456
Width: 600
HStem: -197 37<382 404> 0 34<31 95 134 296> 0 223<317 331> 392 34<377 506> 528 34<32 95 134 197>
VStem: 96 37<35 528> 469 74<466 561> 507 37<-37 391>
DStem: 317 223 351 223 296 34 331 0
Fore
96 528 m 1
 31 528 l 1
 31 562 l 1
 198 562 l 1
 198 528 l 1
 133 528 l 1
 133 34 l 1
 296 34 l 1
 317 223 l 1
 351 223 l 1
 331 0 l 1
 30 0 l 1
 30 34 l 1
 96 34 l 1
 96 528 l 1
543 562 m 1
 543 465 l 1
 469 465 l 1
 469 562 l 1
 543 562 l 1
293 -134 m 1
 312 -147 358 -160 402 -160 c 0
 460 -160 507 -87 507 -31 c 2
 507 392 l 1
 376 392 l 1
 376 426 l 1
 544 426 l 1
 544 -31 l 2
 544 -97 490 -197 402 -197 c 0
 346 -197 298 -182 277 -167 c 1
 293 -134 l 1
EndSplineSet
MinimumDistance: x14,-1 x21,23 x21,22 x13,11 x13,12 x5,3 x5,4 x0,2 x0,1 
EndChar
StartChar: uni01C9
Encoding: 457 457
Width: 600
HStem: -197 37<392 413> 0 34<57 217 255 470> 392 34<385 514> 465 97<479 551>
VStem: 218 37<34 588> 478 74<466 561> 515 38<-37 391>
DStem: 255 632 218 589 56 583 56 549
Fore
552 562 m 1
 552 465 l 1
 478 465 l 1
 478 562 l 1
 552 562 l 1
302 -134 m 1
 321 -147 367 -160 411 -160 c 0
 468 -160 515 -87 515 -31 c 2
 515 392 l 1
 384 392 l 1
 384 426 l 1
 553 426 l 1
 553 -31 l 2
 553 -97 498 -197 411 -197 c 0
 354 -197 307 -182 286 -167 c 1
 302 -134 l 1
218 589 m 1
 56 549 l 1
 56 583 l 1
 255 632 l 1
 255 34 l 1
 471 34 l 1
 471 0 l 1
 56 0 l 1
 56 34 l 1
 218 34 l 1
 218 589 l 1
EndSplineSet
MinimumDistance: x0,-1 x7,9 x7,8 x23,21 x23,22 x18,20 x18,19 
EndChar
StartChar: uni01CA
Encoding: 458 458
Width: 600
HStem: -7 21G<282 319> 0 34<10 54 93 172 451 473> 528 34<10 54 205 281 320 364 453 529 567 635>
VStem: 55 37<34 501> 282 37<101 528> 356 37<137 226> 530 37<121 528>
DStem: 94 502 115 562 282 -7 282 100
Fore
282 100 m 1
 282 528 l 1
 204 528 l 1
 204 562 l 1
 365 562 l 1
 365 528 l 1
 319 528 l 1
 319 -7 l 1
 282 -7 l 1
 94 502 l 1
 92 502 l 1
 92 34 l 1
 173 34 l 1
 173 0 l 1
 9 0 l 1
 9 34 l 1
 55 34 l 1
 55 528 l 1
 9 528 l 1
 9 562 l 1
 115 562 l 1
 282 100 l 1
393 227 m 1
 393 155 383 36 461 36 c 0
 521 36 530 101 530 143 c 2
 530 528 l 1
 452 528 l 1
 452 562 l 1
 636 562 l 1
 636 528 l 1
 567 528 l 1
 567 143 l 2
 567 93 567 -1 462 -1 c 0
 365 -1 356 87 356 143 c 2
 356 227 l 1
 393 227 l 1
EndSplineSet
MinimumDistance: x32,29 y29,32 y29,30 y6,8 y6,7 x29,27 x29,28 x24,26 x24,25 x6,4 x6,5 x1,3 x1,2 x17,19 x17,18 x16,14 x16,15 x11,13 x11,12 
EndChar
StartChar: uni01CB
Encoding: 459 459
Width: 600
HStem: -197 37<409 425> -7 21G<282 319> 0 34<10 54 93 172> 392 34<396 525> 528 34<10 54 205 281 320 364>
VStem: 55 37<34 501> 282 37<101 528> 488 75<466 561> 526 38<-37 391>
DStem: 94 502 115 562 282 -7 282 100
Fore
312 -134 m 1
 331 -147 377 -160 421 -160 c 0
 479 -160 526 -87 526 -31 c 2
 526 392 l 1
 395 392 l 1
 395 426 l 1
 564 426 l 1
 564 -31 l 2
 564 -97 509 -197 422 -197 c 0
 365 -197 318 -182 296 -167 c 1
 312 -134 l 1
563 562 m 1
 563 465 l 1
 488 465 l 1
 488 562 l 1
 563 562 l 1
282 100 m 1
 282 528 l 1
 204 528 l 1
 204 562 l 1
 365 562 l 1
 365 528 l 1
 319 528 l 1
 319 -7 l 1
 282 -7 l 1
 94 502 l 1
 92 502 l 1
 92 34 l 1
 173 34 l 1
 173 0 l 1
 9 0 l 1
 9 34 l 1
 55 34 l 1
 55 528 l 1
 9 528 l 1
 9 562 l 1
 115 562 l 1
 282 100 l 1
EndSplineSet
MinimumDistance: x6,-1 y20,22 y20,21 x3,5 x3,4 x20,18 x20,19 x15,17 x15,16 x31,33 x31,32 x30,28 x30,29 x25,27 x25,26 
EndChar
StartChar: uni01CC
Encoding: 460 460
Width: 600
HStem: -197 37<409 425> 0 34<42 107 146 198 247 293 331 380> 392 34<42 107 396 525> 403 37<233 249> 465 0<488 563> 562 0<488 563>
VStem: 108 37<35 326 377 391> 294 37<34 331> 488 0<465 562> 526 38<-37 391> 563 0<465 562>
Fore
312 -134 m 1
 331 -147 377 -160 421 -160 c 0
 479 -160 526 -87 526 -31 c 2
 526 392 l 1
 395 392 l 1
 395 426 l 1
 564 426 l 1
 564 -31 l 2
 564 -97 509 -197 422 -197 c 0
 365 -197 318 -182 296 -167 c 1
 312 -134 l 1
563 562 m 1
 563 465 l 1
 488 465 l 1
 488 562 l 1
 563 562 l 1
145 376 m 1
 167 409 184 440 241 440 c 0
 324 440 331 363 331 296 c 2
 331 34 l 1
 381 34 l 1
 381 0 l 1
 246 0 l 1
 246 34 l 1
 294 34 l 1
 294 296 l 2
 294 337 298 403 241 403 c 0
 189 403 190 374 145 326 c 1
 145 34 l 1
 199 34 l 1
 199 0 l 1
 41 0 l 1
 41 34 l 1
 108 34 l 1
 108 392 l 1
 41 392 l 1
 41 426 l 1
 145 426 l 1
 145 376 l 1
563 562 m 1
 488 562 l 1
 488 465 l 1
 563 465 l 1
 563 562 l 1
EndSplineSet
MinimumDistance: x10,-1 x3,5 x3,4 x22,20 x22,21 x17,19 x17,18 x32,34 x32,33 x31,29 x31,30 x26,28 x26,27 
EndChar
StartChar: uni01DD
Encoding: 477 477
Width: 600
HStem: -2 37<288 320> 178 34<121 487> 388 37<288 306>
VStem: 492 37<212.125 229.617>
Fore
120 178 m 1
 137 97 212 35 304 35 c 0
 396 35 471 97 488 178 c 1
 120 178 l 1
80 212 m 1
 492 212 l 1
 492 308 404 388 299 388 c 0
 240 388 175 362 135 332 c 1
 111 361 l 1
 156 399 231 425 299 425 c 0
 422 425 529 331 529 212 c 0
 529 93 427 -2 304 -2 c 0
 181 -2 80 90 80 212 c 1
EndSplineSet
MinimumDistance: x9,-1 
EndChar
StartChar: uni01E4
Encoding: 484 484
Width: 600
HStem: -2 37<288.895 320> 162 34<373 468 515 599> 248 34<376 484> 426 21G<475 510> 527 37<304 336> 541 20G<470 504>
VStem: 80 37<270 302> 375 145<248 281>
Fore
318 564 m 0
 379 564 426 543 446 520 c 1
 454 514 457 511 458 520 c 0
 460 537 465 553 470 561 c 1
 504 561 l 1
 500 550 491 513 491 492 c 0
 491 471 502 446 510 426 c 1
 475 426 l 1
 456 489 381 527 318 527 c 0
 210 527 117 420 117 281 c 0
 117 142 199 35 307 35 c 0
 385 35 443 87 469 162 c 1
 372 162 l 1
 372 196 l 1
 478 196 l 1
 482 213 484 230 485 248 c 1
 375 248 l 1
 375 282 l 1
 520 282 l 1
 520 248 l 1
 519 230 517 213 514 196 c 1
 600 196 l 1
 600 162 l 1
 507 162 l 1
 479 66 409 -2 307 -2 c 0
 172 -2 80 128 80 281 c 0
 80 434 184 564 318 564 c 0
EndSplineSet
MinimumDistance: x18,-1 
EndChar
StartChar: uni01E5
Encoding: 485 485
Width: 600
HStem: -197 37<252 271> -1 37<252 284> 390 37<252 284 493 574> 406 20G<456 575>
VStem: 44 37<203 219> 456 37<-37 95 203 219 330 392> 456 119<393 425>
DStem: 352 -58 368 -28 421 -95 444 -68 456 -113 477 -86 529 -152 545 -122
Fore
269 390 m 0
 164 390 81 310 81 213 c 0
 81 116 164 36 268 36 c 0
 373 36 456 116 456 213 c 0
 456 310 373 390 269 390 c 0
575 426 m 1
 575 392 l 1
 493 392 l 1
 493 258 493 185 493 -31 c 0
 493 -50 487 -68 477 -86 c 1
 545 -122 l 1
 529 -152 l 1
 456 -113 l 1
 412 -162 335 -197 266 -197 c 0
 190 -197 114 -163 73 -139 c 1
 89 -106 l 1
 122 -129 205 -160 265 -160 c 0
 318 -160 382 -131 421 -95 c 1
 352 -58 l 1
 368 -28 l 1
 444 -68 l 1
 451 -56 456 -43 456 -31 c 2
 456 96 l 1
 416 38 346 -1 269 -1 c 0
 145 -1 44 94 44 213 c 0
 44 332 145 427 268 427 c 0
 347 427 416 388 456 330 c 1
 456 426 l 1
 575 426 l 1
EndSplineSet
MinimumDistance: x4,-1 y4,6 x6,4 x6,5 
EndChar
StartChar: uni01F1
Encoding: 497 497
Width: 600
HStem: 0 34<26 55 94 153 373 544> 0 190<555 575> 528 34<26 55 94 153 360 523>
VStem: 56 37<35 527> 255 35<256 336>
DStem: 328 562 360 528 319 375 353 375 524 528 573 539 322 20 372 34 555 190 589 190 544 34 575 0
Fore
93 34 m 1
 145 34 l 2
 232 34 255 165 255 284 c 0
 255 361 258 528 145 528 c 2
 93 528 l 1
 93 34 l 1
25 34 m 1
 56 34 l 1
 56 528 l 1
 25 528 l 1
 25 562 l 1
 145 562 l 2
 288 562 290 379 290 286 c 0
 290 193 287 0 145 0 c 2
 25 0 l 1
 25 34 l 1
544 34 m 1
 555 190 l 1
 589 190 l 1
 575 0 l 1
 322 0 l 1
 322 20 l 1
 524 528 l 1
 360 528 l 1
 353 375 l 1
 319 375 l 1
 328 562 l 1
 573 562 l 1
 573 539 l 1
 372 34 l 1
 544 34 l 1
EndSplineSet
MinimumDistance: x16,-1 x7,9 x7,8 x6,13 x6,5 
EndChar
StartChar: uni01F2
Encoding: 498 498
Width: 600
HStem: 0 34<26 55 94 153 390 555> 0 70<556 588> 392 34<356 518> 528 34<26 55 94 153>
VStem: 56 37<35 527> 255 35<256 336> 321 34<357 391> 555 34<35 69>
DStem: 519 392 571 392 337 34 389 34
Fore
571 392 m 1
 389 34 l 1
 555 34 l 1
 555 70 l 1
 589 70 l 1
 589 0 l 1
 337 0 l 1
 337 34 l 1
 519 392 l 1
 355 392 l 1
 355 356 l 1
 321 356 l 1
 321 426 l 1
 571 426 l 1
 571 392 l 1
93 34 m 1
 145 34 l 2
 232 34 255 165 255 284 c 0
 255 361 258 528 145 528 c 2
 93 528 l 1
 93 34 l 1
25 34 m 1
 56 34 l 1
 56 528 l 1
 25 528 l 1
 25 562 l 1
 145 562 l 2
 288 562 290 379 290 286 c 0
 290 193 287 0 145 0 c 2
 25 0 l 1
 25 34 l 1
EndSplineSet
MinimumDistance: x4,-1 y9,11 y9,10 y2,4 y2,3 x21,23 x21,22 x20,27 x20,19 
EndChar
StartChar: uni01F3
Encoding: 499 499
Width: 600
HStem: -2 37<134 141 256 289 386 555> 0 70<556 588> 356 70<322 355> 391 37<125 141 356 522>
VStem: 13 37<186 242> 219 37<34 55 174 254 371 590> 219 71<1 33> 321 34<357 391> 555 34<35 69>
DStem: 523 392 571 392 337 34 385 34
Fore
135 428 m 8
 176 428 198 405 219 370 c 1
 219 591 l 1
 97 565 l 1
 97 599 l 1
 256 632 l 1
 256 213 l 1
 256 34 l 1
 290 34 l 1
 290 0 l 1
 219 0 l 1
 219 56 l 1
 198 21 170 -2 135 -2 c 0
 59 -2 13 106 13 213 c 0
 13 324 44 428 135 428 c 8
135 391 m 0
 78 391 50 323 50 213 c 0
 50 103 97 35 135 35 c 0
 170 35 219 92 219 186 c 2
 219 240 l 2
 219 304 196 391 135 391 c 0
571 392 m 1
 385 34 l 1
 555 34 l 1
 555 70 l 1
 589 70 l 1
 589 0 l 1
 337 0 l 1
 337 34 l 1
 523 392 l 1
 355 392 l 1
 355 356 l 1
 321 356 l 1
 321 426 l 1
 571 426 l 1
 571 392 l 1
EndSplineSet
MinimumDistance: x23,-1 y28,30 y28,29 y21,23 y21,22 y9,7 x7,9 x7,8 
EndChar
StartChar: uni01F6
Encoding: 502 502
Width: 600
HStem: 0 34<33 112 151 218 448 464> 330 36<151 341> 404 34<451 534> 528 34<33 112 151 218 271 341 379 456>
VStem: 113 37<34 329 367 528> 341 37<127 329 367 528> 535 38<142 403>
Fore
341 330 m 1
 150 330 l 1
 150 34 l 1
 219 34 l 1
 219 0 l 1
 32 0 l 1
 32 34 l 1
 113 34 l 1
 113 528 l 1
 32 528 l 1
 32 562 l 1
 219 562 l 1
 219 528 l 1
 150 528 l 1
 150 366 l 1
 341 366 l 1
 341 528 l 1
 270 528 l 1
 270 562 l 1
 457 562 l 1
 457 528 l 1
 378 528 l 1
 378 143 l 2
 378 102 392 36 451 36 c 0
 504 36 535 82 535 156 c 2
 535 404 l 1
 450 404 l 1
 450 438 l 1
 573 438 l 1
 573 303 573 334 573 143 c 0
 573 44 505 -1 452 -1 c 0
 368 -1 341 76 341 143 c 2
 341 330 l 1
EndSplineSet
MinimumDistance: x28,-1 x29,0 y0,29 y0,31 x25,27 x25,26 x21,19 x21,20 x16,18 x16,17 x13,11 x13,12 x8,10 x8,9 x7,5 x7,6 x2,4 x2,3 
EndChar
StartChar: uni01F7
Encoding: 503 503
Width: 600
HStem: 392 34<40 118 327 359>
VStem: 119 37<-139 -137 -99 192 313 391> 525 37<208 224>
DStem: 119 -139 156 -161 40 -174 40 -208
Fore
525 213 m 0
 525 310 448 390 344 390 c 0
 245 390 156 288 156 186 c 0
 156 184 156 -97 156 -99 c 1
 286 -35 525 83 525 213 c 0
119 -139 m 1
 119 392 l 1
 39 392 l 1
 39 426 l 1
 156 426 l 1
 156 312 l 1
 189 370 266 427 343 427 c 0
 467 427 562 336 562 213 c 0
 562 58 297 -68 156 -137 c 1
 156 -161 l 1
 40 -208 l 1
 40 -174 l 1
 119 -139 l 1
EndSplineSet
MinimumDistance: x11,-1 x5,7 x5,6 
EndChar
StartChar: uni021C
Encoding: 540 540
Width: 600
HStem: 422 138<154 170> 525 37<309 331>
VStem: 424 34<157 173>
Fore
458 167 m 0
 458 55 377 0 310 -3 c 0
 249 -6 207 -27 179 -51 c 1
 179 -15 l 1
 203 15 263 27 310 34 c 0
 352 40 424 65 424 167 c 0
 424 252 354 287 322 279 c 2
 270 266 l 1
 270 300 l 1
 327 313 l 2
 379 325 419 380 419 427 c 0
 419 475 370 525 319 525 c 0
 256 525 189 485 170 422 c 1
 135 422 l 1
 143 442 154 469 154 491 c 0
 154 511 145 549 141 560 c 1
 175 560 l 1
 180 551 185 536 187 519 c 0
 188 510 191 512 199 518 c 1
 219 542 259 562 319 562 c 0
 379 562 453 500 453 427 c 0
 453 377 431 324 373 298 c 1
 410 295 458 233 458 167 c 0
EndSplineSet
MinimumDistance: x0,-1 
EndChar
StartChar: uni021D
Encoding: 541 541
Width: 600
HStem: 286 138<151 167> 389 37<306 335>
VStem: 416 34<313 329> 421 34<121 137>
Fore
455 133 m 0
 455 21 365 6 307 -3 c 0
 246 -12 194 -55 164 -87 c 1
 164 -47 l 1
 194 -10 260 28 307 34 c 0
 355 40 421 44 421 133 c 0
 421 206 340 219 314 209 c 2
 268 192 l 1
 268 226 l 1
 325 246 l 2
 375 264 416 278 416 325 c 0
 416 373 367 389 316 389 c 0
 253 389 186 349 167 286 c 1
 132 286 l 1
 140 306 151 333 151 355 c 0
 151 375 142 413 138 424 c 1
 172 424 l 1
 176 415 182 400 184 383 c 0
 185 374 187 376 196 382 c 1
 216 406 256 426 316 426 c 0
 376 426 450 398 450 325 c 0
 450 275 418 246 381 235 c 1
 419 224 455 199 455 133 c 0
EndSplineSet
MinimumDistance: x0,-1 
EndChar
StartChar: uni0222
Encoding: 546 546
Width: 600
HStem: 0 34<271 326> 311 34<239.557 351> 522 33<255 280> 562 34<325.125 339.573>
VStem: 63 34<160 192> 76 34<432 438> 500 34<160 192>
Fore
325 562 m 1
 325 596 l 1
 412 596 524 525 524 436 c 0
 524 385 482 346 429 326 c 1
 490 297 534 239 534 179 c 0
 534 82 481 0 301 0 c 4
 124 0 63 81 63 179 c 0
 63 241 107 299 172 327 c 1
 118 347 76 385 76 436 c 0
 76 525 193 555 281 555 c 1
 281 522 l 1
 186 522 110 488 110 436 c 0
 110 390 175 345 260 345 c 2
 345 345 l 2
 429 345 490 391 490 436 c 0
 490 488 395 562 325 562 c 1
97 179 m 0
 97 104 138 34 301 34 c 4
 466 34 500 104 500 179 c 0
 500 242 430 311 345 311 c 2
 260 311 l 2
 164 311 97 243 97 179 c 0
EndSplineSet
MinimumDistance: x4,-1 
EndChar
StartChar: uni0223
Encoding: 547 547
Width: 600
HStem: 0 36<291 307> 310 37<259 339>
VStem: 131 37<160 192> 139 37<432 448> 432 37<160 192>
Fore
432 178 m 0
 432 262 379 310 329 310 c 2
 271 310 l 2
 220 310 168 269 168 178 c 0
 168 96 185 36 300 36 c 0
 402 36 432 97 432 178 c 0
389 502 m 1
 409 532 l 1
 433 519 461 480 461 437 c 0
 461 390 433 349 394 328 c 1
 438 301 469 246 469 178 c 0
 469 86 429 0 300 0 c 0
 157 0 131 87 131 178 c 0
 131 251 161 303 204 329 c 1
 167 350 139 390 139 436 c 0
 139 481 161 513 193 533 c 1
 211 502 l 1
 189 487 176 464 176 436 c 0
 176 387 221 347 271 347 c 2
 329 347 l 2
 380 347 424 388 424 437 c 0
 424 465 411 487 389 502 c 1
EndSplineSet
MinimumDistance: x9,-1 
EndChar
StartChar: uni0224
Encoding: 548 548
Width: 600
HStem: 0 34<177 428> 528 34<164 411>
DStem: 131 562 164 528 122 375 157 375 412 528 462 539 125 20 176 34 429 0 467 34 420 -112 455 -112
Fore
467 34 m 1
 455 -112 l 1
 420 -112 l 1
 429 0 l 1
 125 0 l 1
 125 20 l 1
 412 528 l 1
 164 528 l 1
 157 375 l 1
 122 375 l 1
 131 562 l 1
 462 562 l 1
 462 539 l 1
 176 34 l 1
 467 34 l 1
EndSplineSet
MinimumDistance: x0,-1 
EndChar
StartChar: uni0225
Encoding: 549 549
Width: 600
HStem: 0 34<152 482> 392 34<118 446>
VStem: 83 34<357 391> 483 34<-37 -1>
DStem: 447 392 499 392 99 34 151 34
Fore
499 392 m 1
 151 34 l 1
 517 34 l 1
 517 -38 l 1
 483 -38 l 1
 483 0 l 1
 99 0 l 1
 99 34 l 1
 447 392 l 1
 117 392 l 1
 117 356 l 1
 83 356 l 1
 83 426 l 1
 499 426 l 1
 499 392 l 1
EndSplineSet
MinimumDistance: x2,-1 y9,11 y9,10 y5,3 y5,4 x5,7 x5,6 
EndChar
StartChar: uni0250
Encoding: 592 592
Width: 600
HStem: -10 37<329 361> 124 37<329 361> 392 34<42 135> 403 37<329 361>
VStem: 135 37<123 148 188 316 373 391> 502 37<278 294>
Fore
172 188 m 1
 202 179 291 161 357 161 c 0
 435 161 502 212 502 283 c 0
 502 356 424 403 341 403 c 0
 261 403 221 375 172 316 c 1
 172 188 l 1
135 392 m 1
 41 392 l 1
 41 426 l 1
 172 426 l 1
 172 372 l 1
 215 416 262 440 341 440 c 0
 433 440 539 386 539 283 c 0
 539 185 448 124 357 124 c 0
 296 124 214 138 172 149 c 1
 172 132 l 2
 172 81 248 27 343 27 c 0
 389 27 460 50 503 69 c 1
 517 35 l 1
 517 35 492 24 458 12 c 0
 424 1 380 -10 343 -10 c 0
 237 -10 135 48 135 132 c 2
 135 392 l 1
EndSplineSet
MinimumDistance: x11,-1 x5,7 x5,6 
EndChar
StartChar: uni0251
Encoding: 593 593
Width: 600
HStem: -1 37<261 293 501 581> 0 21G<465 582> 390 37<261 293> 406 20G<464 501>
VStem: 53 37<207 223> 465 36<34 94 207 223 331 426> 465 117<1 33>
Fore
582 0 m 1
 465 0 l 1
 465 95 l 1
 424 37 355 -1 278 -1 c 0
 154 -1 53 94 53 213 c 0
 53 332 154 427 277 427 c 0
 355 427 424 389 464 331 c 1
 464 331 464 386 464 426 c 1
 501 426 l 1
 501 34 l 1
 582 34 l 1
 582 0 l 1
465 213 m 0
 465 315 376 390 278 390 c 0
 173 390 90 310 90 213 c 0
 90 116 173 36 277 36 c 0
 376 36 465 111 465 213 c 0
EndSplineSet
MinimumDistance: x0,-1 y0,9 x9,0 x9,10 
EndChar
StartChar: uni0252
Encoding: 594 594
Width: 600
HStem: 0 37<313 345> 392 34<26 104 313 345>
VStem: 105 37<1 94 208 224 332 391> 517 37<208 224>
Fore
25 426 m 1
 142 426 l 1
 142 331 l 1
 183 389 252 427 329 427 c 0
 452 427 554 332 554 213 c 0
 554 94 452 0 329 0 c 0
 252 0 183 37 142 95 c 1
 142 0 l 1
 105 0 l 1
 105 392 l 1
 25 392 l 1
 25 426 l 1
142 213 m 0
 142 111 230 37 329 37 c 0
 434 37 517 117 517 213 c 0
 517 310 434 390 329 390 c 0
 230 390 142 315 142 213 c 0
EndSplineSet
MinimumDistance: x4,-1 y9,7 y9,8 x9,0 x9,10 
EndChar
StartChar: uni0253
Encoding: 595 595
Width: 600
HStem: 0 34<40 119 327 359> 390 37<327 359> 620.179 13.142<190 199>
VStem: 119 38<35 94 207 223 332 557> 196 72<584 597> 531 37<207 223>
Fore
344 390 m 0
 245 390 156 315 156 213 c 0
 156 111 245 36 343 36 c 0
 448 36 531 116 531 213 c 0
 531 310 448 390 344 390 c 0
119 34 m 1
 119 541 l 2
 119 595 148 634 202 634 c 0
 241 634 268 616 268 584 c 0
 270 544 196 547 196 597 c 0
 196 605 198 611 203 618 c 1
 179 627 156 607 156 583 c 2
 156 331 l 1
 197 389 266 427 343 427 c 0
 467 427 568 332 568 213 c 0
 568 94 467 -1 344 -1 c 0
 266 -1 197 37 157 95 c 1
 157 0 l 1
 39 0 l 1
 39 34 l 1
 119 34 l 1
EndSplineSet
MinimumDistance: x13,-1 x4,17 x4,18 
EndChar
StartChar: uni0254
Encoding: 596 596
Width: 600
HStem: 1 37<273 305> 391 37<273 289>
VStem: 473 37<209 225>
Fore
125 51 m 1
 121 28 l 1
 88 36 l 1
 88 36 98 75 100 92 c 1
 92 102 85 116 81 127 c 1
 116 139 l 1
 146 80 210 38 286 38 c 0
 390 38 473 118 473 215 c 0
 473 311 386 391 277 391 c 0
 232 391 163 365 131 340 c 1
 111 373 l 1
 150 405 222 428 277 428 c 0
 409 428 510 334 510 215 c 0
 510 96 409 1 286 1 c 0
 232 1 179 21 140 52 c 0
 132 58 127 61 125 51 c 1
EndSplineSet
MinimumDistance: x12,-1 
EndChar
StartChar: uni0255
Encoding: 597 597
Width: 600
HStem: 1 37<304 321> 216 37<321 353> 391 37<289 321>
VStem: 82 38<-50.9375 -25.9518 205 221> 481 37<135 147>
Fore
162 103 m 1
 198 64 253 38 314 38 c 0
 404 38 481 90 481 145 c 0
 481 205 378 216 339 216 c 0
 259 216 202 170 162 103 c 1
81 214 m 0
 81 333 182 428 305 428 c 0
 359 428 412 407 451 377 c 0
 459 371 464 368 466 378 c 2
 470 400 l 1
 503 393 l 1
 503 393 493 354 491 337 c 1
 499 326 506 313 510 302 c 1
 475 289 l 1
 445 349 381 391 305 391 c 0
 201 391 118 311 118 214 c 0
 118 186 125 159 139 135 c 1
 185 204 249 253 339 253 c 0
 403 253 518 236 518 145 c 0
 518 56 407 1 314 1 c 0
 246 1 186 26 143 67 c 1
 128 31 120 -10 120 -51 c 1
 82 -51 l 1
 82 1 95 52 117 98 c 1
 94 131 81 171 81 214 c 0
EndSplineSet
MinimumDistance: x17,-1 
EndChar
StartChar: uni0256
Encoding: 598 598
Width: 600
HStem: -125 16<559 566> -1 37<261 293> 390 37<261 293>
VStem: 53 37<195 227> 465 36<-31 94 195 227 332 588> 560 72<-88 -75>
Fore
632 -75 m 0
 632 -104 606 -125 567 -125 c 0
 513 -125 465 -84 465 -30 c 2
 465 95 l 1
 424 37 355 -1 278 -1 c 0
 154 -1 53 94 53 213 c 0
 53 332 154 427 277 427 c 0
 355 427 424 389 464 331 c 1
 464 589 l 1
 304 559 l 1
 304 593 l 1
 501 632 l 1
 501 -24 l 2
 501 -66 543 -119 567 -109 c 1
 563 -102 560 -97 560 -88 c 16
 560 -54 580 -44 598 -44 c 0
 618 -44 632 -54 632 -75 c 0
465 213 m 0
 465 315 376 390 278 390 c 0
 173 390 90 310 90 213 c 0
 90 116 173 36 277 36 c 0
 376 36 465 111 465 213 c 0
EndSplineSet
EndChar
StartChar: uni0257
Encoding: 599 599
Width: 600
HStem: -1 37<261 293 502 581> 0 21G<465 582> 390 37<261 293> 620.005 13.3183<554 562>
VStem: 53 37<207 223> 465 36<34 94 207 223 332 543> 465 117<1 33>
Fore
632 584 m 0
 633 544 560 547 560 597 c 0
 560 605 562 611 566 618 c 1
 542 628 501 599 501 574 c 2
 501 34 l 1
 582 34 l 1
 582 0 l 1
 465 0 l 1
 465 95 l 1
 424 37 355 -1 278 -1 c 0
 154 -1 53 94 53 213 c 0
 53 332 154 427 277 427 c 0
 355 427 424 389 464 331 c 1
 464 539 l 2
 464 593 512 634 566 634 c 0
 605 634 631 616 632 584 c 0
465 213 m 0
 465 315 376 390 278 390 c 0
 173 390 90 310 90 213 c 0
 90 116 173 36 277 36 c 0
 376 36 465 111 465 213 c 0
EndSplineSet
MinimumDistance: x5,-1 y6,4 x4,6 x4,5 
EndChar
StartChar: uni0258
Encoding: 600 600
Width: 600
HStem: 0 37<278 310> 213 34<112 478> 389 37<278 310>
VStem: 482 37<208 212>
Fore
111 247 m 1
 479 247 l 1
 462 327 387 389 295 389 c 0
 203 389 128 327 111 247 c 1
70 213 m 1
 70 335 172 426 295 426 c 0
 418 426 519 331 519 213 c 0
 519 94 413 0 290 0 c 0
 222 0 147 26 102 64 c 1
 126 92 l 1
 166 63 231 37 290 37 c 0
 394 37 482 116 482 213 c 1
 70 213 l 1
EndSplineSet
MinimumDistance: x5,-1 
EndChar
StartChar: uni0259
Encoding: 601 601
Width: 600
HStem: -2 37<288 320> 178 34<121 487> 388 37<288 306>
VStem: 492 37<212.125 229.617>
Fore
120 178 m 1
 137 97 212 35 304 35 c 0
 396 35 471 97 488 178 c 1
 120 178 l 1
80 212 m 1
 492 212 l 1
 492 308 404 388 299 388 c 0
 240 388 175 362 135 332 c 1
 111 361 l 1
 156 399 231 425 299 425 c 0
 422 425 529 331 529 212 c 0
 529 93 427 -2 304 -2 c 0
 181 -2 80 90 80 212 c 1
EndSplineSet
MinimumDistance: x9,-1 
EndChar
StartChar: uni025A
Encoding: 602 602
Width: 600
HStem: -5 37<259 278> 205.042 34.5177<535 541> 389 37<246 278>
VStem: 450 37<187 219>
DStem: 431 282 443 249 38 196 79 169
Fore
79 169 m 1
 96 104 170 32 268 32 c 0
 366 32 450 105 450 199 c 0
 450 216 448 233 443 249 c 1
 79 169 l 1
72 362 m 1
 131 399 182 426 260 426 c 0
 352 426 432 370 467 291 c 1
 495 303 493 331 498 356 c 1
 507 295 517 218 553 244 c 0
 559 248 564 254 570 259 c 1
 593 235 l 1
 545 190 507 193 485 262 c 1
 479 259 l 1
 484 240 487 220 487 199 c 0
 487 81 383 -5 269 -5 c 0
 138 -5 38 104 38 196 c 1
 431 282 l 1
 400 344 335 389 261 389 c 0
 192 389 148 367 91 330 c 1
 72 362 l 1
EndSplineSet
MinimumDistance: x13,-1 
EndChar
StartChar: uni025B
Encoding: 603 603
Width: 600
HStem: -3 37<268 300> 222 34<268 329> 286 138<428 444> 389 37<268 290>
VStem: 140 34<125 141> 145 34<317 333>
Fore
140 133 m 0
 140 199 176 224 214 235 c 1
 177 246 145 275 145 325 c 0
 145 398 219 426 279 426 c 0
 339 426 379 406 399 382 c 1
 407 376 410 374 411 383 c 0
 413 400 418 415 423 424 c 1
 457 424 l 1
 453 413 444 375 444 355 c 0
 444 333 455 306 463 286 c 1
 428 286 l 1
 409 349 342 389 279 389 c 0
 228 389 179 373 179 325 c 0
 179 278 221 256 274 256 c 2
 330 256 l 1
 330 222 l 1
 279 222 l 2
 251 222 174 206 174 133 c 0
 174 44 245 34 288 34 c 0
 335 34 382 57 415 99 c 1
 446 78 l 1
 408 30 349 -3 288 -3 c 0
 226 -3 140 21 140 133 c 0
EndSplineSet
MinimumDistance: x12,-1 
EndChar
StartChar: uni025C
Encoding: 604 604
Width: 600
HStem: -3 37<278 310> 222 34<251 310> 286 138<136 153> 389 37<291 310>
VStem: 401 34<317 333> 406 34<125 141>
Fore
440 133 m 0
 440 21 354 -3 292 -3 c 0
 231 -3 172 30 134 78 c 1
 165 99 l 1
 198 57 245 34 292 34 c 0
 335 34 406 44 406 133 c 0
 406 206 329 222 301 222 c 2
 250 222 l 1
 250 256 l 1
 306 256 l 2
 360 256 401 278 401 325 c 0
 401 373 352 389 301 389 c 0
 238 389 171 349 153 286 c 1
 118 286 l 1
 125 306 136 333 136 355 c 0
 136 375 127 413 123 424 c 1
 157 424 l 1
 162 415 167 400 169 383 c 0
 170 374 173 376 181 382 c 1
 201 406 241 426 301 426 c 0
 361 426 435 398 435 325 c 0
 435 275 403 246 366 235 c 1
 404 224 440 199 440 133 c 0
EndSplineSet
MinimumDistance: x0,-1 
EndChar
StartChar: uni025D
Encoding: 605 605
Width: 600
HStem: -1 36<233 265> 223 37<210 258> 266 34<519 522> 391 37<233 281>
VStem: 393 37<319 328> 407 37<127 143>
Fore
415 375 m 1
 452 392 465 411 474 427 c 1
 474 415 486 300 520 300 c 0
 540 300 553 318 566 342 c 1
 596 326 l 1
 585 304 562 266 520 266 c 0
 475 266 459 323 453 358 c 1
 445 351 436 346 428 343 c 1
 429 336 430 329 430 322 c 0
 430 290 408 250 316 238 c 1
 417 232 444 176 444 136 c 0
 444 19 344 -1 246 -1 c 0
 195 -1 157 12 111 37 c 1
 127 71 l 1
 168 49 203 35 247 35 c 0
 352 35 407 62 407 136 c 0
 407 193 285 223 244 223 c 2
 209 223 l 1
 209 260 l 1
 244 260 l 2
 292 260 393 289 393 322 c 0
 393 380 302 391 256 391 c 0
 195 391 176 382 132 355 c 0
 122 348 123 336 109 313 c 1
 73 325 l 1
 78 337 84 350 92 361 c 1
 90 378 80 417 80 417 c 1
 113 424 l 1
 118 402 l 1
 120 391 124 396 132 400 c 0
 164 415 184 428 256 428 c 0
 310 428 383 419 415 375 c 1
EndSplineSet
MinimumDistance: x10,-1 
EndChar
StartChar: uni025E
Encoding: 606 606
Width: 600
HStem: 0 36<283 315> 224 37<251 302> 389 38<283 331>
VStem: 75 37<208 226> 472 37<327 336> 486 37<128 136>
Fore
112 213 m 0
 112 120 202 36 300 36 c 8
 384 36 486 63 486 134 c 0
 486 197 326 224 285 224 c 2
 250 224 l 1
 250 261 l 1
 285 261 l 2
 333 261 472 277 472 328 c 0
 472 391 345 389 300 389 c 0
 195 389 112 308 112 213 c 0
523 134 m 0
 523 24 404 0 300 0 c 16
 180 0 75 94 75 213 c 0
 75 332 177 427 300 427 c 0
 371 427 509 423 509 328 c 0
 509 288 478 243 358 238 c 1
 478 236 523 184 523 134 c 0
EndSplineSet
MinimumDistance: x9,-1 
EndChar
StartChar: uni025F
Encoding: 607 607
Width: 600
HStem: -197 37<172 188> 25 34<180 289 327 431> 392 34<160 289>
VStem: 290 37<-37 25 59 391>
Fore
76 -134 m 1
 95 -147 141 -160 185 -160 c 0
 243 -160 290 -87 290 -31 c 2
 290 25 l 1
 179 25 l 1
 179 59 l 1
 290 59 l 1
 290 392 l 1
 159 392 l 1
 159 426 l 1
 327 426 l 1
 327 59 l 1
 432 59 l 1
 432 25 l 1
 327 25 l 1
 327 -31 l 2
 327 -97 273 -197 185 -197 c 0
 128 -197 81 -182 60 -167 c 1
 76 -134 l 1
EndSplineSet
MinimumDistance: x12,-1 x9,11 y11,9 y11,10 x11,13 x11,12 x7,9 x7,8 x3,5 x3,4 
EndChar
StartChar: uni0260
Encoding: 608 608
Width: 600
HStem: -197 37<252 271> -1 37<252 284> 390 37<252 284 493 574> 406 20G<456 575>
VStem: 44 37<203 219> 456 37<-37 95 203 219 330 392> 456 119<393 425>
Fore
269 390 m 0
 164 390 81 310 81 213 c 0
 81 116 164 36 268 36 c 0
 373 36 456 116 456 213 c 0
 456 310 373 390 269 390 c 0
575 426 m 1
 575 392 l 1
 493 392 l 1
 493 258 493 185 493 -31 c 0
 493 -116 372 -197 266 -197 c 0
 190 -197 114 -163 73 -139 c 1
 89 -106 l 1
 122 -129 205 -160 265 -160 c 0
 346 -160 456 -91 456 -31 c 2
 456 96 l 1
 416 38 346 -1 269 -1 c 0
 145 -1 44 94 44 213 c 0
 44 332 145 427 268 427 c 0
 347 427 416 388 456 330 c 1
 456 426 l 1
 575 426 l 1
EndSplineSet
MinimumDistance: x4,-1 y4,6 x6,4 x6,5 
EndChar
StartChar: uni0261
Encoding: 609 609
Width: 600
HStem: -197 37<252 271> -1 37<252 284> 390 37<252 284>
VStem: 44 37<203 219> 456 37<-37 95 203 219>
Fore
269 390 m 0
 164 390 81 310 81 213 c 0
 81 116 164 36 268 36 c 0
 373 36 456 116 456 213 c 0
 456 310 373 390 269 390 c 0
493 211 m 1
 493 -31 l 0
 493 -116 372 -197 266 -197 c 0
 190 -197 114 -163 73 -139 c 1
 89 -106 l 1
 122 -129 205 -160 265 -160 c 0
 346 -160 456 -91 456 -31 c 2
 456 96 l 1
 416 38 346 -1 269 -1 c 0
 145 -1 44 94 44 213 c 0
 44 332 145 427 268 427 c 0
 407 427 493 339 493 211 c 1
EndSplineSet
MinimumDistance: x4,-1 
EndChar
StartChar: uni0262
Encoding: 610 610
Width: 600
HStem: -2 37<300 320> 179 34<376 484> 279 137<470 486> 389 37<300 332>
VStem: 76 37<206 222> 375 145<179 212>
Fore
318 426 m 0
 379 426 421 398 441 375 c 1
 449 369 452 367 453 376 c 0
 455 393 460 408 465 416 c 1
 499 416 l 1
 495 405 486 368 486 347 c 0
 486 326 497 298 505 279 c 1
 470 279 l 1
 451 342 381 389 318 389 c 0
 219 389 113 335 113 212 c 0
 113 104 210 35 307 35 c 0
 396 35 482 105 485 179 c 1
 375 179 l 1
 375 213 l 1
 520 213 l 1
 520 179 l 1
 517 82 414 -2 307 -2 c 0
 183 -2 76 80 76 212 c 0
 76 353 187 426 318 426 c 0
EndSplineSet
MinimumDistance: x14,-1 
EndChar
StartChar: uni0263
Encoding: 611 611
Width: 600
HStem: -167 37<292.703 304> 598 34<13 65 106 207 395 497 538 589>
VStem: 12 196<598 631> 241.327 42.494<-119 -111> 317.845 37.3403<-119 -103> 394 196<598 631>
DStem: 65 598 105 598 280 -6 301 40 498 598 538 598 301 40 321 -10
Fore
302 -60 m 1
 288 -96 l 2
 278 -123 286 -130 301 -130 c 0
 338 -130 306 -71 302 -60 c 1
394 598 m 1
 394 632 l 1
 590 632 l 1
 590 598 l 1
 538 598 l 1
 321 -10 l 1
 350 -84 l 2
 363 -117 355 -167 301 -167 c 0
 252 -167 231 -130 246 -92 c 2
 280 -6 l 1
 65 598 l 1
 12 598 l 1
 12 632 l 1
 208 632 l 1
 208 598 l 1
 105 598 l 1
 301 40 l 1
 498 598 l 1
 394 598 l 1
EndSplineSet
MinimumDistance: x5,-1 
EndChar
StartChar: uni0264
Encoding: 612 612
Width: 600
HStem: -165 37<292.445 304> 392 34<14 66 107 208 392 494 535 586>
VStem: 13 196<392 425> 238.354 42.2761<-117 -108> 319.682 38.6556<-117 -108> 391 196<392 425>
DStem: 66 392 106 392 280 -6 301 31 495 392 535 392 301 31 321 -10
Fore
302 -60 m 1
 285 -94 l 2
 272 -120 286 -128 301 -128 c 0
 342 -128 306 -71 302 -60 c 1
391 392 m 1
 391 426 l 1
 587 426 l 1
 587 392 l 1
 535 392 l 1
 321 -10 l 1
 353 -82 l 2
 368 -115 355 -165 301 -165 c 0
 252 -165 227 -128 243 -90 c 1
 280 -6 l 1
 66 392 l 1
 13 392 l 1
 13 426 l 1
 209 426 l 1
 209 392 l 1
 106 392 l 1
 301 31 l 1
 495 392 l 1
 391 392 l 1
EndSplineSet
MinimumDistance: x5,-1 
EndChar
StartChar: uni0265
Encoding: 613 613
Width: 600
HStem: 193 37<266.181 283> 598 34<27 110 148 233 373 455 494 579>
VStem: 110 37<335 598> 456 37<42 256 300 598> 456 124<30 41>
Fore
456 257 m 1
 446 250 432 243 418 235 c 0
 379 215 327 193 281 193 c 0
 198 193 110 270 110 336 c 2
 110 598 l 1
 26 598 l 1
 26 632 l 1
 234 632 l 1
 234 598 l 1
 147 598 l 1
 147 336 l 2
 147 295 213 230 281 230 c 0
 333 230 409 269 456 300 c 1
 456 598 l 1
 372 598 l 1
 372 632 l 1
 580 632 l 1
 580 598 l 1
 493 598 l 1
 493 41 l 1
 580 64 l 1
 580 30 l 1
 456 -1 l 1
 456 257 l 1
EndSplineSet
MinimumDistance: x16,-1 x18,16 x18,17 x13,15 x13,14 x9,7 x9,8 x4,6 x4,5 
EndChar
StartChar: uni0266
Encoding: 614 614
Width: 600
HStem: 0 34<32 117 155 238 378 462 500 584> 400 37<319 335> 621.628 12.4938<187 195>
VStem: 117 37<34 329 374 557> 463 37<34 295>
Fore
117 34 m 1
 117 542 l 2
 117 592 146 635 200 635 c 0
 239 635 265 617 266 585 c 0
 267 545 194 548 194 598 c 0
 194 606 196 612 200 619 c 1
 176 629 154 609 154 584 c 2
 154 373 l 1
 165 379 178 387 193 395 c 0
 232 415 284 437 330 437 c 0
 413 437 500 360 500 293 c 2
 500 34 l 1
 585 34 l 1
 585 0 l 1
 377 0 l 1
 377 34 l 1
 463 34 l 1
 463 293 l 2
 463 334 398 400 330 400 c 0
 277 400 201 361 154 329 c 1
 154 34 l 1
 239 34 l 1
 239 0 l 1
 31 0 l 1
 31 34 l 1
 117 34 l 1
EndSplineSet
MinimumDistance: x12,-1 x16,14 x16,15 x11,13 x11,12 x20,22 x20,21 x0,23 x0,24 
EndChar
StartChar: uni0267
Encoding: 615 615
Width: 600
HStem: -63 16<399 409> 0 34<32 117 155 238> 400 37<319 335> 621.628 12.4938<187 195>
VStem: 117 37<34 329 374 557> 463 37<18.486 295>
Fore
463 293 m 2
 463 334 398 400 330 400 c 0
 277 400 201 361 154 329 c 1
 154 34 l 1
 239 34 l 1
 239 0 l 1
 31 0 l 1
 31 34 l 1
 117 34 l 1
 117 542 l 2
 117 592 146 635 200 635 c 0
 239 635 265 617 266 585 c 0
 267 545 194 548 194 598 c 0
 194 606 196 612 200 619 c 1
 176 629 154 609 154 584 c 2
 154 373 l 1
 165 379 178 387 193 395 c 0
 232 415 284 437 330 437 c 0
 413 437 500 360 500 293 c 2
 500 32 l 2
 500 -22 453 -63 399 -63 c 0
 360 -63 334 -45 333 -13 c 0
 332 27 405 24 405 -26 c 0
 405 -34 403 -40 399 -47 c 1
 422 -56 463 -21 463 11 c 2
 463 293 l 2
EndSplineSet
MinimumDistance: x18,-1 x8,6 x8,7 x3,5 x3,4 
EndChar
StartChar: uni0268
Encoding: 616 616
Width: 600
HStem: 0 34<104 288 327 498> 194 34<156 288 326 475> 392 34<104 288> 465 97<253 325>
VStem: 289 37<35 193 229 391>
Fore
289 392 m 1
 103 392 l 1
 103 426 l 1
 326 426 l 1
 326 228 l 1
 476 228 l 1
 476 194 l 1
 326 194 l 1
 326 34 l 1
 499 34 l 1
 499 0 l 1
 103 0 l 1
 103 34 l 1
 289 34 l 1
 289 194 l 1
 155 194 l 1
 155 228 l 1
 289 228 l 1
 289 392 l 1
326 562 m 1
 326 465 l 1
 252 465 l 1
 252 562 l 1
 326 562 l 1
EndSplineSet
MinimumDistance: x9,-1 x2,4 y4,2 y4,3 x14,16 x14,15 x13,11 x13,12 x8,10 x8,9 x4,6 x4,5 x0,2 x0,1 
EndChar
StartChar: uni0269
Encoding: 617 617
Width: 600
HStem: -1 29<391 397> 392 34<104 289>
VStem: 289 37<125 391>
Fore
326 426 m 1
 326 126 l 2
 326 88 357 28 394 28 c 0
 413 28 444 38 454 56 c 1
 450 63 444 76 444 84 c 0
 444 153 518 156 516 97 c 0
 515 65 448 -1 395 -1 c 0
 348 -1 289 42 289 139 c 2
 289 392 l 1
 103 392 l 1
 103 426 l 1
 326 426 l 1
EndSplineSet
MinimumDistance: x0,-1 x8,10 x8,9 
EndChar
StartChar: uni026A
Encoding: 618 618
Width: 600
HStem: 0 34<90 284 322 509> 392 34<91 284 322 510>
VStem: 285 36<34 392>
Fore
285 392 m 1
 90 392 l 1
 90 426 l 1
 511 426 l 1
 511 392 l 1
 321 392 l 1
 321 34 l 1
 510 34 l 1
 510 0 l 1
 89 0 l 1
 89 34 l 1
 285 34 l 1
 285 392 l 1
EndSplineSet
MinimumDistance: x3,-1 x11,9 x11,10 x6,8 x6,7 x5,3 x5,4 x0,2 x0,1 
EndChar
StartChar: uni026B
Encoding: 619 619
Width: 600
HStem: 0 34<93 254 293 507> 299 39<292 304> 330 39<234 240>
VStem: 255 37<34 298 366 588>
DStem: 292 632 255 589 92 583 92 549
Fore
255 589 m 1
 92 549 l 1
 92 583 l 1
 292 632 l 1
 292 340 l 1
 295 338 298 338 300 338 c 0
 324 338 337 348 350 365 c 1
 354 365 l 1
 357 332 336 298 302 298 c 0
 299 298 295 298 292 299 c 1
 292 34 l 1
 508 34 l 1
 508 0 l 1
 92 0 l 1
 92 34 l 1
 255 34 l 1
 255 321 l 1
 249 326 243 330 235 330 c 0
 210 330 192 319 179 298 c 1
 170 298 l 1
 170 336 204 369 238 369 c 0
 244 369 250 367 255 365 c 1
 255 589 l 1
EndSplineSet
MinimumDistance: x11,-1 x15,13 x15,14 x10,12 x10,11 
EndChar
StartChar: uni026C
Encoding: 620 620
Width: 600
HStem: 0 34<93 254 292 507> 276 34<292 376>
VStem: 134 34<356.056 368> 255 37<34 277 312 417 452 588>
DStem: 292 632 255 589 92 583 92 549
Fore
255 311 m 1
 255 418 l 1
 219 415 168 403 168 366 c 0
 168 324 217 313 255 311 c 1
255 589 m 1
 92 549 l 1
 92 583 l 1
 292 632 l 1
 292 310 l 1
 377 310 l 1
 377 276 l 1
 292 276 l 1
 292 34 l 1
 508 34 l 1
 508 0 l 1
 92 0 l 1
 92 34 l 1
 255 34 l 1
 255 277 l 1
 200 280 134 299 134 366 c 0
 134 427 203 448 255 452 c 1
 255 589 l 1
EndSplineSet
MinimumDistance: x12,-1 x16,14 x16,15 x11,13 x11,12 x7,9 x7,8 
EndChar
StartChar: uni026D
Encoding: 621 621
Width: 600
HStem: -95 16<348 356>
VStem: 255 37<-10 588>
DStem: 292 632 255 589 92 583 92 549
Fore
357 -79 m 1
 353 -72 351 -66 351 -58 c 0
 351 -8 424 -5 423 -45 c 0
 422 -77 396 -95 357 -95 c 0
 303 -95 255 -54 255 0 c 2
 255 589 l 1
 92 549 l 1
 92 583 l 1
 292 632 l 1
 292 -9 l 2
 292 -34 335 -88 357 -79 c 1
EndSplineSet
MinimumDistance: x8,-1 
EndChar
StartChar: uni026E
Encoding: 622 622
Width: 600
HStem: -189 38<225 337> 0 34<34 119 158 241> 403 37<321 337>
VStem: 63 37<-81 -67> 120 37<35 332 377 589> 398 37<33 51> 465 37<-91.1696 -77 291 298>
Fore
466 296 m 0
 466 336 401 403 333 403 c 0
 280 403 204 363 157 332 c 1
 157 34 l 1
 242 34 l 1
 242 0 l 1
 33 0 l 1
 33 34 l 1
 120 34 l 1
 120 590 l 1
 33 567 l 1
 33 601 l 1
 157 632 l 1
 157 376 l 1
 168 382 181 390 196 397 c 0
 234 418 287 440 332 440 c 0
 416 440 503 360 503 296 c 0
 503 243 435 88 435 39 c 0
 435 -5 502 -18 502 -80 c 0
 502 -201 330 -189 250 -189 c 0
 146 -189 63 -170 63 -66 c 1
 100 -66 l 1
 100 -132 144 -151 250 -151 c 0
 305 -151 465 -165 465 -80 c 0
 465 -39 398 -25 398 39 c 0
 398 102 466 244 466 296 c 0
EndSplineSet
MinimumDistance: x18,-1 x8,6 x8,7 x3,5 x3,4 
EndChar
StartChar: uni026F
Encoding: 623 623
Width: 600
HStem: -12 37<175 181 367 377> 0 34<513 598> 392 34<0 84 196 279 392 474 513 598>
VStem: -1 122<392 425.861> 84 38<94 391> 280 37<95 391> 475 37<34 51 96 392> 475 124<1 33>
Fore
286 55 m 1
 253 14 198 -12 179 -12 c 0
 87 -12 84 66 84 132 c 2
 84 392 l 1
 -1 392 l 1
 -1 426 l 1
 121 426 l 1
 121 324 122 264 122 132 c 0
 122 91 117 25 179 25 c 0
 215 25 254 65 280 95 c 1
 280 107 279 120 279 132 c 2
 279 392 l 1
 195 392 l 1
 195 426 l 1
 317 426 l 1
 317 324 317 264 317 132 c 0
 317 91 324 25 375 25 c 0
 414 25 450 66 475 96 c 1
 475 392 l 1
 391 392 l 1
 391 426 l 1
 599 426 l 1
 599 392 l 1
 512 392 l 1
 512 34 l 1
 599 34 l 1
 599 0 l 1
 475 0 l 1
 475 52 l 1
 460 21 396 -12 375 -12 c 0
 319 -12 296 17 286 55 c 1
EndSplineSet
MinimumDistance: x21,-1 x24,26 x24,25 x23,21 x23,22 x18,20 x18,19 x11,13 x11,12 x3,5 x3,4 
EndChar
StartChar: uni0270
Encoding: 624 624
Width: 600
HStem: -159 34<513 598> -12 37<175 181 367 377> 392 34<0 84 196 279 392 474 513 598>
VStem: 84 37<94 391> 280 37<95.0156 391> 475 37<-125 51 96 392> 475 124<-158 -126>
Fore
286 55 m 1
 253 14 198 -12 179 -12 c 0
 87 -12 84 66 84 132 c 2
 84 392 l 1
 -1 392 l 1
 -1 426 l 1
 121 426 l 1
 121 132 l 0
 121 91 117 25 179 25 c 0
 215 25 254 65 280 95 c 1
 280 107 279 120 279 132 c 2
 279 392 l 1
 195 392 l 1
 195 426 l 1
 317 426 l 1
 317 132 l 0
 317 91 307 25 375 25 c 0
 414 25 450 66 475 96 c 1
 475 392 l 1
 391 392 l 1
 391 426 l 1
 599 426 l 1
 599 392 l 1
 512 392 l 1
 512 -125 l 1
 599 -125 l 1
 599 -159 l 1
 475 -159 l 1
 475 52 l 1
 460 21 396 -12 375 -12 c 0
 319 -12 296 17 286 55 c 1
EndSplineSet
MinimumDistance: x21,-1 x24,26 x24,25 x23,21 x23,22 x18,20 x18,19 x11,13 x11,12 x3,5 x3,4 
EndChar
StartChar: uni0271
Encoding: 625 625
Width: 600
HStem: 0 34<17 102 140 223 336 419> 392 34<17 102> 403 37<239 242 429 445>
VStem: 103 36<35 332 377 391> 298 37<34 333> 298 122<0 34> 367.822 74.1107<-92 -85> 494 37<-56 335>
Fore
443 -119 m 0
 465 -107 494 -81 494 -56 c 1
 494 -56 493 164 493 296 c 0
 493 337 498 403 435 403 c 0
 400 403 361 362 335 333 c 1
 335 321 335 308 335 296 c 2
 335 34 l 1
 420 34 l 1
 420 0 l 1
 298 0 l 1
 298 102 298 164 298 296 c 0
 298 337 308 403 240 403 c 0
 201 403 165 362 139 332 c 1
 139 34 l 1
 224 34 l 1
 224 0 l 1
 16 0 l 1
 16 34 l 1
 103 34 l 1
 103 392 l 1
 16 392 l 1
 16 426 l 1
 140 426 l 1
 140 376 l 1
 155 407 219 440 240 440 c 0
 296 440 319 411 329 373 c 1
 362 414 417 440 436 440 c 0
 528 440 531 361 531 296 c 2
 531 -29 l 2
 531 -88 482 -138 427 -140 c 0
 347 -142 356 -52 407 -51 c 0
 441 -50 454 -86 432 -111 c 0
 426 -118 424 -122 416 -126 c 1
 427 -126 433 -124 443 -119 c 0
EndSplineSet
MinimumDistance: x27,-1 x6,8 x6,7 x19,21 x19,20 x18,16 x18,17 x13,15 x13,14 
EndChar
StartChar: uni0272
Encoding: 626 626
Width: 600
HStem: 0 34<369 454 492 575> 392 34<23 108> 403 37<305.848 323>
VStem: -15.2787 73.2251<-89 -82> 22 124<392 425> 109 36<-41 332 377 391> 455 37<34 298>
Fore
60 -116 m 0
 82 -104 109 -78 109 -53 c 2
 109 392 l 1
 22 392 l 1
 22 426 l 1
 146 426 l 1
 146 376 l 1
 156 382 170 390 184 397 c 0
 223 418 275 440 321 440 c 0
 404 440 492 363 492 296 c 2
 492 34 l 1
 576 34 l 1
 576 0 l 1
 368 0 l 1
 368 34 l 1
 455 34 l 1
 455 296 l 2
 455 337 389 403 321 403 c 0
 269 403 192 363 145 332 c 1
 145 -26 l 2
 145 -102 99 -135 43 -137 c 0
 -36 -139 -27 -49 24 -48 c 0
 57 -47 70 -83 48 -108 c 0
 42 -115 40 -119 32 -123 c 1
 44 -123 50 -121 60 -116 c 0
EndSplineSet
MinimumDistance: x11,-1 x15,13 x15,14 x10,12 x10,11 x2,4 x2,3 
EndChar
StartChar: uni0273
Encoding: 627 627
Width: 600
HStem: -143.41 87.674<568 570> 0 34<23 108 146 229> 392 34<23 108> 403 37<310 326>
VStem: 109 36<35 332 377 391> 455 36<-48 304> 542.024 75.1784<-96 -88>
Fore
568 -130 m 1
 560 -126 558 -122 552 -115 c 0
 530 -90 543 -55 576 -55 c 0
 630 -55 638 -144 557 -144 c 0
 501 -144 455 -98 455 -33 c 2
 455 296 l 2
 455 337 389 403 321 403 c 0
 269 403 192 363 145 332 c 1
 145 34 l 1
 230 34 l 1
 230 0 l 1
 22 0 l 1
 22 34 l 1
 109 34 l 1
 109 392 l 1
 22 392 l 1
 22 426 l 1
 145 426 l 1
 145 376 l 1
 156 382 170 390 184 397 c 0
 223 418 275 440 321 440 c 0
 404 440 491 363 491 296 c 2
 491 -56 l 1
 497 -89 525 -128 568 -130 c 1
EndSplineSet
MinimumDistance: x14,16 x14,15 x13,11 x13,12 x8,10 x8,9 
EndChar
StartChar: uni0274
Encoding: 628 628
Width: 600
HStem: 0 34<24 68 107 208> 392 34<24 68 381 483 522 566>
VStem: 69 37<34 391> 484 37<48 392>
Fore
484 47 m 1
 484 392 l 1
 380 392 l 1
 380 426 l 1
 567 426 l 1
 567 392 l 1
 521 392 l 1
 521 0 l 1
 484 0 l 1
 106 392 l 1
 106 34 l 1
 209 34 l 1
 209 0 l 1
 23 0 l 1
 23 34 l 1
 69 34 l 1
 69 392 l 1
 23 392 l 1
 23 426 l 1
 129 426 l 1
 243 294 484 47 484 47 c 1
EndSplineSet
MinimumDistance: x4,-1 y6,8 y6,7 x6,4 x6,5 x1,3 x1,2 x16,18 x16,17 x15,13 x15,14 x10,12 x10,11 
EndChar
StartChar: uni0275
Encoding: 629 629
Width: 600
HStem: -1 37<283 315> 196 34<114 486> 390 37<283 315>
VStem: 75 450<196 230>
Fore
300 427 m 0
 423 427 525 332 525 213 c 0
 525 94 423 -1 300 -1 c 0
 177 -1 75 94 75 213 c 0
 75 332 177 427 300 427 c 0
113 196 m 1
 122 107 202 36 300 36 c 0
 398 36 478 107 487 196 c 1
 113 196 l 1
300 390 m 0
 202 390 122 319 113 230 c 1
 487 230 l 1
 478 319 398 390 300 390 c 0
EndSplineSet
MinimumDistance: x1,-1 
EndChar
StartChar: uni0276
Encoding: 630 630
Width: 600
HStem: 0 34<307 526> 0 37<256 269> 0 113<538 560> 252 34<308 447> 392 34<308 526>
VStem: 32 37<192 224> 270 37<38 251 287 388> 447 34<201 251 287 324>
DStem: 526 392 560 426 535 318 569 318 538 113 572 113 526 34 560 0
Fore
270 37 m 1
 270 389 l 1
 162 389 69 339 69 212 c 0
 69 88 162 37 270 37 c 1
481 325 m 1
 481 200 l 1
 447 200 l 1
 447 252 l 1
 307 252 l 1
 307 34 l 1
 526 34 l 1
 538 113 l 1
 572 113 l 1
 560 0 l 1
 460 0 365 0 270 0 c 0
 136 0 32 72 32 212 c 0
 32 354 136 426 270 426 c 2
 560 426 l 1
 569 318 l 1
 535 318 l 1
 526 392 l 1
 307 392 l 1
 307 286 l 1
 447 286 l 1
 447 325 l 1
 481 325 l 1
EndSplineSet
MinimumDistance: x11,-1 y22,3 y22,23 y6,4 y6,5 
EndChar
StartChar: uni0277
Encoding: 631 631
Width: 600
HStem: -14 37<196.238 212 404 420> 402 37<292 332>
VStem: 52 37<162 194> 293 37<85.8092 308> 538 37<178 210>
Fore
89 181 m 8
 89 101 139 23 210 23 c 0
 256 23 293 56 293 96 c 2
 293 309 l 1
 330 309 l 1
 330 96 l 2
 330 59 370 25 412 25 c 0
 488 25 538 105 538 192 c 0
 538 310 435 402 312 402 c 16
 192 402 89 302 89 181 c 8
313 38 m 1
 291 6 251 -14 210 -14 c 0
 108 -14 52 89 52 181 c 0
 52 323 170 439 312 439 c 0
 451 439 575 334 575 192 c 0
 575 97 519 -12 412 -12 c 0
 375 -12 336 8 313 38 c 1
EndSplineSet
MinimumDistance: x13,-1 
EndChar
StartChar: uni0279
Encoding: 633 633
Width: 600
HStem: -14 37<162 178> 0 34<387 471> 392 34<265 348 387 471>
VStem: 349 37<34 49 94 392> 349 123<1 33>
Fore
65 63 m 1
 75 52 131 23 166 23 c 0
 219 23 302 62 349 94 c 1
 349 392 l 1
 264 392 l 1
 264 426 l 1
 472 426 l 1
 472 392 l 1
 386 392 l 1
 386 34 l 1
 472 34 l 1
 472 0 l 1
 349 0 l 1
 349 50 l 1
 338 44 325 36 310 29 c 0
 271 8 212 -14 166 -14 c 0
 122 -14 67 8 34 39 c 1
 65 63 l 1
EndSplineSet
MinimumDistance: x6,-1 x9,11 x9,10 x8,6 x8,7 x3,5 x3,4 
EndChar
StartChar: uni027A
Encoding: 634 634
Width: 600
HStem: -4 37<162 178> 10 34<387 471> 598 34<265 348 387 471>
VStem: 349 37<44 59 104 598> 349 123<11 43>
Fore
65 73 m 1
 75 62 131 33 166 33 c 0
 219 33 302 72 349 104 c 1
 349 598 l 1
 264 598 l 1
 264 632 l 1
 472 632 l 1
 472 598 l 1
 386 598 l 1
 386 44 l 1
 472 44 l 1
 472 10 l 1
 349 10 l 1
 349 60 l 1
 338 54 325 46 310 39 c 0
 271 18 212 -4 166 -4 c 0
 122 -4 67 18 34 49 c 1
 65 73 l 1
EndSplineSet
MinimumDistance: x6,-1 x9,11 x9,10 x8,6 x8,7 x3,5 x3,4 
EndChar
StartChar: uni027B
Encoding: 635 635
Width: 600
HStem: -94.4289 13.6813<438 445> -14 37<162 178> 392 34<265 348 387 471>
VStem: 349 37<-13 49 94 392>
Fore
386 392 m 1
 386 -36 l 2
 386 -61 427 -88 449 -79 c 1
 445 -72 443 -66 443 -58 c 0
 443 -8 516 -5 515 -45 c 0
 514 -77 488 -95 449 -95 c 0
 395 -95 349 -54 349 0 c 2
 349 50 l 1
 338 44 325 36 310 29 c 0
 271 8 212 -14 166 -14 c 0
 122 -14 67 8 34 39 c 1
 65 63 l 1
 75 52 131 23 166 23 c 0
 219 23 302 62 349 94 c 1
 349 392 l 1
 264 392 l 1
 264 426 l 1
 472 426 l 1
 472 392 l 1
 386 392 l 1
EndSplineSet
MinimumDistance: x17,-1 x14,16 x14,15 x0,17 x0,18 
EndChar
StartChar: uni027C
Encoding: 636 636
Width: 600
HStem: -197 34<57 142 181 263> 392 34<57 142> 403 37<346.454 364>
VStem: 143 37<-162 332 377 391>
Fore
463 364 m 1
 453 374 397 403 362 403 c 0
 310 403 227 364 180 332 c 1
 180 -163 l 1
 264 -163 l 1
 264 -197 l 1
 56 -197 l 1
 56 -163 l 1
 143 -163 l 1
 143 392 l 1
 56 392 l 1
 56 426 l 1
 180 426 l 1
 180 376 l 1
 191 383 204 390 218 398 c 0
 257 418 316 440 362 440 c 0
 407 440 461 418 494 387 c 1
 463 364 l 1
EndSplineSet
MinimumDistance: x4,-1 x9,11 x9,10 x8,6 x8,7 x3,5 x3,4 
EndChar
StartChar: uni027D
Encoding: 637 637
Width: 600
HStem: -95 16<238 248> 392 34<63 148> 402 37<352.594 370>
VStem: 148 37<-13 331 376 391> 243 72<-58 -45>
Fore
249 -79 m 1
 245 -72 243 -66 243 -58 c 0
 243 -8 315 -5 315 -45 c 0
 315 -77 288 -95 249 -95 c 0
 195 -95 148 -54 148 0 c 1
 148 392 l 1
 62 392 l 1
 62 426 l 1
 185 426 l 1
 185 375 l 1
 196 381 210 389 224 396 c 0
 263 417 322 439 368 439 c 0
 412 439 467 417 500 386 c 1
 469 362 l 1
 459 373 403 402 368 402 c 0
 316 402 232 362 185 331 c 1
 185 -12 l 2
 185 -37 227 -88 249 -79 c 1
EndSplineSet
MinimumDistance: x2,-1 x5,7 x5,6 
EndChar
StartChar: uni027E
Encoding: 638 638
Width: 600
HStem: 0 34<176 259 297 382> 413.734 13.695<348 355>
VStem: 259 37<34 336> 353 72<378 391>
Fore
259 333 m 2
 259 387 305 428 359 428 c 0
 398 428 425 412 425 378 c 0
 425 338 353 341 353 391 c 0
 353 399 355 405 359 412 c 1
 338 421 296 394 296 369 c 2
 296 34 l 1
 383 34 l 1
 383 0 l 1
 175 0 l 1
 175 34 l 1
 259 34 l 1
 259 333 l 2
EndSplineSet
MinimumDistance: x2,-1 x11,9 x11,10 x6,8 x6,7 
EndChar
StartChar: uni027F
Encoding: 639 639
Width: 600
HStem: 0 34<199 284 322 405> 413.425 14.575<222 236>
VStem: 156 72<378 391> 285 37<34 336>
Fore
322 333 m 2
 322 34 l 1
 406 34 l 1
 406 0 l 1
 198 0 l 1
 198 34 l 1
 285 34 l 1
 285 369 l 2
 285 394 243 421 222 412 c 1
 226 405 228 399 228 391 c 0
 228 341 156 338 156 378 c 0
 156 410 183 428 222 428 c 0
 276 428 322 387 322 333 c 2
EndSplineSet
MinimumDistance: x2,-1 x6,4 x6,5 x1,3 x1,2 
EndChar
StartChar: uni0280
Encoding: 640 640
Width: 600
HStem: 0 34<10 105 143 271 460 529> 178 34<143 293 347 393> 392 34<10 105 143 409>
VStem: 106 36<34 177 213 391> 496 34<288 304>
Fore
143 212 m 1
 382 212 l 2
 430 212 496 225 496 302 c 0
 496 386 437 392 382 392 c 2
 143 392 l 1
 143 212 l 1
346 178 m 1
 391 137 439 90 460 34 c 1
 530 34 l 1
 530 0 l 1
 436 0 l 1
 411 67 374 115 293 178 c 1
 142 178 l 1
 142 34 l 1
 272 34 l 1
 272 0 l 1
 9 0 l 1
 9 34 l 1
 106 34 l 1
 106 392 l 1
 9 392 l 1
 9 426 l 1
 382 426 l 2
 449 426 530 411 530 302 c 0
 530 201 442 178 382 178 c 2
 346 178 l 1
EndSplineSet
MinimumDistance: x7,-1 x18,20 x18,19 x17,15 x17,16 x12,14 x12,13 
EndChar
StartChar: uni0281
Encoding: 641 641
Width: 600
HStem: 0 34<10 105 144 409> 214 34<143 293 347 393> 392 34<10 105 143 271 460 529>
VStem: 106 37<35 213 249 391> 496 34<112 128>
Fore
143 214 m 1
 143 34 l 1
 382 34 l 2
 437 34 496 40 496 124 c 0
 496 201 430 214 382 214 c 2
 143 214 l 1
346 248 m 1
 382 248 l 2
 442 248 530 225 530 124 c 0
 530 15 449 0 382 0 c 2
 9 0 l 1
 9 34 l 1
 106 34 l 1
 106 392 l 1
 9 392 l 1
 9 426 l 1
 272 426 l 1
 272 392 l 1
 142 392 l 1
 142 248 l 1
 293 248 l 1
 374 311 411 359 436 426 c 1
 530 426 l 1
 530 392 l 1
 460 392 l 1
 439 336 391 289 346 248 c 1
EndSplineSet
MinimumDistance: x7,-1 x17,15 x17,16 x12,14 x12,13 x11,9 x11,10 
EndChar
StartChar: uni0282
Encoding: 642 642
Width: 600
HStem: -124.349 13.7039<216 223> -5 37<280 312> 395 37<280 312>
VStem: 120.382 36.7236<-32 -21> 125 37<320 327> 221 72<-88 -75> 439 37<100.985 118>
Fore
173 23 m 0
 169 10 163 -2 158 -12 c 0
 147 -37 189 -124 227 -109 c 1
 223 -102 221 -96 221 -88 c 0
 221 -38 293 -32 293 -75 c 0
 293 -107 266 -125 227 -125 c 0
 164 -125 105 -60 124 -12 c 1
 124 -12 133 10 138 21 c 0
 143 32 147 50 147 60 c 0
 147 72 132 107 124 116 c 1
 158 116 l 1
 158 116 170 96 171 94 c 0
 196 59 242 32 298 32 c 0
 373 32 439 59 439 112 c 0
 439 234 125 158 125 325 c 0
 125 398 222 432 304 432 c 0
 339 432 375 421 405 405 c 0
 413 400 416 398 417 405 c 0
 419 418 418 420 426 432 c 1
 460 432 l 1
 456 424 448 400 448 383 c 0
 448 353 462 330 472 321 c 1
 438 321 l 1
 417 354 368 395 304 395 c 1
 228 395 162 373 162 325 c 0
 162 195 476 269 476 112 c 0
 476 37 385 -5 298 -5 c 0
 255 -5 215 8 184 28 c 0
 178 33 175 30 173 23 c 0
EndSplineSet
MinimumDistance: x25,-1 
EndChar
StartChar: uni0283
Encoding: 643 643
Width: 600
HStem: -183 37<133 165> 593 37<405 421>
VStem: 265 37<-68.2533 507>
Fore
265 505 m 2
 265 579 349 630 414 630 c 0
 480 630 531 606 562 583 c 1
 541 553 l 1
 514 572 470 593 415 593 c 0
 359 593 302 549 302 505 c 2
 302 -58 l 2
 302 -132 218 -183 153 -183 c 0
 87 -183 36 -159 5 -136 c 1
 26 -106 l 1
 53 -125 97 -146 152 -146 c 0
 208 -146 265 -102 265 -58 c 2
 265 505 l 2
EndSplineSet
MinimumDistance: x5,-1 
EndChar
StartChar: uni0284
Encoding: 644 644
Width: 600
HStem: -183 37<133 165> 16 34<176 264 303 391> 408 34<176 264 303 391> 593 37<405 421>
VStem: 265 37<-68.2533 16 50 408 442 507>
Fore
265 505 m 2
 265 579 349 630 414 630 c 0
 480 630 531 606 562 583 c 1
 541 553 l 1
 514 572 470 593 415 593 c 0
 359 593 302 549 302 505 c 2
 302 442 l 1
 392 442 l 1
 392 408 l 1
 302 408 l 1
 302 50 l 1
 392 50 l 1
 392 16 l 1
 302 16 l 1
 302 -58 l 2
 302 -132 218 -183 153 -183 c 0
 87 -183 36 -159 5 -136 c 1
 26 -106 l 1
 53 -125 97 -146 152 -146 c 0
 208 -146 265 -102 265 -58 c 2
 265 16 l 1
 175 16 l 1
 175 50 l 1
 265 50 l 1
 265 408 l 1
 175 408 l 1
 175 442 l 1
 265 442 l 1
 265 505 l 2
EndSplineSet
MinimumDistance: x7,-1 x24,26 x24,25 x20,22 x20,21 x10,12 x10,11 x6,8 x6,7 
EndChar
StartChar: uni0285
Encoding: 645 645
Width: 600
HStem: -183 37<418 434> 593 37<146 178>
VStem: 279 37<-68.2533 507>
Fore
316 505 m 2
 316 -58 l 2
 316 -102 373 -146 428 -146 c 0
 484 -146 528 -125 554 -106 c 1
 576 -136 l 1
 545 -159 493 -183 428 -183 c 0
 362 -183 279 -132 279 -58 c 2
 279 505 l 2
 279 549 222 593 166 593 c 0
 110 593 67 572 40 553 c 1
 18 583 l 1
 50 606 101 630 166 630 c 0
 232 630 316 579 316 505 c 2
EndSplineSet
MinimumDistance: x0,-1 
EndChar
StartChar: uni0286
Encoding: 646 646
Width: 600
HStem: -172 36<197 206> 9.75383 36.9159<229 245> 593 37<405 421>
VStem: 101 37<-74.0695 -55> 265 37<-72.91 -7 46 507> 376 37<-146.938 -128.557>
Fore
265 7 m 1
 214 17 138 2 138 -59 c 0
 138 -109 169 -136 202 -136 c 0
 233 -136 265 -110 265 -57 c 2
 265 7 l 1
265 505 m 2
 265 579 349 630 414 630 c 0
 480 630 531 606 562 583 c 1
 541 553 l 1
 514 572 470 593 415 593 c 0
 359 593 302 549 302 505 c 2
 302 35 l 1
 375 5 413 -78 413 -147 c 1
 376 -147 l 1
 376 -92 349 -34 302 -6 c 1
 302 -58 l 2
 302 -134 253 -172 204 -172 c 0
 152 -172 101 -134 101 -59 c 0
 101 25 192 55 265 45 c 1
 265 505 l 2
EndSplineSet
MinimumDistance: x11,-1 
EndChar
StartChar: uni0287
Encoding: 647 647
Width: 600
HStem: -7 21G<420 457> 125 34<169 419 457 534> 532 37<266 282>
VStem: 420 37<-6 125 159 419>
Fore
535 125 m 1
 457 125 l 1
 457 -7 l 1
 420 -7 l 1
 420 125 l 1
 168 125 l 1
 168 159 l 1
 420 159 l 1
 420 410 l 2
 420 472 350 532 272 532 c 0
 191 532 87 420 85 418 c 1
 58 442 l 1
 106 496 197 569 272 569 c 0
 364 569 457 498 457 410 c 2
 457 159 l 1
 535 159 l 1
 535 125 l 1
EndSplineSet
MinimumDistance: x0,-1 y1,3 y1,2 x4,6 x4,5 x1,15 x1,0 
EndChar
StartChar: uni0288
Encoding: 648 648
Width: 600
HStem: -125.364 87.6274<245 247> 392 34<54 132 169 419>
VStem: 132 36<-30 392 426 557> 219.024 73.7218<-78 -69>
Fore
245 -112 m 1
 237 -108 235 -104 229 -97 c 0
 207 -72 220 -37 253 -37 c 0
 306 -37 312 -126 234 -126 c 0
 178 -126 132 -74 132 -15 c 2
 132 392 l 1
 53 392 l 1
 53 426 l 1
 131 426 l 1
 131 558 l 1
 168 558 l 1
 168 426 l 1
 420 426 l 1
 420 392 l 1
 168 392 l 1
 168 -49 l 1
 173 -81 206 -109 245 -112 c 1
EndSplineSet
MinimumDistance: x12,-1 x9,11 x10,8 y8,10 y8,9 x11,13 x11,12 x8,7 x8,6 
EndChar
StartChar: uni0289
Encoding: 649 649
Width: 600
HStem: -13 37<262.279 279> 0 34<491 575> 273 34<25 107 144 452 490 577> 392 34<23 107 369 452>
VStem: 22 122<392 426> 107 36<130 272 307 392> 453 37<34 51 95 273 307 392> 453 123<1 33>
Fore
144 273 m 1
 144 233 143 189 143 131 c 0
 143 90 209 24 277 24 c 0
 329 24 406 64 453 95 c 1
 453 273 l 1
 144 273 l 1
453 51 m 1
 442 45 428 37 414 30 c 0
 375 9 323 -13 277 -13 c 0
 194 -13 107 64 107 131 c 2
 107 273 l 1
 24 273 l 1
 24 307 l 1
 107 307 l 1
 107 392 l 1
 22 392 l 1
 22 426 l 1
 144 426 l 1
 144 382 144 345 144 307 c 1
 453 307 l 1
 453 392 l 1
 368 392 l 1
 368 426 l 1
 490 426 l 1
 490 381 490 344 490 307 c 1
 578 307 l 1
 578 273 l 1
 490 273 l 1
 490 210 490 34 490 34 c 1
 576 34 l 1
 576 0 l 1
 453 0 l 1
 453 51 l 1
EndSplineSet
MinimumDistance: x24,-1 x21,23 y23,21 y23,22 y17,15 y17,16 x27,29 x27,28 x23,25 x23,24 x19,21 x19,20 x13,15 x13,14 x9,11 x9,10 
EndChar
StartChar: uni028A
Encoding: 650 650
Width: 600
HStem: -1 37<294 310> 392 34<129 212 387 471>
VStem: 121 37<144.071 168> 439 37<157 175>
DStem: 110 426 129 392 70 361 99 343 471 392 490 426 501 343 530 361
Fore
350 426 m 1
 490 426 l 1
 530 361 l 1
 501 343 l 1
 471 392 l 1
 386 392 l 1
 398 287 476 252 476 166 c 0
 476 72 392 -1 299 -1 c 0
 208 -1 121 63 121 158 c 16
 121 260 213 302 213 392 c 1
 129 392 l 1
 99 343 l 1
 70 361 l 1
 110 426 l 1
 251 426 l 1
 251 354 243 329 200 264 c 0
 177 230 158 200 158 158 c 0
 158 93 223 36 299 36 c 0
 375 36 439 96 439 166 c 0
 439 243 350 275 350 426 c 1
EndSplineSet
MinimumDistance: x2,-1 
EndChar
StartChar: uni028B
Encoding: 651 651
Width: 600
HStem: -13 37<262 279> 392 34<23 106 369 456>
VStem: 94 37<227 291> 465 37<243 279>
Fore
277 -13 m 0
 89 -13 94 156 94 283 c 0
 94 313 107 392 107 392 c 1
 22 392 l 1
 22 426 l 1
 148 426 l 1
 148 426 131 326 131 280 c 0
 131 174 130 24 277 24 c 0
 382 24 465 144 465 251 c 0
 465 285 456 392 456 392 c 1
 368 392 l 1
 368 426 l 1
 490 426 l 1
 490 426 502 317 502 264 c 0
 502 100 400 -13 277 -13 c 0
EndSplineSet
MinimumDistance: x13,-1 
EndChar
StartChar: uni028C
Encoding: 652 652
Width: 600
HStem: 0 34<9 84 126 198 398 470 513 587> 420 20G<284 312>
VStem: 8 191<1 34> 397 191<1 34>
DStem: 284 440 298 386 84 34 125 34 298 386 312 440 471 34 513 34
Fore
8 34 m 1
 84 34 l 1
 284 440 l 1
 312 440 l 1
 513 34 l 1
 588 34 l 1
 588 0 l 1
 397 0 l 1
 397 34 l 1
 471 34 l 1
 298 386 l 1
 125 34 l 1
 199 34 l 1
 199 0 l 1
 8 0 l 1
 8 34 l 1
EndSplineSet
MinimumDistance: x5,-1 
EndChar
StartChar: uni028D
Encoding: 653 653
Width: 600
HStem: 0 34<2 38 78 201 401 524 563 600>
VStem: 1 201<1 34> 400 201<1 34>
DStem: 168 449 183 370 38 34 77 34 183 370 191 449 287 100 301 168 410 449 419 370 301 168 314 100 419 370 434 449 525 34 563 34
Fore
525 34 m 1
 419 370 l 1
 314 100 l 1
 287 100 l 1
 183 370 l 1
 77 34 l 1
 202 34 l 1
 202 0 l 1
 1 0 l 1
 1 34 l 1
 38 34 l 1
 168 449 l 1
 191 449 l 1
 301 168 l 1
 410 449 l 1
 434 449 l 1
 563 34 l 1
 601 34 l 1
 601 0 l 1
 400 0 l 1
 400 34 l 1
 525 34 l 1
EndSplineSet
EndChar
StartChar: uni028E
Encoding: 654 654
Width: 600
HStem: 0 34<9 84 126 198 398 470 513 587> 560 34<315 343 386 597>
VStem: 8 191<1 34> 397 191<1 34>
DStem: 299 384 319 426 471 34 513 34 344 560 386 560 84 34 319 426 344 560 299 384 84 34 125 34
Fore
314 594 m 1
 598 594 l 1
 598 560 l 1
 386 560 l 1
 319 426 l 1
 513 34 l 1
 588 34 l 1
 588 0 l 1
 397 0 l 1
 397 34 l 1
 471 34 l 1
 299 384 l 1
 125 34 l 1
 199 34 l 1
 199 0 l 1
 8 0 l 1
 8 34 l 1
 84 34 l 1
 344 560 l 1
 314 560 l 1
 314 594 l 1
EndSplineSet
MinimumDistance: x6,-1 
EndChar
StartChar: uni028F
Encoding: 655 655
Width: 600
HStem: 0 34<223 280 317 375> 392 34<59 94 140 200 400 460 506 541>
VStem: 59 141<392 425> 280 37<34 204> 400 141<392 425>
DStem: 94 392 140 392 280 204 300 236 460 392 506 392 300 236 317 204
Fore
317 34 m 1
 375 34 l 1
 375 0 l 1
 282 0 298 0 223 0 c 1
 223 34 l 1
 280 34 l 1
 280 204 l 1
 94 392 l 1
 59 392 l 1
 59 426 l 1
 125 426 99 426 200 426 c 1
 200 392 l 1
 140 392 l 1
 300 236 l 1
 460 392 l 1
 400 392 l 1
 400 426 l 1
 501 426 475 426 541 426 c 1
 541 392 l 1
 506 392 l 1
 317 204 l 1
 317 34 l 1
EndSplineSet
MinimumDistance: x17,-1 x5,3 x5,4 x0,2 x0,1 
EndChar
StartChar: uni0290
Encoding: 656 656
Width: 600
HStem: -101.02 12.0204<588 595> 0 34<152 483> 0 70<484 486> 392 34<118 446>
VStem: 83 34<357 391> 483 34<35 69> 486 31<-8 -1>
DStem: 447 392 499 392 99 34 151 34
Fore
601 -102 m 0
 547 -102 486 -49 486 0 c 1
 99 0 l 1
 99 34 l 1
 447 392 l 1
 117 392 l 1
 117 356 l 1
 83 356 l 1
 83 426 l 1
 499 426 l 1
 499 392 l 1
 151 34 l 1
 483 34 l 1
 483 70 l 1
 517 70 l 1
 517 -7 l 2
 517 -42 561 -89 587 -89 c 0
 593 -89 596 -88 601 -86 c 1
 597 -79 595 -73 595 -65 c 0
 595 -15 668 -12 667 -52 c 0
 666 -84 640 -102 601 -102 c 0
EndSplineSet
MinimumDistance: x14,-1 y5,7 y5,6 y12,14 y12,13 
EndChar
StartChar: uni0291
Encoding: 657 657
Width: 600
HStem: 0 34<152 218 270 359> 106 34<352 371> 392 34<118 446>
VStem: 83 34<357 391> 211 34<-49.9844 -35.0835> 445 34<69 72>
DStem: 447 392 499 392 99 34 151 34
Fore
269 34 m 1
 353 34 l 2
 365 34 445 39 445 70 c 0
 445 103 378 106 357 106 c 0
 321 106 290 73 269 34 c 1
151 34 m 1
 231 34 l 1
 257 90 304 140 357 140 c 0
 401 140 479 130 479 70 c 0
 479 12 395 0 353 0 c 2
 255 0 l 1
 248 -18 245 -36 245 -50 c 1
 211 -50 l 1
 211 -34 214 -17 219 0 c 1
 99 0 l 1
 99 34 l 1
 447 392 l 1
 117 392 l 1
 117 356 l 1
 83 356 l 1
 83 426 l 1
 499 426 l 1
 499 392 l 1
 151 34 l 1
EndSplineSet
MinimumDistance: x20,-1 y16,18 y16,17 
EndChar
StartChar: uni0292
Encoding: 658 658
Width: 600
HStem: -207 37<208 249> 181 38<208.016 249> 392 34<124 372>
VStem: 89 34<357 391> 425 37<1 17>
DStem: 373 392 425 392 156 219 208 219
Fore
156 181 m 1
 156 219 l 1
 373 392 l 1
 123 392 l 1
 123 356 l 1
 89 356 l 1
 89 426 l 1
 425 426 l 1
 425 392 l 1
 208 219 l 1
 219 219 227 218 238 218 c 0
 356 218 462 125 462 6 c 0
 462 -113 361 -207 229 -207 c 0
 174 -207 139 -197 91 -165 c 1
 111 -132 l 1
 150 -158 184 -170 229 -170 c 0
 338 -170 425 -91 425 6 c 0
 425 103 342 181 238 181 c 0
 162 181 156 181 156 181 c 1
EndSplineSet
MinimumDistance: x11,-1 y3,5 y3,4 
EndChar
StartChar: uni0293
Encoding: 659 659
Width: 600
HStem: -208 37<209 248> -32 37<207 240> 181 38<208.016 248> 392 34<124 372>
VStem: 88 37<-112 -107 357 391> 425 37<0 16>
DStem: 373 392 425 392 156 219 208 219
Fore
394 -89 m 1
 343 -55 287 -32 222 -32 c 0
 169 -32 125 -65 125 -109 c 0
 125 -147 170 -171 229 -171 c 0
 299 -171 359 -138 394 -89 c 1
425 6 m 0
 425 103 342 181 238 181 c 0
 162 181 156 181 156 181 c 1
 156 219 l 1
 373 392 l 1
 123 392 l 1
 123 356 l 1
 89 356 l 1
 89 426 l 1
 425 426 l 1
 425 392 l 1
 208 219 l 1
 219 219 227 218 238 218 c 0
 358 218 462 125 462 6 c 0
 462 -24 456 -53 444 -79 c 1
 467 -97 490 -116 511 -135 c 1
 487 -163 l 1
 466 -145 446 -127 425 -111 c 1
 384 -169 313 -208 229 -208 c 0
 172 -208 88 -184 88 -109 c 0
 88 -36 158 5 222 5 c 0
 295 5 357 -21 412 -57 c 1
 421 -37 425 -16 425 6 c 0
EndSplineSet
MinimumDistance: x17,-1 x11,9 y9,11 y9,10 
EndChar
StartChar: uni0294
Encoding: 660 660
Width: 600
Flags: W
HStem: 0 21G<284 321> 431 21G<121 158> 529 35<281 313>
VStem: 121 37<432 451> 284 37<1 208> 438 37<416.72 433>
Fore
284 0 m 5
 284 205 l 6
 284 302 438 326 438 431 c 4
 438 498 365 529 293 529 c 4
 225 529 158 501 158 449 c 6
 158 431 l 5
 121 431 l 5
 121 449 l 6
 121 526 206 564 292 564 c 4
 382 564 475 523 475 431 c 4
 475 312 321 278 321 205 c 6
 321 0 l 5
 284 0 l 5
EndSplineSet
MinimumDistance: x9,-1 
EndChar
StartChar: uni0295
Encoding: 661 661
Width: 600
HStem: 0 21G<276 313> 431 21G<439 476> 529 35<282 315>
VStem: 122 37<416.72 433> 276 37<1 208> 439 37<432 451>
Fore
313 0 m 1
 276 0 l 1
 276 205 l 2
 276 278 122 312 122 431 c 0
 122 523 215 564 305 564 c 0
 391 564 476 526 476 449 c 2
 476 431 l 1
 439 431 l 1
 439 449 l 2
 439 501 372 529 304 529 c 0
 232 529 159 498 159 431 c 0
 159 326 313 302 313 205 c 2
 313 0 l 1
EndSplineSet
MinimumDistance: x5,-1 
EndChar
StartChar: uni0296
Encoding: 662 662
Width: 600
HStem: -2 35<282 314> 542 20G<285 322>
VStem: 122 37<110 130> 285 37<350 561> 439 37<126 142>
Fore
285 562 m 1
 322 562 l 1
 322 357 l 2
 322 284 476 250 476 131 c 0
 476 39 383 -2 293 -2 c 0
 207 -2 122 36 122 113 c 2
 122 131 l 1
 159 131 l 1
 159 113 l 2
 159 61 226 33 294 33 c 0
 366 33 439 64 439 131 c 0
 439 236 285 260 285 357 c 2
 285 562 l 1
EndSplineSet
MinimumDistance: x3,-1 
EndChar
StartChar: uni0297
Encoding: 663 663
Width: 600
HStem: -2 37<293 309> 493 138<448 464> 596 37<293 309>
VStem: 133 37<158 494>
Fore
307 633 m 0
 356 633 398 609 419 589 c 1
 428 583 430 581 431 590 c 0
 433 607 439 622 443 631 c 1
 477 631 l 1
 473 619 464 582 464 561 c 0
 464 540 475 512 483 493 c 1
 448 493 l 1
 429 556 370 596 307 596 c 0
 212 596 170 550 170 480 c 0
 170 464 170 193 170 176 c 0
 170 79 199 35 307 35 c 0
 354 35 402 59 435 100 c 1
 466 79 l 1
 428 31 369 -2 307 -2 c 0
 172 -2 133 64 133 176 c 0
 133 201 133 458 133 482 c 0
 133 570 195 633 307 633 c 0
EndSplineSet
MinimumDistance: x9,-1 
EndChar
StartChar: uni0298
Encoding: 664 664
Width: 600
HStem: -1 37<283 315> 150 124<286.043 302> 390 37<283 315>
VStem: 75 37<207 223> 228 142<207 215> 488 37<207 223>
Fore
300 427 m 0
 423 427 525 332 525 213 c 0
 525 94 423 -1 300 -1 c 0
 177 -1 75 94 75 213 c 0
 75 332 177 427 300 427 c 0
300 390 m 8
 197 390 112 310 112 213 c 0
 112 116 195 36 300 36 c 0
 405 36 488 110 488 213 c 16
 488 312 404 390 300 390 c 8
228 212 m 0
 228 246 259 274 299 274 c 0
 338 274 370 246 370 212 c 0
 370 178 338 150 299 150 c 0
 259 150 228 178 228 212 c 0
EndSplineSet
MinimumDistance: x1,-1 
EndChar
StartChar: uni0299
Encoding: 665 665
Width: 600
HStem: 0 34<82 169 208 369> 259 34<208 369> 392 34<82 169 208 369>
VStem: 170 37<35 258 294 391> 458 34<128 160>
Fore
207 293 m 1
 358 293 l 2
 412 293 453 303 453 342 c 0
 453 383 410 392 358 392 c 2
 207 392 l 1
 207 293 l 1
207 34 m 1
 358 34 l 2
 406 34 458 53 458 150 c 0
 458 223 400 259 358 259 c 2
 207 259 l 1
 207 34 l 1
419 272 m 1
 457 257 492 216 492 150 c 0
 492 38 432 0 358 0 c 2
 81 0 l 1
 81 34 l 1
 170 34 l 1
 170 392 l 1
 81 392 l 1
 81 426 l 1
 358 426 l 2
 422 426 487 415 487 342 c 0
 487 292 460 276 419 272 c 1
EndSplineSet
MinimumDistance: x11,-1 x16,18 x16,17 x15,13 x15,14 
EndChar
StartChar: uni029A
Encoding: 666 666
Width: 600
HStem: 0 36<270 318> 224 37<300 350> 389 38<270 318>
VStem: 78 37<128 136> 92 37<327 336> 488 37<208 226>
Fore
488 213 m 0
 488 310 405 389 301 389 c 0
 255 389 129 391 129 328 c 0
 129 277 268 261 316 261 c 2
 351 261 l 1
 351 224 l 1
 316 224 l 2
 275 224 115 197 115 134 c 0
 115 63 198 36 301 36 c 0
 405 36 488 116 488 213 c 0
78 134 m 0
 78 184 123 236 243 238 c 1
 123 243 92 288 92 328 c 0
 92 423 230 427 301 427 c 0
 424 427 525 332 525 213 c 0
 525 94 428 0 301 0 c 8
 197 0 78 24 78 134 c 0
EndSplineSet
MinimumDistance: x13,-1 
EndChar
StartChar: uni029B
Encoding: 667 667
Width: 600
HStem: -2 37<300 320> 179 34<376 484> 389 37<300 332> 446.805 13.2791<520 528>
VStem: 76 37<206 222> 375 145<179 212>
Fore
532 445 m 1
 510 454 503 431 499 416 c 0
 495 405 486 368 486 347 c 0
 486 326 497 298 505 279 c 1
 470 279 l 1
 451 342 381 389 318 389 c 0
 219 389 113 335 113 212 c 0
 113 104 210 35 307 35 c 0
 396 35 482 105 485 179 c 1
 375 179 l 1
 375 213 l 1
 520 213 l 1
 520 179 l 1
 517 82 414 -2 307 -2 c 0
 183 -2 76 80 76 212 c 0
 76 353 187 426 318 426 c 0
 379 426 421 398 441 375 c 1
 449 369 452 367 453 376 c 0
 455 393 460 408 465 416 c 1
 468 418 483 461 532 461 c 0
 571 461 597 443 598 411 c 0
 599 371 526 374 526 424 c 0
 526 432 528 438 532 445 c 1
EndSplineSet
MinimumDistance: x11,-1 
EndChar
StartChar: uni029C
Encoding: 668 668
Width: 600
HStem: 0 34<32 126 165 260 339 436 475 567> 246 37<165 436> 392 34<32 126 165 260 340 436 475 568>
VStem: 127 37<34 245 284 392> 437 37<34 245 284 392>
Fore
164 283 m 1
 437 283 l 1
 437 392 l 1
 339 392 l 1
 339 426 l 1
 569 426 l 1
 569 392 l 1
 474 392 l 1
 474 34 l 1
 568 34 l 1
 568 0 l 1
 338 0 l 1
 338 34 l 1
 437 34 l 1
 437 246 l 1
 164 246 l 1
 164 34 l 1
 261 34 l 1
 261 0 l 1
 31 0 l 1
 31 34 l 1
 127 34 l 1
 127 392 l 1
 31 392 l 1
 31 426 l 1
 261 426 l 1
 261 392 l 1
 164 392 l 1
 164 283 l 1
EndSplineSet
MinimumDistance: x5,-1 x13,11 x13,12 x8,10 x8,9 x7,5 x7,6 x2,4 x2,3 x27,25 x27,26 x22,24 x22,23 x21,19 x21,20 x16,18 x16,17 
EndChar
StartChar: uni029D
Encoding: 669 669
Width: 600
HStem: -192 37<137 167> -8 37<153 185> 392 34<160 289> 465 97<253 325>
VStem: -7 37<-95 -80> 252 74<466 561> 290 37<3 391>
Fore
289 -39 m 1
 252 -21 214 -8 165 -8 c 0
 127 -8 30 -28 30 -85 c 0
 30 -137 100 -155 155 -155 c 0
 210 -155 285 -94 289 -39 c 1
-7 -85 m 0
 -7 2 103 29 165 29 c 0
 215 29 253 18 290 2 c 1
 290 392 l 1
 159 392 l 1
 159 426 l 1
 327 426 l 1
 327 -17 l 1
 346 -27 392 -51 413 -62 c 1
 396 -95 l 1
 380 -87 339 -65 324 -57 c 1
 313 -120 232 -192 155 -192 c 0
 78 -192 -7 -165 -7 -85 c 0
326 562 m 1
 326 465 l 1
 252 465 l 1
 252 562 l 1
 326 562 l 1
EndSplineSet
MinimumDistance: x10,-1 x7,9 x7,8 
EndChar
StartChar: uni029E
Encoding: 670 670
Width: 600
HStem: 206 34<103 181 240 271> 598 34<70 162 211 245 442 540>
VStem: 69 177<598 631> 102 170<207 240> 404 37<48 377 426 598> 404 137<599 631>
DStem: 162 598 210 598 343 376 371 400 343 376 404 378 181 240 239 240 541 83 541 49 441 47 404 0
Fore
246 598 m 1
 210 598 l 1
 371 400 l 1
 404 426 l 1
 404 632 l 1
 541 632 l 1
 541 598 l 1
 441 598 l 1
 441 47 l 1
 541 83 l 1
 541 49 l 1
 404 0 l 1
 404 378 l 1
 239 240 l 1
 272 240 l 1
 272 206 l 1
 102 206 l 1
 102 240 l 1
 181 240 l 1
 343 376 l 1
 162 598 l 1
 69 598 l 1
 69 632 l 1
 246 632 l 1
 246 598 l 1
EndSplineSet
MinimumDistance: x5,-1 x7,5 x7,6 
EndChar
StartChar: uni029F
Encoding: 671 671
Width: 600
HStem: 0 34<99 182 221 467> 0 165<482 502> 392 34<100 182 221 306>
VStem: 183 37<35 392>
DStem: 482 165 516 165 467 34 502 0
Fore
183 392 m 1
 99 392 l 1
 99 426 l 1
 307 426 l 1
 307 392 l 1
 220 392 l 1
 220 34 l 1
 467 34 l 1
 482 165 l 1
 516 165 l 1
 502 0 l 1
 98 0 l 1
 98 34 l 1
 183 34 l 1
 183 392 l 1
EndSplineSet
MinimumDistance: x9,-1 x13,11 x13,12 x5,3 x5,4 x0,2 x0,1 
EndChar
StartChar: uni02A0
Encoding: 672 672
Width: 600
HStem: -180 34<322 443 481 559> -1 37<240 272> 390 37<240 272> 505 16<537 544>
VStem: 32 37<204 220> 444 36<-146 95 204 220 331 429> 538 72<471 484>
Fore
610 471 m 0
 610 434 538 434 538 484 c 0
 538 492 540 498 545 505 c 1
 522 514 480 463 480 440 c 0
 480 36 480 -146 480 -146 c 1
 560 -146 l 1
 560 -180 l 1
 321 -180 l 1
 321 -146 l 1
 444 -146 l 1
 444 95 l 1
 403 37 334 -1 257 -1 c 0
 133 -1 32 94 32 213 c 0
 32 332 133 427 256 427 c 0
 334 427 403 389 443 331 c 1
 443 426 l 2
 443 472 490 521 544 521 c 1
 579 525 610 504 610 471 c 0
444 213 m 0
 444 315 355 390 257 390 c 0
 152 390 69 310 69 213 c 0
 69 116 152 36 256 36 c 0
 355 36 444 111 444 213 c 0
EndSplineSet
MinimumDistance: x9,7 x9,8 x4,6 x4,5 
EndChar
StartChar: uni02A1
Encoding: 673 673
Width: 600
HStem: 0 21G<286 323> 96 34<214 286 324 395> 431 21G<123 160> 529 37<283 315>
VStem: 123 37<432 451> 286 37<1 96 130 208> 440 37<416.72 433>
Fore
286 0 m 1
 286 96 l 1
 213 96 l 1
 213 130 l 1
 286 130 l 1
 286 205 l 2
 286 302 440 326 440 431 c 0
 440 497 368 529 298 529 c 0
 228 529 160 502 160 449 c 2
 160 431 l 1
 123 431 l 1
 123 449 l 2
 123 526 207 566 293 566 c 0
 384 566 477 523 477 431 c 0
 477 312 323 278 323 205 c 2
 323 130 l 1
 396 130 l 1
 396 96 l 1
 323 96 l 1
 323 0 l 1
 286 0 l 1
EndSplineSet
MinimumDistance: x13,-1 y1,19 y1,0 x15,17 x15,16 x1,3 x1,2 
EndChar
StartChar: uni02A2
Encoding: 674 674
Width: 600
HStem: 0 21G<274 311> 96 34<202 273 311 383> 431 21G<437 474> 529 37<296 313>
VStem: 120 37<416.72 433> 274 37<1 96 130 208> 437 37<432 451>
Fore
311 0 m 1
 274 0 l 1
 274 96 l 1
 201 96 l 1
 201 130 l 1
 274 130 l 1
 274 205 l 2
 274 278 120 312 120 431 c 0
 120 523 215 566 304 566 c 0
 390 566 474 526 474 449 c 2
 474 431 l 1
 437 431 l 1
 437 449 l 2
 437 501 371 529 302 529 c 0
 230 529 157 498 157 431 c 0
 157 326 311 302 311 205 c 2
 311 130 l 1
 384 130 l 1
 384 96 l 1
 311 96 l 1
 311 0 l 1
EndSplineSet
MinimumDistance: x9,-1 y2,0 y2,1 x16,18 x16,17 x2,4 x2,3 
EndChar
StartChar: uni02A3
Encoding: 675 675
Width: 600
HStem: -2 37<150 155 305 539> 0 70<540 572> 391 37<141.876 155 274 506> 426 21G<273 555>
VStem: 27 37<187 239> 236 37<174 254 371 391 426 590> 539 34<35 69>
DStem: 507 392 555 392 273 56 304 34
Fore
273 56 m 1
 507 392 l 1
 273 392 l 1
 273 56 l 1
151 428 m 0
 185 428 216 405 236 370 c 1
 236 591 l 1
 115 565 l 1
 115 599 l 1
 273 632 l 1
 273 426 l 1
 555 426 l 1
 555 392 l 1
 304 34 l 1
 308 34 l 1
 539 34 l 1
 539 70 l 1
 573 70 l 1
 573 0 l 1
 236 0 l 1
 236 56 l 1
 216 21 185 -2 151 -2 c 0
 75 -2 27 106 27 213 c 0
 27 320 75 428 151 428 c 0
151 391 m 0
 108 391 64 323 64 213 c 0
 64 103 113 35 151 35 c 0
 185 35 236 92 236 186 c 2
 236 240 l 2
 236 326 204 391 151 391 c 0
EndSplineSet
MinimumDistance: x16,-1 y14,16 y14,15 y11,9 x9,11 x9,10 
EndChar
StartChar: uni02A4
Encoding: 676 676
Width: 600
HStem: -207 37<378 400> -2 37<162 170 286 317> 0 21G<247 318> 181 38<368.016 410> 181 245<316 398> 391 37<162 170 286 315 317 468>
VStem: 42 37<186 240> 247 38<34 55 177 257 371 391 426 590> 247 71<1 33> 521 37<-15 17>
DStem: 469 392 521 392 317 219 368 219
Fore
163 428 m 0
 198 428 226 405 247 370 c 1
 247 591 l 1
 125 565 l 1
 125 599 l 1
 285 632 l 1
 285 426 l 1
 521 426 l 1
 521 392 l 1
 368 219 l 1
 379 219 388 218 398 218 c 0
 492 218 558 125 558 6 c 0
 558 -113 478 -207 389 -207 c 0
 350 -207 310 -196 274 -172 c 1
 294 -139 l 1
 325 -159 353 -170 389 -170 c 0
 460 -170 521 -91 521 6 c 0
 521 102 464 181 398 181 c 0
 323 181 316 181 316 181 c 1
 319 191 311 212 317 219 c 1
 469 392 l 1
 285 392 l 1
 285 34 l 1
 318 34 l 1
 318 0 l 1
 247 0 l 1
 247 56 l 1
 226 21 198 -2 163 -2 c 0
 87 -2 42 106 42 213 c 0
 42 320 87 428 163 428 c 0
163 391 m 4
 121 391 79 323 79 213 c 4
 79 103 125 35 163 35 c 4
 198 35 247 92 247 186 c 6
 247 240 l 6
 247 333 218 391 163 391 c 4
EndSplineSet
MinimumDistance: x11,-1 y24,22 x22,24 x22,23 y8,6 x6,8 x6,7 
EndChar
StartChar: uni02A5
Encoding: 677 677
Width: 600
HStem: -20 20G<236 342> -2 37<150 155 305 341 396.03 452.631> 103 34<475 491> 391 37<150 155 274 506> 426 21G<273 555>
VStem: 27 41<187 239> 236 37<171 267 371 391 426 590> 562 34<71 75>
DStem: 507 392 555 392 273 56 304 34
Fore
152 391 m 0
 110 391 68 323 68 213 c 0
 68 103 114 35 152 35 c 0
 187 35 236 92 236 186 c 2
 236 240 l 2
 236 333 207 391 152 391 c 0
273 56 m 1
 507 392 l 1
 273 392 l 1
 273 56 l 1
396 34 m 1
 425 34 562 32 562 72 c 0
 562 84 536 103 482 103 c 0
 448 103 419 74 396 34 c 1
151 428 m 0
 185 428 216 405 236 370 c 1
 236 591 l 1
 115 565 l 1
 115 599 l 1
 273 632 l 1
 273 426 l 1
 555 426 l 1
 555 392 l 1
 304 34 l 1
 357 34 l 1
 385 88 424 137 480 137 c 0
 525 137 596 122 596 72 c 0
 596 -7 437 0 379 0 c 1
 369 -21 361 -45 353 -69 c 1
 321 -59 l 1
 326 -40 333 -20 342 0 c 1
 236 0 l 1
 236 56 l 1
 216 21 185 -2 151 -2 c 0
 75 -2 27 106 27 213 c 0
 27 320 75 428 151 428 c 0
EndSplineSet
MinimumDistance: x23,-1 y19,17 x17,19 x17,18 
EndChar
StartChar: uni02A6
Encoding: 678 678
Width: 600
HStem: 0 37<293 405> 308 111<524 535> 392 34<38 116 154 231>
VStem: 116 37<146.124 392 426 557> 240 37<304 320> 526 37<112 128>
Fore
300 0 m 0
 205 0 116 71 116 159 c 2
 116 392 l 1
 37 392 l 1
 37 426 l 1
 116 426 l 1
 116 558 l 1
 153 558 l 1
 153 426 l 1
 232 426 l 1
 232 392 l 1
 153 392 l 1
 153 159 l 2
 153 97 223 37 300 37 c 0
 382 37 351 37 384 37 c 0
 460 37 526 64 526 117 c 0
 526 239 240 138 240 312 c 0
 240 385 317 419 398 419 c 0
 434 419 462 408 492 391 c 0
 500 387 503 385 504 392 c 0
 505 405 504 407 513 419 c 1
 547 419 l 1
 543 411 535 386 535 370 c 0
 535 346 548 317 558 308 c 1
 524 308 l 1
 506 341 460 382 398 382 c 0
 323 382 277 360 277 312 c 0
 277 182 563 278 563 117 c 0
 563 42 471 0 384 0 c 0
 341 0 333 0 300 0 c 0
EndSplineSet
MinimumDistance: x27,-1 y5,7 y5,6 x8,10 x8,9 x2,4 x2,3 
EndChar
StartChar: uni02A7
Encoding: 679 679
Width: 600
HStem: -183 37<237 269> -19 38<285 367> 392 34<30 108 145 367> 593 37<509 525>
VStem: 108 36<137 391 427 557> 368 37<-68.2533 -19 20 391 427 507>
Fore
368 19 m 1
 368 392 l 1
 144 392 l 1
 144 141 l 2
 144 79 215 19 292 19 c 0
 329 19 353 19 368 19 c 1
368 505 m 2
 368 579 451 630 517 630 c 0
 582 630 634 606 665 583 c 1
 643 553 l 1
 617 572 573 593 517 593 c 0
 462 593 405 549 405 505 c 2
 405 -58 l 2
 405 -132 321 -183 255 -183 c 0
 190 -183 139 -159 107 -136 c 1
 129 -106 l 1
 156 -125 199 -146 255 -146 c 0
 311 -146 368 -102 368 -58 c 2
 368 -19 l 1
 352 -19 328 -19 292 -19 c 0
 201 -19 108 53 108 141 c 2
 108 392 l 1
 29 392 l 1
 29 426 l 1
 107 426 l 1
 107 558 l 1
 144 558 l 1
 144 426 l 1
 368 426 l 1
 368 505 l 2
EndSplineSet
MinimumDistance: x10,-1 x24,26 x25,23 y23,25 y23,24 x23,22 x23,21 
EndChar
